0
SECTION
2
HEADER
9
$INSUNITS
70
4
9
$ACADVER
1
AC1014
9
$HANDSEED
5
FFFF
0
ENDSEC
0
SECTION
2
TABLES
0
TABLE
2
VPORT
5
8
100
AcDbSymbolTable
0
ENDTAB
0
TABLE
2
LTYPE
5
5
100
AcDbSymbolTable
0
LTYPE
5
14
100
AcDbSymbolTableRecord
100
AcDbLinetypeTableRecord
2
BYBLOCK
70
0
0
LTYPE
5
15
100
AcDbSymbolTableRecord
100
AcDbLinetypeTableRecord
2
BYLAYER
70
0
0
ENDTAB
0
TABLE
2
LAYER
5
2
100
AcDbSymbolTable
70
2
0
LAYER
5
50
100
AcDbSymbolTableRecord
100
AcDbLayerTableRecord
2
0
70
0
6
CONTINUOUS
0
ENDTAB
0
TABLE
2
STYLE
5
3
100
AcDbSymbolTable
70
1
0
STYLE
5
11
100
AcDbSymbolTableRecord
100
AcDbTextStyleTableRecord
2
STANDARD
70
0
0
ENDTAB
0
TABLE
2
VIEW
5
6
100
AcDbSymbolTable
70
0
0
ENDTAB
0
TABLE
2
UCS
5
7
100
AcDbSymbolTable
70
0
0
ENDTAB
0
TABLE
2
APPID
5
9
100
AcDbSymbolTable
70
2
0
APPID
5
12
100
AcDbSymbolTableRecord
100
AcDbRegAppTableRecord
2
ACAD
70
0
0
ENDTAB
0
TABLE
2
DIMSTYLE
5
A
100
AcDbSymbolTable
70
1
0
ENDTAB
0
TABLE
2
BLOCK_RECORD
5
1
100
AcDbSymbolTable
70
1
0
BLOCK_RECORD
5
1F
100
AcDbSymbolTableRecord
100
AcDbBlockTableRecord
2
*MODEL_SPACE
0
BLOCK_RECORD
5
1B
100
AcDbSymbolTableRecord
100
AcDbBlockTableRecord
2
*PAPER_SPACE
0
ENDTAB
0
ENDSEC
0
SECTION
2
BLOCKS
0
BLOCK
5
20
100
AcDbEntity
100
AcDbBlockBegin
2
*MODEL_SPACE
0
ENDBLK
5
21
100
AcDbEntity
100
AcDbBlockEnd
0
BLOCK
5
1C
100
AcDbEntity
100
AcDbBlockBegin
2
*PAPER_SPACE
0
ENDBLK
5
1D
100
AcDbEntity
100
AcDbBlockEnd
0
ENDSEC
0
SECTION
2
ENTITIES
0
CIRCLE
5
100
100
AcDbEntity
8
0
100
AcDbCircle
10
-95
20
-20
30
0
40
1.25
0
CIRCLE
5
101
100
AcDbEntity
8
0
100
AcDbCircle
10
-95
20
20
30
0
40
1.25
0
CIRCLE
5
102
100
AcDbEntity
8
0
100
AcDbCircle
10
-82.000001221895218
20
-20.000000298023224
30
0
40
1.25
0
CIRCLE
5
103
100
AcDbEntity
8
0
100
AcDbCircle
10
-82.000001221895218
20
20.000000298023224
30
0
40
1.25
0
CIRCLE
5
104
100
AcDbEntity
8
0
100
AcDbCircle
10
-82.000001221895218
20
-42.499999999999304
30
0
40
1.25
0
CIRCLE
5
105
100
AcDbEntity
8
0
100
AcDbCircle
10
-82.000001221895218
20
42.500000000000675
30
0
40
1.25
0
CIRCLE
5
106
100
AcDbEntity
8
0
100
AcDbCircle
10
-119.99999731779097
20
-69.999998435378075
30
0
40
2.75
0
CIRCLE
5
107
100
AcDbEntity
8
0
100
AcDbCircle
10
-119.99999731779097
20
69.999998435378075
30
-4.4408920985006262e-15
40
2.75
0
CIRCLE
5
108
100
AcDbEntity
8
0
100
AcDbCircle
10
-95.122503554877824
20
-58.820116949682472
30
0
40
1.2500000000009064
0
CIRCLE
5
109
100
AcDbEntity
8
0
100
AcDbCircle
10
-84.956001132523625
20
-48.430707510425037
30
0
40
1.2500000000009064
0
CIRCLE
5
110
100
AcDbEntity
8
0
100
AcDbCircle
10
-90.59415915869431
20
46.378589188091162
30
0
40
1.2500000000009064
0
CIRCLE
5
111
100
AcDbEntity
8
0
100
AcDbCircle
10
-89.484350131740186
20
60.872240347204318
30
0
40
1.6000000000011607
0
CIRCLE
5
112
100
AcDbEntity
8
0
100
AcDbCircle
10
-99.999999999999773
20
32.499999999999353
30
0
40
2.75
0
CIRCLE
5
113
100
AcDbEntity
8
0
100
AcDbCircle
10
-84.999999999999744
20
32.499999999999289
30
-4.4408920985006262e-15
40
2.75
0
CIRCLE
5
114
100
AcDbEntity
8
0
100
AcDbCircle
10
-99.999999999999773
20
-32.499999999999368
30
0
40
2.75
0
CIRCLE
5
115
100
AcDbEntity
8
0
100
AcDbCircle
10
-84.999999999999744
20
-32.499999999999304
30
0
40
2.75
0
CIRCLE
5
116
100
AcDbEntity
8
0
100
AcDbCircle
10
-99.499999999999915
20
8.009635293492761e-14
30
0
40
1.2500000000000013
0
CIRCLE
5
117
100
AcDbEntity
8
0
100
AcDbCircle
10
-85.249999999999943
20
-8.2272413359520904
30
0
40
1.2500000000000013
0
CIRCLE
5
118
100
AcDbEntity
8
0
100
AcDbCircle
10
-85.249999999999929
20
8.2272413359522272
30
0
40
1.2500000000000013
0
LINE
5
119
100
AcDbEntity
8
0
100
AcDbLine
10
-104.99999999999999
20
-75
30
0
11
-89.999999999999986
21
-75
31
-1.1365871415236088e-49
0
ARC
5
120
100
AcDbEntity
8
0
100
AcDbCircle
10
-89.999999999999986
20
-65
30
0
40
10
100
AcDbArc
50
-90
51
0
0
LINE
5
121
100
AcDbEntity
8
0
100
AcDbLine
10
-79.999999999999986
20
-65
30
6.6284564810254219e-48
11
-79.999999999999986
21
65
31
0
0
ARC
5
122
100
AcDbEntity
8
0
100
AcDbCircle
10
-89.999999999999986
20
65
30
0
40
10
100
AcDbArc
50
0
51
90
0
LINE
5
123
100
AcDbEntity
8
0
100
AcDbLine
10
-89.999999999999986
20
75
30
0
11
-104.99999999999999
21
75
31
-8.7007448847334551e-50
0
LINE
5
124
100
AcDbEntity
8
0
100
AcDbLine
10
-104.99999999999999
20
75
30
-8.7007448847334551e-50
11
-119.99999731779097
21
74.999998435378075
31
5.1152371360001105e-36
0
ELLIPSE
5
125
100
AcDbEntity
8
0
100
AcDbEllipse
10
-119.99999731779097
20
69.999998435378075
30
-4.4408920985006262e-15
11
-12.5
21
-1.2325951644078309e-30
31
0.0
40
0.40000000000000002
41
4.7123889803846897
42
7.8539816339744828
0
ARC
5
126
100
AcDbEntity
8
0
100
AcDbCircle
10
-119.99999731779099
20
49.999998435378068
30
-4.4408920985006262e-15
40
15.000000000000018
100
AcDbArc
50
0
51
89.999999999999943
0
LINE
5
127
100
AcDbEntity
8
0
100
AcDbLine
10
-104.99999999999999
20
49.999998435378075
30
0
11
-105.00000156462191
21
-49.999997317790985
31
0
0
ARC
5
128
100
AcDbEntity
8
0
100
AcDbCircle
10
-120
20
-50
30
-1.0263416486754031e-47
40
14.999998435378314
100
AcDbArc
50
-89.999989754715131
51
1.024528375501914e-05
0
ELLIPSE
5
129
100
AcDbEntity
8
0
100
AcDbEllipse
10
-119.99999731779097
20
-69.999998435378075
30
0
11
12.5
21
1.2325951644078309e-30
31
0.0
40
0.40000000000000002
41
1.5707963267948966
42
4.7123889803846897
0
LINE
5
130
100
AcDbEntity
8
0
100
AcDbLine
10
-119.99999731779097
20
-74.999998435378075
30
-1.5220346273953704e-63
11
-104.99999999999999
21
-75
31
0
0
ENDSEC
0
SECTION
2
OBJECTS
0
DICTIONARY
5
C
100
AcDbDictionary
3
ACAD_GROUP
350
D
3
ACAD_MLINESTYLE
350
17
0
DICTIONARY
5
D
100
AcDbDictionary
0
DICTIONARY
5
1A
330
C
100
AcDbDictionary
0
DICTIONARY
5
17
100
AcDbDictionary
0
ENDSEC
0
EOF
