0
SECTION
2
HEADER
9
$INSUNITS
70
4
9
$ACADVER
1
AC1014
9
$HANDSEED
5
FFFF
0
ENDSEC
0
SECTION
2
TABLES
0
TABLE
2
VPORT
5
8
100
AcDbSymbolTable
0
ENDTAB
0
TABLE
2
LTYPE
5
5
100
AcDbSymbolTable
0
LTYPE
5
14
100
AcDbSymbolTableRecord
100
AcDbLinetypeTableRecord
2
BYBLOCK
70
0
0
LTYPE
5
15
100
AcDbSymbolTableRecord
100
AcDbLinetypeTableRecord
2
BYLAYER
70
0
0
ENDTAB
0
TABLE
2
LAYER
5
2
100
AcDbSymbolTable
70
2
0
LAYER
5
50
100
AcDbSymbolTableRecord
100
AcDbLayerTableRecord
2
0
70
0
6
CONTINUOUS
0
ENDTAB
0
TABLE
2
STYLE
5
3
100
AcDbSymbolTable
70
1
0
STYLE
5
11
100
AcDbSymbolTableRecord
100
AcDbTextStyleTableRecord
2
STANDARD
70
0
0
ENDTAB
0
TABLE
2
VIEW
5
6
100
AcDbSymbolTable
70
0
0
ENDTAB
0
TABLE
2
UCS
5
7
100
AcDbSymbolTable
70
0
0
ENDTAB
0
TABLE
2
APPID
5
9
100
AcDbSymbolTable
70
2
0
APPID
5
12
100
AcDbSymbolTableRecord
100
AcDbRegAppTableRecord
2
ACAD
70
0
0
ENDTAB
0
TABLE
2
DIMSTYLE
5
A
100
AcDbSymbolTable
70
1
0
ENDTAB
0
TABLE
2
BLOCK_RECORD
5
1
100
AcDbSymbolTable
70
1
0
BLOCK_RECORD
5
1F
100
AcDbSymbolTableRecord
100
AcDbBlockTableRecord
2
*MODEL_SPACE
0
BLOCK_RECORD
5
1B
100
AcDbSymbolTableRecord
100
AcDbBlockTableRecord
2
*PAPER_SPACE
0
ENDTAB
0
ENDSEC
0
SECTION
2
BLOCKS
0
BLOCK
5
20
100
AcDbEntity
100
AcDbBlockBegin
2
*MODEL_SPACE
0
ENDBLK
5
21
100
AcDbEntity
100
AcDbBlockEnd
0
BLOCK
5
1C
100
AcDbEntity
100
AcDbBlockBegin
2
*PAPER_SPACE
0
ENDBLK
5
1D
100
AcDbEntity
100
AcDbBlockEnd
0
ENDSEC
0
SECTION
2
ENTITIES
0
CIRCLE
5
100
100
AcDbEntity
8
0
100
AcDbCircle
10
15.000000223517411
20
4.9303806576313238e-31
30
0
40
5.0000000745058051
0
CIRCLE
5
101
100
AcDbEntity
8
0
100
AcDbCircle
10
-15.000000223517411
20
1.6023737137301802e-30
30
0
40
5.0000000745058051
0
CIRCLE
5
102
100
AcDbEntity
8
0
100
AcDbCircle
10
-31.500000000000256
20
-14.000000208616253
30
5.5511151231257827e-16
40
1.5999999999999996
0
CIRCLE
5
103
100
AcDbEntity
8
0
100
AcDbCircle
10
-31.500000000000249
20
14.000000208616257
30
0
40
1.5999999999999996
0
CIRCLE
5
104
100
AcDbEntity
8
0
100
AcDbCircle
10
43.000000640749917
20
-8.6281661508548166e-31
30
0
40
3.1000000000000045
0
CIRCLE
5
105
100
AcDbEntity
8
0
100
AcDbCircle
10
43.000000640749917
20
-6.3999999999999986
30
0
40
1.2000000000000008
0
CIRCLE
5
106
100
AcDbEntity
8
0
100
AcDbCircle
10
25.539999999999967
20
-5.0000000745058069
30
0
40
2.7499999999999996
0
CIRCLE
5
107
100
AcDbEntity
8
0
100
AcDbCircle
10
25.539999999999967
20
5.0000000745058024
30
0
40
2.7499999999999996
0
CIRCLE
5
108
100
AcDbEntity
8
0
100
AcDbCircle
10
-32.289999999999985
20
-30.670000000000009
30
0
40
1.2499999999999998
0
CIRCLE
5
109
100
AcDbEntity
8
0
100
AcDbCircle
10
-32.289999999999928
20
30.670000000000002
30
0
40
1.2499999999999998
0
CIRCLE
5
110
100
AcDbEntity
8
0
100
AcDbCircle
10
32.289999999999942
20
-30.670000000000115
30
0
40
1.2499999999999998
0
CIRCLE
5
111
100
AcDbEntity
8
0
100
AcDbCircle
10
32.289999999999999
20
30.669999999999895
30
0
40
1.2499999999999998
0
LWPOLYLINE
5
112
100
AcDbEntity
8
0
100
AcDbPolyline
90
4
70
1
43
0.0
10
-6.0000000894069672
20
-13.199999999999019
10
-6.0000000894069672
20
-23.199999999999015
10
5.9999999105930302
20
-23.199999999999015
10
5.9999999105930302
20
-13.199999999999019
0
LWPOLYLINE
5
113
100
AcDbEntity
8
0
100
AcDbPolyline
90
4
70
1
43
0.0
10
-5.9999999105933437
20
23.20000000000103
10
-5.9999999105933437
20
13.200000000001031
10
6.0000000894066545
20
13.200000000001026
10
6.0000000894066545
20
23.200000000001026
0
CIRCLE
5
114
100
AcDbEntity
8
0
100
AcDbCircle
10
-20.321493822790146
20
-31.000000461934
30
0
40
2.7499999999999996
0
CIRCLE
5
115
100
AcDbEntity
8
0
100
AcDbCircle
10
20.321493822799962
20
-31.000000461933837
30
0
40
2.7499999999999996
0
CIRCLE
5
116
100
AcDbEntity
8
0
100
AcDbCircle
10
-20.321493822790231
20
31.000000461935826
30
0
40
2.7499999999999996
0
CIRCLE
5
117
100
AcDbEntity
8
0
100
AcDbCircle
10
20.321493822799873
20
31.000000461935979
30
0
40
2.7499999999999996
0
CIRCLE
5
118
100
AcDbEntity
8
0
100
AcDbCircle
10
-9.000000000008944
20
-27.449999999999051
30
5.5511151231257827e-16
40
1.0999999999999999
0
CIRCLE
5
119
100
AcDbEntity
8
0
100
AcDbCircle
10
8.9999999999910472
20
-27.449999999999051
30
0
40
1.0999999999999999
0
CIRCLE
5
120
100
AcDbEntity
8
0
100
AcDbCircle
10
-8.999999999991374
20
27.450000000000998
30
0
40
1.0999999999999999
0
CIRCLE
5
121
100
AcDbEntity
8
0
100
AcDbCircle
10
9.0000000000086171
20
27.450000000000998
30
-5.5511151231257827e-16
40
1.0999999999999999
0
LWPOLYLINE
5
122
100
AcDbEntity
8
0
100
AcDbPolyline
90
4
70
1
43
0.0
10
29.321493822792863
20
-40.499999999999005
10
-29.321493822792885
20
-40.499999999998984
42
-0.51058039943724542
10
-29.321493822790284
20
40.500000000000853
10
29.321493822789968
20
40.50000000000108
42
-0.5105803994372482
0
ENDSEC
0
SECTION
2
OBJECTS
0
DICTIONARY
5
C
100
AcDbDictionary
3
ACAD_GROUP
350
D
3
ACAD_MLINESTYLE
350
17
0
DICTIONARY
5
D
100
AcDbDictionary
0
DICTIONARY
5
1A
330
C
100
AcDbDictionary
0
DICTIONARY
5
17
100
AcDbDictionary
0
ENDSEC
0
EOF
