0
SECTION
2
HEADER
9
$INSUNITS
70
4
9
$ACADVER
1
AC1014
9
$HANDSEED
5
FFFF
0
ENDSEC
0
SECTION
2
TABLES
0
TABLE
2
VPORT
5
8
100
AcDbSymbolTable
0
ENDTAB
0
TABLE
2
LTYPE
5
5
100
AcDbSymbolTable
0
LTYPE
5
14
100
AcDbSymbolTableRecord
100
AcDbLinetypeTableRecord
2
BYBLOCK
70
0
0
LTYPE
5
15
100
AcDbSymbolTableRecord
100
AcDbLinetypeTableRecord
2
BYLAYER
70
0
0
ENDTAB
0
TABLE
2
LAYER
5
2
100
AcDbSymbolTable
70
2
0
LAYER
5
50
100
AcDbSymbolTableRecord
100
AcDbLayerTableRecord
2
0
70
0
6
CONTINUOUS
0
ENDTAB
0
TABLE
2
STYLE
5
3
100
AcDbSymbolTable
70
1
0
STYLE
5
11
100
AcDbSymbolTableRecord
100
AcDbTextStyleTableRecord
2
STANDARD
70
0
0
ENDTAB
0
TABLE
2
VIEW
5
6
100
AcDbSymbolTable
70
0
0
ENDTAB
0
TABLE
2
UCS
5
7
100
AcDbSymbolTable
70
0
0
ENDTAB
0
TABLE
2
APPID
5
9
100
AcDbSymbolTable
70
2
0
APPID
5
12
100
AcDbSymbolTableRecord
100
AcDbRegAppTableRecord
2
ACAD
70
0
0
ENDTAB
0
TABLE
2
DIMSTYLE
5
A
100
AcDbSymbolTable
70
1
0
ENDTAB
0
TABLE
2
BLOCK_RECORD
5
1
100
AcDbSymbolTable
70
1
0
BLOCK_RECORD
5
1F
100
AcDbSymbolTableRecord
100
AcDbBlockTableRecord
2
*MODEL_SPACE
0
BLOCK_RECORD
5
1B
100
AcDbSymbolTableRecord
100
AcDbBlockTableRecord
2
*PAPER_SPACE
0
ENDTAB
0
ENDSEC
0
SECTION
2
BLOCKS
0
BLOCK
5
20
100
AcDbEntity
100
AcDbBlockBegin
2
*MODEL_SPACE
0
ENDBLK
5
21
100
AcDbEntity
100
AcDbBlockEnd
0
BLOCK
5
1C
100
AcDbEntity
100
AcDbBlockBegin
2
*PAPER_SPACE
0
ENDBLK
5
1D
100
AcDbEntity
100
AcDbBlockEnd
0
ENDSEC
0
SECTION
2
ENTITIES
0
CIRCLE
5
100
100
AcDbEntity
8
0
100
AcDbCircle
10
30.500000454485029
20
-73.386390115031134
30
4.4408920985006262e-15
40
2.7500000000000009
0
CIRCLE
5
101
100
AcDbEntity
8
0
100
AcDbCircle
10
-30.500000454485551
20
-73.386390115030935
30
4.4408920985006262e-15
40
2.7500000000000009
0
CIRCLE
5
102
100
AcDbEntity
8
0
100
AcDbCircle
10
30.500000454485242
20
-38.492490956923163
30
-4.4408920985006262e-15
40
2.7500000000000009
0
CIRCLE
5
103
100
AcDbEntity
8
0
100
AcDbCircle
10
-30.500000454485559
20
-38.492490956922978
30
-2.2204460492503131e-15
40
2.7500000000000009
0
LWPOLYLINE
5
104
100
AcDbEntity
8
0
100
AcDbPolyline
90
10
70
1
43
0.0
10
34.499999999999005
20
-68.38639011503102
10
34.499999999998998
20
-43.492490956931029
42
0.4142135623730937
10
32.499999999998998
20
-41.492490956931036
10
30.139123266283839
20
-41.492490956931036
42
0.12544959629885236
10
29.181693137475673
20
-41.736550312020064
10
6.353808351552555
20
-54.183499891066027
42
0.5937386746034834
10
6.3538083515525567
20
-57.695381180887964
10
29.181693137490395
20
-70.142330759941999
42
0.12544959629885241
10
30.139123266298565
20
-70.38639011503102
10
32.499999999998998
20
-70.38639011503102
42
0.41421356237309637
0
LWPOLYLINE
5
105
100
AcDbEntity
8
0
100
AcDbPolyline
90
4
70
1
43
0.0
10
37.499999999998998
20
-35.492490956931036
10
37.499999999998998
20
-76.386390115031048
10
-37.500000000001002
20
-76.386390115031034
10
-37.500000000001002
20
-35.492490956931043
0
LWPOLYLINE
5
106
100
AcDbEntity
8
0
100
AcDbPolyline
90
6
70
1
43
0.0
10
0.95743012880712186
20
-53.708913859064076
10
21.976119639656567
20
-42.248431601833943
42
0.77706758843504709
10
21.018689510848407
20
-38.492490956922964
10
-21.018689510850443
20
-38.492490956922971
42
0.77706758843504731
10
-21.976119639658613
20
-42.248431601833943
10
-0.95743012880921108
20
-53.708913859064076
42
0.25491087834559156
0
LWPOLYLINE
5
107
100
AcDbEntity
8
0
100
AcDbPolyline
90
6
70
1
43
0.0
10
-21.01868951085056
20
-73.386390115031062
10
21.018689510848404
20
-73.386390115031062
42
0.77706758843504486
10
21.976119639656581
20
-69.630449470120098
10
0.95743012880711187
20
-58.169967212889929
42
0.25491087834559234
10
-0.95743012880921796
20
-58.169967212889944
10
-21.976119639658723
20
-69.630449470120084
42
0.77706758843504775
0
LWPOLYLINE
5
108
100
AcDbEntity
8
0
100
AcDbPolyline
90
10
70
1
43
0.0
10
-32.500000000001002
20
-70.386390115031048
10
-30.139123266300729
20
-70.386390115031048
42
0.12544959629885252
10
-29.181693137492566
20
-70.142330759942013
10
-6.3538083515546244
20
-57.695381180887971
42
0.59373867460348428
10
-6.3538083515546173
20
-54.18349989106602
10
-29.181693137477637
20
-41.736550312020071
42
0.12544959629885283
10
-30.139123266285811
20
-41.492490956931071
10
-32.500000000000995
20
-41.49249095693105
42
0.4142135623730937
10
-34.500000000000995
20
-43.492490956931043
10
-34.500000000001002
20
-68.386390115031062
42
0.41421356237309437
0
ENDSEC
0
SECTION
2
OBJECTS
0
DICTIONARY
5
C
100
AcDbDictionary
3
ACAD_GROUP
350
D
3
ACAD_MLINESTYLE
350
17
0
DICTIONARY
5
D
100
AcDbDictionary
0
DICTIONARY
5
1A
330
C
100
AcDbDictionary
0
DICTIONARY
5
17
100
AcDbDictionary
0
ENDSEC
0
EOF
