0
SECTION
2
HEADER
9
$INSUNITS
70
4
9
$ACADVER
1
AC1014
9
$HANDSEED
5
FFFF
0
ENDSEC
0
SECTION
2
TABLES
0
TABLE
2
VPORT
5
8
100
AcDbSymbolTable
0
ENDTAB
0
TABLE
2
LTYPE
5
5
100
AcDbSymbolTable
0
LTYPE
5
14
100
AcDbSymbolTableRecord
100
AcDbLinetypeTableRecord
2
BYBLOCK
70
0
0
LTYPE
5
15
100
AcDbSymbolTableRecord
100
AcDbLinetypeTableRecord
2
BYLAYER
70
0
0
ENDTAB
0
TABLE
2
LAYER
5
2
100
AcDbSymbolTable
70
2
0
LAYER
5
50
100
AcDbSymbolTableRecord
100
AcDbLayerTableRecord
2
0
70
0
6
CONTINUOUS
0
ENDTAB
0
TABLE
2
STYLE
5
3
100
AcDbSymbolTable
70
1
0
STYLE
5
11
100
AcDbSymbolTableRecord
100
AcDbTextStyleTableRecord
2
STANDARD
70
0
0
ENDTAB
0
TABLE
2
VIEW
5
6
100
AcDbSymbolTable
70
0
0
ENDTAB
0
TABLE
2
UCS
5
7
100
AcDbSymbolTable
70
0
0
ENDTAB
0
TABLE
2
APPID
5
9
100
AcDbSymbolTable
70
2
0
APPID
5
12
100
AcDbSymbolTableRecord
100
AcDbRegAppTableRecord
2
ACAD
70
0
0
ENDTAB
0
TABLE
2
DIMSTYLE
5
A
100
AcDbSymbolTable
70
1
0
ENDTAB
0
TABLE
2
BLOCK_RECORD
5
1
100
AcDbSymbolTable
70
1
0
BLOCK_RECORD
5
1F
100
AcDbSymbolTableRecord
100
AcDbBlockTableRecord
2
*MODEL_SPACE
0
BLOCK_RECORD
5
1B
100
AcDbSymbolTableRecord
100
AcDbBlockTableRecord
2
*PAPER_SPACE
0
ENDTAB
0
ENDSEC
0
SECTION
2
BLOCKS
0
BLOCK
5
20
100
AcDbEntity
100
AcDbBlockBegin
2
*MODEL_SPACE
0
ENDBLK
5
21
100
AcDbEntity
100
AcDbBlockEnd
0
BLOCK
5
1C
100
AcDbEntity
100
AcDbBlockBegin
2
*PAPER_SPACE
0
ENDBLK
5
1D
100
AcDbEntity
100
AcDbBlockEnd
0
ENDSEC
0
SECTION
2
ENTITIES
0
CIRCLE
5
100
100
AcDbEntity
8
0
100
AcDbCircle
10
32.830356093063834
20
-8.5244657828818475
30
0
40
1.25
0
CIRCLE
5
101
100
AcDbEntity
8
0
100
AcDbCircle
10
52.982994034491711
20
-21.486995232010372
30
0
40
1.25
0
CIRCLE
5
102
100
AcDbEntity
8
0
100
AcDbCircle
10
74.736706594589208
20
-35.213301325677108
30
0
40
1.25
0
CIRCLE
5
103
100
AcDbEntity
8
0
100
AcDbCircle
10
-24.321493822800001
20
-5.000000000000032
30
0
40
2.75
0
CIRCLE
5
104
100
AcDbEntity
8
0
100
AcDbCircle
10
-16.321493822800008
20
-5.000000000000032
30
0
40
2.75
0
CIRCLE
5
105
100
AcDbEntity
8
0
100
AcDbCircle
10
16.321493822790128
20
-5.0000000745058024
30
0
40
2.75
0
CIRCLE
5
106
100
AcDbEntity
8
0
100
AcDbCircle
10
24.321493822790124
20
-5.0000000745058069
30
0
40
2.75
0
CIRCLE
5
107
100
AcDbEntity
8
0
100
AcDbCircle
10
39.358377000865666
20
-10.486274332856556
30
0
40
2.75
0
CIRCLE
5
108
100
AcDbEntity
8
0
100
AcDbCircle
10
68.285363945021075
20
-30.000720899153777
30
0
40
2.75
0
CIRCLE
5
109
100
AcDbEntity
8
0
100
AcDbCircle
10
85.000001266598701
20
-33.000000491738319
30
0
40
2.75
0
CIRCLE
5
110
100
AcDbEntity
8
0
100
AcDbCircle
10
100
20
-32.999999999999957
30
0
40
2.75
0
ARC
5
111
100
AcDbEntity
8
0
100
AcDbCircle
10
-6.5000000968575478
20
-10.500000156462193
30
0
40
11.500000000000004
100
AcDbArc
50
180
51
270
0
LINE
5
112
100
AcDbEntity
8
0
100
AcDbLine
10
-6.5000000968575478
20
-22.000000156462196
30
-1.417484439069006e-31
11
6.5000000968575478
21
-22.000000156462196
31
0
0
ARC
5
113
100
AcDbEntity
8
0
100
AcDbCircle
10
6.5000000968575478
20
-10.500000156462193
30
0
40
11.500000000000004
100
AcDbArc
50
-90
51
0
0
ARC
5
114
100
AcDbEntity
8
0
100
AcDbCircle
10
18.500000275671482
20
-10.500000156462193
30
0
40
0.5000000074505806
100
AcDbArc
50
90
51
180
0
LINE
5
115
100
AcDbEntity
8
0
100
AcDbLine
10
18.500000275671482
20
-10.000000149011612
30
-6.1629759138746509e-33
11
29.321493822790128
21
-10.000000000000007
31
0
0
ARC
5
116
100
AcDbEntity
8
0
100
AcDbCircle
10
29.321493822790131
20
-20
30
0
40
9.9999999999999929
100
AcDbArc
50
55.995987620304561
51
90.000000000000014
0
LINE
5
117
100
AcDbEntity
8
0
100
AcDbLine
10
34.91400341246802
20
-11.710015893298664
30
0
11
68.814980820644251
21
-34.579968213402623
31
0
0
ARC
5
118
100
AcDbEntity
8
0
100
AcDbCircle
10
80.000000000000071
20
-17.999999999999964
30
0
40
20
100
AcDbArc
50
235.99598762030448
51
269.99999999999824
0
LINE
5
119
100
AcDbEntity
8
0
100
AcDbLine
10
79.999999999999446
20
-37.999999999999964
30
0
11
100
21
-37.999999999999957
31
0
0
ARC
5
120
100
AcDbEntity
8
0
100
AcDbCircle
10
100
20
-32.999999999999957
30
0
40
4.9999999999999956
100
AcDbArc
50
-90
51
0
0
LINE
5
121
100
AcDbEntity
8
0
100
AcDbLine
10
105
20
-32.999999999999957
30
0
11
104.9999999999997
21
-27.999999999999964
31
0
0
LINE
5
122
100
AcDbEntity
8
0
100
AcDbLine
10
104.9999999999997
20
-27.999999999999964
30
0
11
79.99999999999973
21
-27.999999999999964
31
0
0
ARC
5
123
100
AcDbEntity
8
0
100
AcDbCircle
10
80.000000000000071
20
-17.999999999999964
30
0
40
10
100
AcDbArc
50
235.99598762030448
51
269.99999999999807
0
LINE
5
124
100
AcDbEntity
8
0
100
AcDbLine
10
74.407490410322168
20
-26.28998410670129
30
0
11
40.506513002145908
21
-3.4200317865973329
31
0
0
ARC
5
125
100
AcDbEntity
8
0
100
AcDbCircle
10
29.321493822790131
20
-20
30
0
40
19.999999999999986
100
AcDbArc
50
55.995987620304554
51
90.000000000000014
0
LINE
5
126
100
AcDbEntity
8
0
100
AcDbLine
10
29.321493822790124
20
-1.3322676295501878e-14
30
6.5396443666802128e-30
11
8.0000001192092896
21
1.9721522630525295e-30
31
0
0
LINE
5
127
100
AcDbEntity
8
0
100
AcDbLine
10
8.0000001192092896
20
1.9721522630525295e-30
30
0
11
8.0000001192092896
21
-10.500000156462193
31
2.4651903288156619e-31
0
ARC
5
128
100
AcDbEntity
8
0
100
AcDbCircle
10
6.5000000968575478
20
-10.500000156462193
30
0
40
1.5000000223517418
100
AcDbArc
50
-90
51
0
0
LINE
5
129
100
AcDbEntity
8
0
100
AcDbLine
10
6.5000000968575478
20
-12.000000178813934
30
0
11
-6.5000000968575478
21
-12.000000178813934
31
0
0
ARC
5
130
100
AcDbEntity
8
0
100
AcDbCircle
10
-6.5000000968575478
20
-10.500000156462193
30
0
40
1.5000000223517418
100
AcDbArc
50
180
51
270
0
LINE
5
131
100
AcDbEntity
8
0
100
AcDbLine
10
-8.0000001192092896
20
-10.500000156462193
30
0
11
-8.0000001192092896
21
0
31
0
0
LINE
5
132
100
AcDbEntity
8
0
100
AcDbLine
10
-8.0000001192092896
20
0
30
0
11
-29.321493822800004
21
-6.3241079040210341e-14
31
0
0
LINE
5
133
100
AcDbEntity
8
0
100
AcDbLine
10
-29.321493822800004
20
-6.3241079040210341e-14
30
0
11
-29.321493822800004
21
-5.0000000000000311
31
0
0
ARC
5
134
100
AcDbEntity
8
0
100
AcDbCircle
10
-24.321493822800001
20
-5.000000000000032
30
0
40
5.0000000000000044
100
AcDbArc
50
180
51
269.99999999999994
0
LINE
5
135
100
AcDbEntity
8
0
100
AcDbLine
10
-24.321493822800004
20
-10.000000000000032
30
0
11
-18.500000275671486
21
-10.000000149011612
31
0
0
ARC
5
136
100
AcDbEntity
8
0
100
AcDbCircle
10
-18.500000275671482
20
-10.500000156462193
30
0
40
0.50000017881393077
100
AcDbArc
50
0
51
90
0
ENDSEC
0
SECTION
2
OBJECTS
0
DICTIONARY
5
C
100
AcDbDictionary
3
ACAD_GROUP
350
D
3
ACAD_MLINESTYLE
350
17
0
DICTIONARY
5
D
100
AcDbDictionary
0
DICTIONARY
5
1A
330
C
100
AcDbDictionary
0
DICTIONARY
5
17
100
AcDbDictionary
0
ENDSEC
0
EOF
