0
SECTION
2
HEADER
9
$INSUNITS
70
4
9
$ACADVER
1
AC1014
9
$HANDSEED
5
FFFF
0
ENDSEC
0
SECTION
2
TABLES
0
TABLE
2
VPORT
5
8
100
AcDbSymbolTable
0
ENDTAB
0
TABLE
2
LTYPE
5
5
100
AcDbSymbolTable
0
LTYPE
5
14
100
AcDbSymbolTableRecord
100
AcDbLinetypeTableRecord
2
BYBLOCK
70
0
0
LTYPE
5
15
100
AcDbSymbolTableRecord
100
AcDbLinetypeTableRecord
2
BYLAYER
70
0
0
ENDTAB
0
TABLE
2
LAYER
5
2
100
AcDbSymbolTable
70
2
0
LAYER
5
50
100
AcDbSymbolTableRecord
100
AcDbLayerTableRecord
2
0
70
0
6
CONTINUOUS
0
ENDTAB
0
TABLE
2
STYLE
5
3
100
AcDbSymbolTable
70
1
0
STYLE
5
11
100
AcDbSymbolTableRecord
100
AcDbTextStyleTableRecord
2
STANDARD
70
0
0
ENDTAB
0
TABLE
2
VIEW
5
6
100
AcDbSymbolTable
70
0
0
ENDTAB
0
TABLE
2
UCS
5
7
100
AcDbSymbolTable
70
0
0
ENDTAB
0
TABLE
2
APPID
5
9
100
AcDbSymbolTable
70
2
0
APPID
5
12
100
AcDbSymbolTableRecord
100
AcDbRegAppTableRecord
2
ACAD
70
0
0
ENDTAB
0
TABLE
2
DIMSTYLE
5
A
100
AcDbSymbolTable
70
1
0
ENDTAB
0
TABLE
2
BLOCK_RECORD
5
1
100
AcDbSymbolTable
70
1
0
BLOCK_RECORD
5
1F
100
AcDbSymbolTableRecord
100
AcDbBlockTableRecord
2
*MODEL_SPACE
0
BLOCK_RECORD
5
1B
100
AcDbSymbolTableRecord
100
AcDbBlockTableRecord
2
*PAPER_SPACE
0
ENDTAB
0
ENDSEC
0
SECTION
2
BLOCKS
0
BLOCK
5
20
100
AcDbEntity
100
AcDbBlockBegin
2
*MODEL_SPACE
0
ENDBLK
5
21
100
AcDbEntity
100
AcDbBlockEnd
0
BLOCK
5
1C
100
AcDbEntity
100
AcDbBlockBegin
2
*PAPER_SPACE
0
ENDBLK
5
1D
100
AcDbEntity
100
AcDbBlockEnd
0
ENDSEC
0
SECTION
2
ENTITIES
0
CIRCLE
5
100
100
AcDbEntity
8
0
100
AcDbCircle
10
24.321493822799852
20
-5.0000000000000187
30
0
40
2.75
0
CIRCLE
5
101
100
AcDbEntity
8
0
100
AcDbCircle
10
16.321493822799859
20
-5.0000000000000187
30
0
40
2.75
0
CIRCLE
5
102
100
AcDbEntity
8
0
100
AcDbCircle
10
-16.32149382279027
20
-5.0000000745057926
30
0
40
2.75
0
CIRCLE
5
103
100
AcDbEntity
8
0
100
AcDbCircle
10
-24.321493822790281
20
-5.0000000745057935
30
0
40
2.75
0
CIRCLE
5
104
100
AcDbEntity
8
0
100
AcDbCircle
10
-39.358377000865978
20
-10.486274332856546
30
0
40
2.75
0
CIRCLE
5
105
100
AcDbEntity
8
0
100
AcDbCircle
10
-68.285363945021388
20
-30.000720899153769
30
0
40
2.75
0
CIRCLE
5
106
100
AcDbEntity
8
0
100
AcDbCircle
10
-85.000001266598858
20
-33.000000491738312
30
0
40
2.75
0
CIRCLE
5
107
100
AcDbEntity
8
0
100
AcDbCircle
10
-100.00000000000016
20
-32.99999999999995
30
0
40
2.75
0
ARC
5
108
100
AcDbEntity
8
0
100
AcDbCircle
10
6.5000000968573968
20
-10.500000156462184
30
0
40
11.500000000000004
100
AcDbArc
50
-90
51
0
0
ARC
5
109
100
AcDbEntity
8
0
100
AcDbCircle
10
18.500000275671333
20
-10.500000156462178
30
0
40
0.50000017881392633
100
AcDbArc
50
90
51
180
0
LINE
5
110
100
AcDbEntity
8
0
100
AcDbLine
10
18.500000275671333
20
-10.000000149011603
30
0
11
24.321493822799852
21
-10.000000000000021
31
0
0
ARC
5
111
100
AcDbEntity
8
0
100
AcDbCircle
10
24.321493822799852
20
-5.0000000000000187
30
0
40
5.0000000000000036
100
AcDbArc
50
270
51
360
0
LINE
5
112
100
AcDbEntity
8
0
100
AcDbLine
10
29.321493822799852
20
-5.0000000000000195
30
0
11
29.321493822799852
21
-5.2180482157382357e-14
31
0
0
LINE
5
113
100
AcDbEntity
8
0
100
AcDbLine
10
29.321493822799852
20
-5.2180482157382357e-14
30
0
11
8.0000001192091386
21
1.1324274851176655e-14
31
0
0
LINE
5
114
100
AcDbEntity
8
0
100
AcDbLine
10
8.0000001192091386
20
1.1324274851176655e-14
30
0
11
8.0000001192091386
21
-10.500000156462184
31
0
0
ARC
5
115
100
AcDbEntity
8
0
100
AcDbCircle
10
6.5000000968573968
20
-10.500000156462184
30
0
40
1.5000000223517418
100
AcDbArc
50
-90
51
0
0
LINE
5
116
100
AcDbEntity
8
0
100
AcDbLine
10
6.5000000968573968
20
-12.000000178813925
30
0
11
-6.5000000968576979
21
-12.000000178813925
31
0
0
ARC
5
117
100
AcDbEntity
8
0
100
AcDbCircle
10
-6.5000000968576996
20
-10.500000156462185
30
0
40
1.5000000223517407
100
AcDbArc
50
180
51
270.00000000000006
0
LINE
5
118
100
AcDbEntity
8
0
100
AcDbLine
10
-8.0000001192094405
20
-10.500000156462184
30
0
11
-8.0000001192094388
21
1.1102230246251565e-14
31
4.9303806576313238e-31
0
LINE
5
119
100
AcDbEntity
8
0
100
AcDbLine
10
-8.0000001192094388
20
1.1102230246251565e-14
30
4.9303806576313238e-31
11
-29.321493822790273
21
-8.8817841970006686e-16
31
0
0
ARC
5
120
100
AcDbEntity
8
0
100
AcDbCircle
10
-29.321493822790288
20
-19.999999999999993
30
0
40
19.999999999999993
100
AcDbArc
50
89.999999999999972
51
124.00401237969547
0
LINE
5
121
100
AcDbEntity
8
0
100
AcDbLine
10
-40.506513002146065
20
-3.420031786597324
30
0
11
-74.40749041032231
21
-26.289984106701283
31
0
0
ARC
5
122
100
AcDbEntity
8
0
100
AcDbCircle
10
-80.000000000000213
20
-18.000000000000011
30
0
40
9.9999999999999449
100
AcDbArc
50
270.00000000000188
51
304.00401237969567
0
LINE
5
123
100
AcDbEntity
8
0
100
AcDbLine
10
-79.999999999999886
20
-27.999999999999954
30
0
11
-104.99999999999986
21
-27.999999999999954
31
0
0
LINE
5
124
100
AcDbEntity
8
0
100
AcDbLine
10
-104.99999999999986
20
-27.999999999999954
30
0
11
-105.00000000000003
21
-32.99999999999995
31
0
0
ARC
5
125
100
AcDbEntity
8
0
100
AcDbCircle
10
-100.00000000000016
20
-32.99999999999995
30
0
40
4.9999999999998757
100
AcDbArc
50
180
51
270
0
LINE
5
126
100
AcDbEntity
8
0
100
AcDbLine
10
-100.00000000000016
20
-37.999999999999943
30
0
11
-79.999999999999602
21
-37.999999999999957
31
0
0
ARC
5
127
100
AcDbEntity
8
0
100
AcDbCircle
10
-80.000000000000213
20
-18.000000000000011
30
0
40
19.999999999999943
100
AcDbArc
50
270.00000000000171
51
304.00401237969567
0
LINE
5
128
100
AcDbEntity
8
0
100
AcDbLine
10
-68.814980820644408
20
-34.579968213402609
30
0
11
-34.914003412468169
21
-11.710015893298657
31
0
0
ARC
5
129
100
AcDbEntity
8
0
100
AcDbCircle
10
-29.321493822790288
20
-19.999999999999993
30
0
40
9.9999999999999964
100
AcDbArc
50
90
51
124.00401237969541
0
LINE
5
130
100
AcDbEntity
8
0
100
AcDbLine
10
-29.321493822790288
20
-9.9999999999999964
30
0
11
-18.500000275671631
21
-10.000000149011603
31
0
0
ARC
5
131
100
AcDbEntity
8
0
100
AcDbCircle
10
-18.500000275671628
20
-10.500000156462184
30
7.6975623650655235e-48
40
0.50000000745057838
100
AcDbArc
50
0
51
90.000000000000398
0
ARC
5
132
100
AcDbEntity
8
0
100
AcDbCircle
10
-6.5000000968576996
20
-10.500000156462185
30
0
40
11.500000000000004
100
AcDbArc
50
180
51
270
0
LINE
5
133
100
AcDbEntity
8
0
100
AcDbLine
10
-6.5000000968576979
20
-22.000000156462185
30
0
11
6.5000000968573959
21
-22.000000156462185
31
0
0
ENDSEC
0
SECTION
2
OBJECTS
0
DICTIONARY
5
C
100
AcDbDictionary
3
ACAD_GROUP
350
D
3
ACAD_MLINESTYLE
350
17
0
DICTIONARY
5
D
100
AcDbDictionary
0
DICTIONARY
5
1A
330
C
100
AcDbDictionary
0
DICTIONARY
5
17
100
AcDbDictionary
0
ENDSEC
0
EOF
