  0
SECTION
  2
HEADER
  9
$ACADVER
  1
AC1027
  9
$ACADMAINTVER
 70
   125
  9
$DWGCODEPAGE
  3
ANSI_932
  9
$LASTSAVEDBY
  1
takumi
  9
$REQUIREDVERSIONS
160
                 0
  9
$INSBASE
 10
0.0
 20
0.0
 30
0.0
  9
$EXTMIN
 10
-29.6610062557032
 20
-92.448888900626
 30
-0.0000000000000044
  9
$EXTMAX
 10
150.0
 20
300.0
 30
0.0000000000000044
  9
$LIMMIN
 10
0.0
 20
0.0
  9
$LIMMAX
 10
12.0
 20
9.0
  9
$ORTHOMODE
 70
     0
  9
$REGENMODE
 70
     1
  9
$FILLMODE
 70
     1
  9
$QTEXTMODE
 70
     0
  9
$MIRRTEXT
 70
     0
  9
$LTSCALE
 40
1.0
  9
$ATTMODE
 70
     1
  9
$TEXTSIZE
 40
0.2
  9
$TRACEWID
 40
0.05
  9
$TEXTSTYLE
  7
STANDARD
  9
$CLAYER
  8
AlpacaFig
  9
$CELTYPE
  6
Continuous
  9
$CECOLOR
 62
   256
  9
$CELTSCALE
 40
1.0
  9
$DISPSILH
 70
     0
  9
$DIMSCALE
 40
1.0
  9
$DIMASZ
 40
0.18
  9
$DIMEXO
 40
0.0625
  9
$DIMDLI
 40
0.38
  9
$DIMRND
 40
0.0
  9
$DIMDLE
 40
0.0
  9
$DIMEXE
 40
0.18
  9
$DIMTP
 40
0.0
  9
$DIMTM
 40
0.0
  9
$DIMTXT
 40
0.18
  9
$DIMCEN
 40
0.09
  9
$DIMTSZ
 40
0.0
  9
$DIMTOL
 70
     0
  9
$DIMLIM
 70
     0
  9
$DIMTIH
 70
     1
  9
$DIMTOH
 70
     1
  9
$DIMSE1
 70
     0
  9
$DIMSE2
 70
     0
  9
$DIMTAD
 70
     0
  9
$DIMZIN
 70
     0
  9
$DIMBLK
  1

  9
$DIMASO
 70
     1
  9
$DIMSHO
 70
     1
  9
$DIMPOST
  1

  9
$DIMAPOST
  1

  9
$DIMALT
 70
     0
  9
$DIMALTD
 70
     2
  9
$DIMALTF
 40
25.4
  9
$DIMLFAC
 40
1.0
  9
$DIMTOFL
 70
     0
  9
$DIMTVP
 40
0.0
  9
$DIMTIX
 70
     0
  9
$DIMSOXD
 70
     0
  9
$DIMSAH
 70
     0
  9
$DIMBLK1
  1

  9
$DIMBLK2
  1

  9
$DIMSTYLE
  2
Standard
  9
$DIMCLRD
 70
     0
  9
$DIMCLRE
 70
     0
  9
$DIMCLRT
 70
     0
  9
$DIMTFAC
 40
1.0
  9
$DIMGAP
 40
0.09
  9
$DIMJUST
 70
     0
  9
$DIMSD1
 70
     0
  9
$DIMSD2
 70
     0
  9
$DIMTOLJ
 70
     1
  9
$DIMTZIN
 70
     0
  9
$DIMALTZ
 70
     0
  9
$DIMALTTZ
 70
     0
  9
$DIMUPT
 70
     0
  9
$DIMDEC
 70
     4
  9
$DIMTDEC
 70
     4
  9
$DIMALTU
 70
     2
  9
$DIMALTTD
 70
     2
  9
$DIMTXSTY
  7
STANDARD
  9
$DIMAUNIT
 70
     0
  9
$DIMADEC
 70
     0
  9
$DIMALTRND
 40
0.0
  9
$DIMAZIN
 70
     0
  9
$DIMDSEP
 70
    46
  9
$DIMATFIT
 70
     3
  9
$DIMFRAC
 70
     0
  9
$DIMLDRBLK
  1

  9
$DIMLUNIT
 70
     2
  9
$DIMLWD
 70
    -2
  9
$DIMLWE
 70
    -2
  9
$DIMTMOVE
 70
     0
  9
$DIMFXL
 40
1.0
  9
$DIMFXLON
 70
     0
  9
$DIMJOGANG
 40
0.7853981633974483
  9
$DIMTFILL
 70
     0
  9
$DIMTFILLCLR
 70
     0
  9
$DIMARCSYM
 70
     0
  9
$DIMLTYPE
  6

  9
$DIMLTEX1
  6

  9
$DIMLTEX2
  6

  9
$DIMTXTDIRECTION
 70
     0
  9
$LUNITS
 70
     2
  9
$LUPREC
 70
     4
  9
$SKETCHINC
 40
0.1
  9
$FILLETRAD
 40
0.0
  9
$AUNITS
 70
     0
  9
$AUPREC
 70
     0
  9
$MENU
  1
.
  9
$ELEVATION
 40
0.0
  9
$PELEVATION
 40
0.0
  9
$THICKNESS
 40
0.0
  9
$LIMCHECK
 70
     0
  9
$CHAMFERA
 40
0.0
  9
$CHAMFERB
 40
0.0
  9
$CHAMFERC
 40
0.0
  9
$CHAMFERD
 40
0.0
  9
$SKPOLY
 70
     0
  9
$TDCREATE
 40
2458038.745358797
  9
$TDUCREATE
 40
2458038.370358796
  9
$TDUPDATE
 40
2458046.544224537
  9
$TDUUPDATE
 40
2458046.169224537
  9
$TDINDWG
 40
0.1634490741
  9
$TDUSRTIMER
 40
0.1634490741
  9
$USRTIMER
 70
     1
  9
$ANGBASE
 50
0.0
  9
$ANGDIR
 70
     0
  9
$PDMODE
 70
     0
  9
$PDSIZE
 40
0.0
  9
$PLINEWID
 40
0.0
  9
$SPLFRAME
 70
     0
  9
$SPLINETYPE
 70
     6
  9
$SPLINESEGS
 70
     8
  9
$HANDSEED
  5
101049C
  9
$SURFTAB1
 70
     6
  9
$SURFTAB2
 70
     6
  9
$SURFTYPE
 70
     6
  9
$SURFU
 70
     6
  9
$SURFV
 70
     6
  9
$UCSBASE
  2

  9
$UCSNAME
  2

  9
$UCSORG
 10
0.0
 20
0.0
 30
0.0
  9
$UCSXDIR
 10
1.0
 20
0.0
 30
0.0
  9
$UCSYDIR
 10
0.0
 20
1.0
 30
0.0
  9
$UCSORTHOREF
  2

  9
$UCSORTHOVIEW
 70
     0
  9
$UCSORGTOP
 10
0.0
 20
0.0
 30
0.0
  9
$UCSORGBOTTOM
 10
0.0
 20
0.0
 30
0.0
  9
$UCSORGLEFT
 10
0.0
 20
0.0
 30
0.0
  9
$UCSORGRIGHT
 10
0.0
 20
0.0
 30
0.0
  9
$UCSORGFRONT
 10
0.0
 20
0.0
 30
0.0
  9
$UCSORGBACK
 10
0.0
 20
0.0
 30
0.0
  9
$PUCSBASE
  2

  9
$PUCSNAME
  2

  9
$PUCSORG
 10
0.0
 20
0.0
 30
0.0
  9
$PUCSXDIR
 10
1.0
 20
0.0
 30
0.0
  9
$PUCSYDIR
 10
0.0
 20
1.0
 30
0.0
  9
$PUCSORTHOREF
  2

  9
$PUCSORTHOVIEW
 70
     0
  9
$PUCSORGTOP
 10
0.0
 20
0.0
 30
0.0
  9
$PUCSORGBOTTOM
 10
0.0
 20
0.0
 30
0.0
  9
$PUCSORGLEFT
 10
0.0
 20
0.0
 30
0.0
  9
$PUCSORGRIGHT
 10
0.0
 20
0.0
 30
0.0
  9
$PUCSORGFRONT
 10
0.0
 20
0.0
 30
0.0
  9
$PUCSORGBACK
 10
0.0
 20
0.0
 30
0.0
  9
$USERI1
 70
     0
  9
$USERI2
 70
     0
  9
$USERI3
 70
     0
  9
$USERI4
 70
     0
  9
$USERI5
 70
     0
  9
$USERR1
 40
0.0
  9
$USERR2
 40
0.0
  9
$USERR3
 40
0.0
  9
$USERR4
 40
0.0
  9
$USERR5
 40
0.0
  9
$WORLDVIEW
 70
     1
  9
$SHADEDGE
 70
     3
  9
$SHADEDIF
 70
    70
  9
$TILEMODE
 70
     1
  9
$MAXACTVP
 70
    64
  9
$PINSBASE
 10
0.0
 20
0.0
 30
0.0
  9
$PLIMCHECK
 70
     0
  9
$PEXTMIN
 10
1.000000000000000E+20
 20
1.000000000000000E+20
 30
1.000000000000000E+20
  9
$PEXTMAX
 10
-1.000000000000000E+20
 20
-1.000000000000000E+20
 30
-1.000000000000000E+20
  9
$PLIMMIN
 10
0.0
 20
0.0
  9
$PLIMMAX
 10
12.0
 20
9.0
  9
$UNITMODE
 70
     0
  9
$VISRETAIN
 70
     1
  9
$PLINEGEN
 70
     0
  9
$PSLTSCALE
 70
     1
  9
$TREEDEPTH
 70
  3020
  9
$CMLSTYLE
  2
Standard
  9
$CMLJUST
 70
     0
  9
$CMLSCALE
 40
1.0
  9
$PROXYGRAPHICS
 70
     1
  9
$MEASUREMENT
 70
     0
  9
$CELWEIGHT
370
    -1
  9
$ENDCAPS
280
     0
  9
$JOINSTYLE
280
     0
  9
$LWDISPLAY
290
     0
  9
$INSUNITS
 70
     4
  9
$HYPERLINKBASE
  1

  9
$STYLESHEET
  1

  9
$XEDIT
290
     1
  9
$CEPSNTYPE
380
     0
  9
$PSTYLEMODE
290
     1
  9
$FINGERPRINTGUID
  2
{6CA534D1-12C1-FD42-979F-16EF82AA31C6}
  9
$VERSIONGUID
  2
{6EEDAFA4-BFCA-114C-A551-3C0C44DDD242}
  9
$EXTNAMES
290
     1
  9
$PSVPSCALE
 40
0.0
  9
$OLESTARTUP
290
     0
  9
$SORTENTS
280
   127
  9
$INDEXCTL
280
     0
  9
$HIDETEXT
280
     0
  9
$XCLIPFRAME
280
     2
  9
$HALOGAP
280
     0
  9
$OBSCOLOR
 70
   257
  9
$OBSLTYPE
280
     0
  9
$INTERSECTIONDISPLAY
280
     0
  9
$INTERSECTIONCOLOR
 70
   257
  9
$DIMASSOC
280
     1
  9
$PROJECTNAME
  1

  9
$CAMERADISPLAY
290
     0
  9
$LENSLENGTH
 40
50.0
  9
$CAMERAHEIGHT
 40
0.0
  9
$STEPSPERSEC
 40
2.0
  9
$STEPSIZE
 40
6.0
  9
$3DDWFPREC
 40
2.0
  9
$PSOLWIDTH
 40
0.25
  9
$PSOLHEIGHT
 40
4.0
  9
$LOFTANG1
 40
1.570796326794896
  9
$LOFTANG2
 40
1.570796326794896
  9
$LOFTMAG1
 40
0.0
  9
$LOFTMAG2
 40
0.0
  9
$LOFTPARAM
 70
     7
  9
$LOFTNORMALS
280
     1
  9
$LATITUDE
 40
37.795
  9
$LONGITUDE
 40
-122.394
  9
$NORTHDIRECTION
 40
0.0
  9
$TIMEZONE
 70
 -8000
  9
$LIGHTGLYPHDISPLAY
280
     1
  9
$TILEMODELIGHTSYNCH
280
     1
  9
$CMATERIAL
347
1010005
  9
$SOLIDHIST
280
     0
  9
$SHOWHIST
280
     1
  9
$DWFFRAME
280
     2
  9
$DGNFRAME
280
     0
  9
$REALWORLDSCALE
290
     1
  9
$INTERFERECOLOR
 62
     1
  9
$INTERFEREOBJVS
345
1010027
  9
$INTERFEREVPVS
346
1010024
  9
$CSHADOW
280
     0
  9
$SHADOWPLANELOCATION
 40
0.0
  0
ENDSEC
  0
SECTION
  2
CLASSES
  0
CLASS
  1
ACDBDICTIONARYWDFLT
  2
AcDbDictionaryWithDefault
  3
ObjectDBX Classes
 90
        0
 91
        1
280
     0
281
     0
  0
CLASS
  1
MATERIAL
  2
AcDbMaterial
  3
ObjectDBX Classes
 90
     1153
 91
        3
280
     0
281
     0
  0
CLASS
  1
VISUALSTYLE
  2
AcDbVisualStyle
  3
ObjectDBX Classes
 90
     4095
 91
       24
280
     0
281
     0
  0
CLASS
  1
TABLESTYLE
  2
AcDbTableStyle
  3
ObjectDBX Classes
 90
     4095
 91
        1
280
     0
281
     0
  0
CLASS
  1
SCALE
  2
AcDbScale
  3
ObjectDBX Classes
 90
     1153
 91
       17
280
     0
281
     0
  0
CLASS
  1
MLEADERSTYLE
  2
AcDbMLeaderStyle
  3
ACDB_MLEADERSTYLE_CLASS
 90
     4095
 91
        1
280
     0
281
     0
  0
CLASS
  1
ACDBSECTIONVIEWSTYLE
  2
AcDbSectionViewStyle
  3
ObjectDBX Classes
 90
     1025
 91
        1
280
     0
281
     0
  0
CLASS
  1
ACDBDETAILVIEWSTYLE
  2
AcDbDetailViewStyle
  3
ObjectDBX Classes
 90
     1025
 91
        1
280
     0
281
     0
  0
CLASS
  1
DICTIONARYVAR
  2
AcDbDictionaryVar
  3
ObjectDBX Classes
 90
        0
 91
        9
280
     0
281
     0
  0
CLASS
  1
CELLSTYLEMAP
  2
AcDbCellStyleMap
  3
ObjectDBX Classes
 90
     1152
 91
        3
280
     0
281
     0
  0
CLASS
  1
SORTENTSTABLE
  2
AcDbSortentsTable
  3
ObjectDBX Classes
 90
        0
 91
        1
280
     0
281
     0
  0
ENDSEC
  0
SECTION
  2
TABLES
  0
TABLE
  2
VPORT
  5
8
330
0
100
AcDbSymbolTable
 70
     1
1001
ACAD
1000
DbSaveVer
1071
       30
  0
VPORT
  5
1010059
330
8
100
AcDbSymbolTableRecord
100
AcDbViewportTableRecord
  2
*Active
 70
     0
 10
0.0
 20
0.0
 11
1.0
 21
1.0
 12
27.46151458799257
 22
16.49067716562433
 13
0.0
 23
0.0
 14
1.0
 24
1.0
 15
0.0
 25
0.0
 16
0.0
 26
0.0
 36
1.0
 17
0.0
 27
0.0
 37
0.0
 40
73.47282404877955
 41
1.377461706783369
 42
50.0
 43
0.0
 44
0.0
 50
0.0
 51
0.0
 71
     0
 72
  1000
 73
     1
 74
     3
 75
     0
 76
     0
 77
     0
 78
     0
281
     0
 65
     1
110
0.0
120
0.0
130
0.0
111
1.0
121
0.0
131
0.0
112
0.0
122
1.0
132
0.0
 79
     0
146
0.0
348
1010023
 60
     3
 61
     5
292
     1
282
     1
141
0.0
142
0.0
 63
   250
421
  3355443
1001
ACAD_NAV_VCDISPLAY
1070
     1
  0
ENDTAB
  0
TABLE
  2
LTYPE
  5
5
330
0
100
AcDbSymbolTable
 70
     2
  0
LTYPE
  5
14
330
5
100
AcDbSymbolTableRecord
100
AcDbLinetypeTableRecord
  2
BYBLOCK
 70
     0
  3

 72
    65
 73
     0
 40
0.0
  0
LTYPE
  5
15
330
5
100
AcDbSymbolTableRecord
100
AcDbLinetypeTableRecord
  2
BYLAYER
 70
     0
  3

 72
    65
 73
     0
 40
0.0
  0
LTYPE
  5
1010001
330
5
100
AcDbSymbolTableRecord
100
AcDbLinetypeTableRecord
  2
Continuous
 70
     0
  3
Solid line
 72
    65
 73
     0
 40
0.0
  0
ENDTAB
  0
TABLE
  2
LAYER
  5
2
102
{ACAD_XDICTIONARY
360
1010060
102
}
330
0
100
AcDbSymbolTable
 70
     9
  0
LAYER
  5
50
102
{ACAD_XDICTIONARY
360
101005B
102
}
330
2
100
AcDbSymbolTableRecord
100
AcDbLayerTableRecord
  2
0
 70
     0
 62
    -7
  6
Continuous
370
    -3
390
1010003
347
1010015
348
0
  0
LAYER
  5
101017B
330
2
100
AcDbSymbolTableRecord
100
AcDbLayerTableRecord
  2
Board
 70
     0
 62
    -1
  6
Continuous
370
    -3
390
1010003
347
1010015
348
0
1001
AcAecLayerStandard
1000

1000

1001
AcCmTransparency
1071
        0
  0
LAYER
  5
101021B
330
2
100
AcDbSymbolTableRecord
100
AcDbLayerTableRecord
  2
CAM_LINE_1.5d
 70
     0
 62
    -2
  6
Continuous
370
    -3
390
1010003
347
1010015
348
0
1001
AcAecLayerStandard
1000

1000

1001
AcCmTransparency
1071
        0
  0
LAYER
  5
101021C
330
2
100
AcDbSymbolTableRecord
100
AcDbLayerTableRecord
  2
OUTLINE
 70
     0
 62
    -3
  6
Continuous
370
    -3
390
1010003
347
1010015
348
0
1001
AcAecLayerStandard
1000

1000

1001
AcCmTransparency
1071
        0
  0
LAYER
  5
1010284
330
2
100
AcDbSymbolTableRecord
100
AcDbLayerTableRecord
  2
AlpacaFig
 70
     0
 62
     1
  6
Continuous
370
    -3
390
1010003
347
1010015
348
0
1001
AcAecLayerStandard
1000

1000

1001
AcCmTransparency
1071
        0
  0
LAYER
  5
1010401
330
2
100
AcDbSymbolTableRecord
100
AcDbLayerTableRecord
  2
Layer1
 70
     0
 62
    -2
  6
Continuous
370
    -3
390
1010003
347
1010015
348
0
1001
AcAecLayerStandard
1000

1000

1001
AcCmTransparency
1071
        0
  0
LAYER
  5
101047A
330
2
100
AcDbSymbolTableRecord
100
AcDbLayerTableRecord
  2
aa
 70
     0
 62
    -7
  6
Continuous
370
    -3
390
1010003
347
1010015
348
0
1001
AcAecLayerStandard
1000

1000

1001
AcCmTransparency
1071
        0
  0
ENDTAB
  0
TABLE
  2
STYLE
  5
3
330
0
100
AcDbSymbolTable
 70
     1
  0
STYLE
  5
11
330
3
100
AcDbSymbolTableRecord
100
AcDbTextStyleTableRecord
  2
STANDARD
 70
     0
 40
0.0
 41
1.0
 50
0.0
 71
     0
 42
0.2
  3

  4

  0
ENDTAB
  0
TABLE
  2
VIEW
  5
6
330
0
100
AcDbSymbolTable
 70
     2
  0
ENDTAB
  0
TABLE
  2
UCS
  5
7
330
0
100
AcDbSymbolTable
 70
     0
  0
ENDTAB
  0
TABLE
  2
APPID
  5
9
330
0
100
AcDbSymbolTable
 70
     8
  0
APPID
  5
12
330
9
100
AcDbSymbolTableRecord
100
AcDbRegAppTableRecord
  2
ACAD
 70
     0
  0
APPID
  5
1010058
330
9
100
AcDbSymbolTableRecord
100
AcDbRegAppTableRecord
  2
ACAD_NAV_VCDISPLAY
 70
     0
  0
APPID
  5
101017C
330
9
100
AcDbSymbolTableRecord
100
AcDbRegAppTableRecord
  2
AcAecLayerStandard
 70
     0
  0
APPID
  5
101017D
330
9
100
AcDbSymbolTableRecord
100
AcDbRegAppTableRecord
  2
AcCmTransparency
 70
     0
  0
APPID
  5
101017F
330
9
100
AcDbSymbolTableRecord
100
AcDbRegAppTableRecord
  2
ACAD_EXEMPT_FROM_CAD_STANDARDS
 70
     0
  0
APPID
  5
1010288
330
9
100
AcDbSymbolTableRecord
100
AcDbRegAppTableRecord
  2
AcadAnnotative
 70
     0
  0
APPID
  5
1010289
330
9
100
AcDbSymbolTableRecord
100
AcDbRegAppTableRecord
  2
ACAD_DSTYLE_DIMJAG
 70
     0
  0
APPID
  5
101028A
330
9
100
AcDbSymbolTableRecord
100
AcDbRegAppTableRecord
  2
ACAD_DSTYLE_DIMTALN
 70
     0
  0
ENDTAB
  0
TABLE
  2
DIMSTYLE
  5
A
330
0
100
AcDbSymbolTable
 70
     3
100
AcDbDimStyleTable
 71
     1
340
1010052
  0
DIMSTYLE
105
1010052
330
A
100
AcDbSymbolTableRecord
100
AcDbDimStyleTableRecord
  2
Standard
 70
     0
340
11
  0
DIMSTYLE
105
1010287
330
A
100
AcDbSymbolTableRecord
100
AcDbDimStyleTableRecord
  2
Annotative
 70
     0
 40
0.0
340
11
1001
AcadAnnotative
1000
AnnotativeData
1002
{
1070
     1
1070
     1
1002
}
1001
ACAD_DSTYLE_DIMJAG
1070
   388
1040
1.5
1001
ACAD_DSTYLE_DIMTALN
1070
   392
1070
     0
  0
ENDTAB
  0
TABLE
  2
BLOCK_RECORD
  5
1
330
0
100
AcDbSymbolTable
 70
     3
  0
BLOCK_RECORD
  5
1F
102
{ACAD_XDICTIONARY
360
10101AD
102
}
330
1
100
AcDbSymbolTableRecord
100
AcDbBlockTableRecord
  2
*MODEL_SPACE
340
1010055
 70
     0
280
     1
281
     0
  0
BLOCK_RECORD
  5
1B
330
1
100
AcDbSymbolTableRecord
100
AcDbBlockTableRecord
  2
*PAPER_SPACE
340
1010056
 70
     0
280
     1
281
     0
  0
BLOCK_RECORD
  5
101008D
330
1
100
AcDbSymbolTableRecord
100
AcDbBlockTableRecord
  2
A$C447D10A8
340
0
 70
     4
280
     1
281
     0
  0
ENDTAB
  0
ENDSEC
  0
SECTION
  2
BLOCKS
  0
BLOCK
  5
20
330
1F
100
AcDbEntity
  8
0
100
AcDbBlockBegin
  2
*MODEL_SPACE
 70
     0
 10
0.0
 20
0.0
 30
0.0
  3
*MODEL_SPACE
  1

  0
ENDBLK
  5
21
330
1F
100
AcDbEntity
  8
0
100
AcDbBlockEnd
  0
BLOCK
  5
1C
330
1B
100
AcDbEntity
 67
     1
  8
0
100
AcDbBlockBegin
  2
*PAPER_SPACE
 70
     0
 10
0.0
 20
0.0
 30
0.0
  3
*PAPER_SPACE
  1

  0
ENDBLK
  5
1D
330
1B
100
AcDbEntity
 67
     1
  8
0
100
AcDbBlockEnd
  0
BLOCK
  5
1010097
330
101008D
100
AcDbEntity
  8
0
100
AcDbBlockBegin
  2
A$C447D10A8
 70
     0
 10
0.0
 20
0.0
 30
0.0
  3
A$C447D10A8
  1

  0
CIRCLE
  5
101008E
330
101008D
100
AcDbEntity
  8
0
100
AcDbCircle
 10
68.00000056544447
 20
2.999999978129806
 30
0.0000000000000044
 40
2.75
  0
CIRCLE
  5
101008F
330
101008D
100
AcDbEntity
  8
0
100
AcDbCircle
 10
6.999999656473883
 20
2.999999978130006
 30
0.0000000000000044
 40
2.75
  0
CIRCLE
  5
1010090
330
101008D
100
AcDbEntity
  8
0
100
AcDbCircle
 10
68.00000056544468
 20
37.89389913623779
 30
-0.0000000000000044
 40
2.75
  0
CIRCLE
  5
1010091
330
101008D
100
AcDbEntity
  8
0
100
AcDbCircle
 10
6.999999656473875
 20
37.89389913623797
 30
-0.0000000000000022
 40
2.75
  0
LWPOLYLINE
  5
1010092
330
101008D
100
AcDbEntity
  8
0
100
AcDbPolyline
 90
       10
 70
     1
 43
0.0
 10
72.00000011095844
 20
7.99999997812992
 10
72.00000011095844
 20
32.89389913622991
 42
0.4142135623730937
 10
70.00000011095844
 20
34.89389913622992
 10
67.63912337724327
 20
34.89389913622992
 42
0.1254495962988523
 10
66.6816932484351
 20
34.64983978114088
 10
43.85380846251197
 20
22.20289020209492
 42
0.5937386746034834
 10
43.85380846251198
 20
18.69100891227297
 10
66.68169324844983
 20
6.244059333218943
 42
0.1254495962988524
 10
67.639123377258
 20
5.99999997812992
 10
70.00000011095844
 20
5.99999997812992
 42
0.4142135623730966
  0
LWPOLYLINE
  5
1010093
330
101008D
100
AcDbEntity
  8
0
100
AcDbPolyline
 90
        4
 70
     1
 43
0.0
 10
75.00000011095844
 20
40.8938991362299
 10
75.00000011095844
 20
-0.0000000218701075
 10
0.0000001109584318
 20
-0.0000000218700791
 10
0.0000001109584318
 20
40.89389913622989
  0
LWPOLYLINE
  5
1010094
330
101008D
100
AcDbEntity
  8
0
100
AcDbPolyline
 90
        6
 70
     1
 43
0.0
 10
38.45743023976655
 20
22.67747623409686
 10
59.476119750616
 20
34.137958491327
 42
0.7770675884350472
 10
58.51868962180784
 20
37.89389913623799
 10
16.48131060010898
 20
37.89389913623797
 42
0.7770675884350476
 10
15.52388047130082
 20
34.137958491327
 10
36.54256998215022
 20
22.67747623409686
 42
0.2549108783455916
  0
LWPOLYLINE
  5
1010095
330
101008D
100
AcDbEntity
  8
0
100
AcDbPolyline
 90
        6
 70
     1
 43
0.0
 10
16.48131060010888
 20
2.999999978129877
 10
58.51868962180784
 20
2.999999978129877
 42
0.7770675884350448
 10
59.47611975061601
 20
6.755940623040827
 10
38.45743023976655
 20
18.21642288027101
 42
0.2549108783455924
 10
36.54256998215021
 20
18.216422880271
 10
15.52388047130071
 20
6.755940623040856
 42
0.7770675884350478
  0
LWPOLYLINE
  5
1010096
330
101008D
100
AcDbEntity
  8
0
100
AcDbPolyline
 90
       10
 70
     1
 43
0.0
 10
5.000000110958431
 20
5.999999978129892
 10
7.360876844658701
 20
5.999999978129892
 42
0.1254495962988525
 10
8.318306973466864
 20
6.244059333218927
 10
31.14619175940481
 20
18.69100891227297
 42
0.5937386746034842
 10
31.14619175940482
 20
22.20289020209492
 10
8.318306973481792
 20
34.64983978114087
 42
0.1254495962988529
 10
7.360876844673621
 20
34.89389913622987
 10
5.000000110958438
 20
34.89389913622989
 42
0.4142135623730937
 10
3.000000110958437
 20
32.8938991362299
 10
3.000000110958431
 20
7.999999978129878
 42
0.4142135623730944
  0
ENDBLK
  5
1010098
330
101008D
100
AcDbEntity
  8
0
100
AcDbBlockEnd
  0
ENDSEC
  0
SECTION
  2
ENTITIES
  0
CIRCLE
  5
100
330
1F
100
AcDbEntity
  8
OUTLINE
100
AcDbCircle
 10
65.0000002235174
 20
40.49999999999896
 30
0.0
 40
5.000000074505805
  0
CIRCLE
  5
101
330
1F
100
AcDbEntity
  8
OUTLINE
100
AcDbCircle
 10
34.99999977648258
 20
40.49999999999896
 30
0.0
 40
5.000000074505805
  0
CIRCLE
  5
102
330
1F
100
AcDbEntity
  8
OUTLINE
100
AcDbCircle
 10
18.49999999999974
 20
26.49999979138272
 30
0.0000000000000006
 40
1.599999999999999
  0
CIRCLE
  5
103
330
1F
100
AcDbEntity
  8
OUTLINE
100
AcDbCircle
 10
18.49999999999975
 20
54.50000020861523
 30
0.0
 40
1.599999999999999
  0
CIRCLE
  5
104
330
1F
100
AcDbEntity
  8
OUTLINE
100
AcDbCircle
 10
93.00000064074993
 20
40.49999999999896
 30
0.0
 40
3.100000000000004
  0
CIRCLE
  5
105
330
1F
100
AcDbEntity
  8
OUTLINE
100
AcDbCircle
 10
93.00000064074993
 20
34.09999999999897
 30
0.0
 40
1.199999999999999
  0
CIRCLE
  5
106
330
1F
100
AcDbEntity
  8
0
100
AcDbCircle
 10
75.53999999999994
 20
35.49999992549317
 30
0.0
 40
2.75
  0
CIRCLE
  5
107
330
1F
100
AcDbEntity
  8
0
100
AcDbCircle
 10
75.53999999999994
 20
45.50000007450477
 30
0.0
 40
2.75
  0
CIRCLE
  5
108
330
1F
100
AcDbEntity
  8
OUTLINE
100
AcDbCircle
 10
17.71000000000001
 20
9.82999999999896
 30
0.0
 40
1.249999999999998
  0
CIRCLE
  5
109
330
1F
100
AcDbEntity
  8
OUTLINE
100
AcDbCircle
 10
17.71000000000007
 20
71.16999999999895
 30
0.0
 40
1.249999999999998
  0
CIRCLE
  5
110
330
1F
100
AcDbEntity
  8
OUTLINE
100
AcDbCircle
 10
82.28999999999995
 20
9.829999999998852
 30
0.0
 40
1.249999999999998
  0
CIRCLE
  5
111
330
1F
100
AcDbEntity
  8
OUTLINE
100
AcDbCircle
 10
82.28999999999997
 20
71.16999999999885
 30
0.0
 40
1.249999999999998
  0
LWPOLYLINE
  5
112
330
1F
100
AcDbEntity
  8
OUTLINE
100
AcDbPolyline
 90
        4
 70
     1
 43
0.0
 10
43.99999991059303
 20
27.29999999999995
 10
43.99999991059303
 20
17.29999999999996
 10
55.99999991059303
 20
17.29999999999996
 10
55.99999991059303
 20
27.29999999999995
  0
LWPOLYLINE
  5
113
330
1F
100
AcDbEntity
  8
OUTLINE
100
AcDbPolyline
 90
        4
 70
     1
 43
0.0
 10
44.00000008940665
 20
63.7
 10
44.00000008940665
 20
53.7
 10
56.00000008940665
 20
53.7
 10
56.00000008940665
 20
63.7
  0
CIRCLE
  5
114
330
1F
100
AcDbEntity
  8
0
100
AcDbCircle
 10
29.67850617720986
 20
9.499999538064965
 30
0.0
 40
2.75
  0
CIRCLE
  5
115
330
1F
100
AcDbEntity
  8
0
100
AcDbCircle
 10
70.32149382279996
 20
9.499999538065132
 30
0.0
 40
2.75
  0
CIRCLE
  5
116
330
1F
100
AcDbEntity
  8
0
100
AcDbCircle
 10
29.67850617720977
 20
71.50000046193479
 30
0.0
 40
2.75
  0
CIRCLE
  5
117
330
1F
100
AcDbEntity
  8
0
100
AcDbCircle
 10
70.32149382279988
 20
71.50000046193494
 30
0.0
 40
2.75
  0
CIRCLE
  5
118
330
1F
100
AcDbEntity
  8
OUTLINE
100
AcDbCircle
 10
40.99999999999106
 20
13.04999999999992
 30
0.0000000000000006
 40
1.1
  0
CIRCLE
  5
119
330
1F
100
AcDbEntity
  8
OUTLINE
100
AcDbCircle
 10
58.99999999999105
 20
13.04999999999992
 30
0.0
 40
1.1
  0
CIRCLE
  5
120
330
1F
100
AcDbEntity
  8
OUTLINE
100
AcDbCircle
 10
41.00000000000862
 20
67.94999999999996
 30
0.0
 40
1.1
  0
CIRCLE
  5
121
330
1F
100
AcDbEntity
  8
OUTLINE
100
AcDbCircle
 10
59.00000000000861
 20
67.94999999999996
 30
-0.0000000000000006
 40
1.1
  0
LWPOLYLINE
  5
122
330
1F
100
AcDbEntity
  8
OUTLINE
100
AcDbPolyline
 90
        4
 70
     1
 43
0.0
 10
79.32149382279286
 20
-0.0000000000000355
 10
20.67850617720711
 20
-0.0000000000000071
 42
-0.5105803994372456
 10
20.67850617720971
 20
80.99999999999983
 10
79.32149382278996
 20
81.00000000000006
 42
-0.5105803994372482
  0
CIRCLE
  5
101009A
330
1F
100
AcDbEntity
  8
0
100
AcDbCircle
 10
68.00000045448604
 20
238.9999999999995
 30
0.0000000000000044
 40
2.75
  0
CIRCLE
  5
101009B
330
1F
100
AcDbEntity
  8
0
100
AcDbCircle
 10
6.999999545515436
 20
238.9999999999997
 30
0.0000000000000044
 40
2.75
  0
CIRCLE
  5
101009C
330
1F
100
AcDbEntity
  8
0
100
AcDbCircle
 10
68.00000045448621
 20
273.8938991581075
 30
-0.0000000000000044
 40
2.75
  0
CIRCLE
  5
101009D
330
1F
100
AcDbEntity
  8
0
100
AcDbCircle
 10
6.999999545515436
 20
273.8938991581077
 30
-0.0000000000000022
 40
2.75
  0
LWPOLYLINE
  5
101009E
330
1F
100
AcDbEntity
  8
OUTLINE
100
AcDbPolyline
 90
       10
 70
     1
 43
0.0
 10
72.0
 20
243.9999999999996
 10
72.0
 20
268.8938991580997
 42
0.4142135623730937
 10
70.0
 20
270.8938991580997
 10
67.63912326628484
 20
270.8938991580997
 42
0.1254495962988523
 10
66.68169313747664
 20
270.6498398030106
 10
43.85380835155353
 20
258.2028902239647
 42
0.5937386746034834
 10
43.85380835155353
 20
254.6910089341427
 10
66.68169313749138
 20
242.2440593550887
 42
0.1254495962988524
 10
67.63912326629958
 20
241.9999999999996
 10
70.0
 20
241.9999999999996
 42
0.4142135623730966
  0
LWPOLYLINE
  5
101009F
330
1F
100
AcDbEntity
  8
OUTLINE
100
AcDbPolyline
 90
        4
 70
     1
 43
0.0
 10
75.0
 20
276.8938991580997
 10
75.0
 20
235.9999999999996
 10
0.0
 20
235.9999999999997
 10
0.0
 20
276.8938991580997
  0
LWPOLYLINE
  5
10100A0
330
1F
100
AcDbEntity
  8
OUTLINE
100
AcDbPolyline
 90
        6
 70
     1
 43
0.0
 10
38.45743012880814
 20
258.6774762559666
 10
59.47611963965755
 20
270.1379585131967
 42
0.7770675884350472
 10
58.51868951084941
 20
273.8938991581077
 10
16.48131048915059
 20
273.8938991581077
 42
0.7770675884350476
 10
15.52388036034239
 20
270.1379585131967
 10
36.54256987119175
 20
258.6774762559666
 42
0.2549108783455916
  0
LWPOLYLINE
  5
10100A1
330
1F
100
AcDbEntity
  8
OUTLINE
100
AcDbPolyline
 90
        6
 70
     1
 43
0.0
 10
16.48131048915047
 20
238.9999999999997
 10
58.51868951084941
 20
238.9999999999996
 42
0.7770675884350448
 10
59.47611963965755
 20
242.7559406449105
 10
38.45743012880814
 20
254.2164229021408
 42
0.2549108783455924
 10
36.54256987119175
 20
254.2164229021408
 10
15.52388036034226
 20
242.7559406449105
 42
0.7770675884350478
  0
LWPOLYLINE
  5
10100A2
330
1F
100
AcDbEntity
  8
OUTLINE
100
AcDbPolyline
 90
       10
 70
     1
 43
0.0
 10
5.0
 20
241.9999999999996
 10
7.36087673370025
 20
241.9999999999996
 42
0.1254495962988525
 10
8.318306862508391
 20
242.2440593550887
 10
31.14619164844635
 20
254.6910089341427
 42
0.5937386746034842
 10
31.14619164844635
 20
258.2028902239647
 10
8.318306862523343
 20
270.6498398030106
 42
0.1254495962988529
 10
7.360876733715143
 20
270.8938991580997
 10
5.0
 20
270.8938991580997
 42
0.4142135623730937
 10
3.0
 20
268.8938991580997
 10
3.0
 20
243.9999999999996
 42
0.4142135623730944
  0
CIRCLE
  5
10100CC
330
1F
100
AcDbEntity
  8
OUTLINE
100
AcDbCircle
 10
48.52446310066927
 20
158.151851480486
 30
-0.0000000000000044
 40
1.25
  0
CIRCLE
  5
10100CD
330
1F
100
AcDbEntity
  8
OUTLINE
100
AcDbCircle
 10
61.48699254979669
 20
178.3044894219146
 30
-0.0000000000000044
 40
1.25
  0
CIRCLE
  5
10100CE
330
1F
100
AcDbEntity
  8
OUTLINE
100
AcDbCircle
 10
75.21329864346217
 20
200.0582019820129
 30
-0.0000000000000044
 40
1.25
  0
CIRCLE
  5
10100CF
330
1F
100
AcDbEntity
  8
0
100
AcDbCircle
 10
44.99999731779064
 20
101.0000015646219
 30
-0.0000000000000044
 40
2.75
  0
CIRCLE
  5
10100D0
330
1F
100
AcDbEntity
  8
0
100
AcDbCircle
 10
44.99999731779023
 20
109.0000015646219
 30
-0.0000000000000044
 40
2.75
  0
CIRCLE
  5
10100D1
330
1F
100
AcDbEntity
  8
0
100
AcDbCircle
 10
44.99999739229417
 20
141.642989210212
 30
-0.0000000000000044
 40
2.75
  0
CIRCLE
  5
10100D2
330
1F
100
AcDbEntity
  8
0
100
AcDbCircle
 10
44.99999739229372
 20
149.642989210212
 30
-0.0000000000000044
 40
2.75
  0
CIRCLE
  5
10100D3
330
1F
100
AcDbEntity
  8
0
100
AcDbCircle
 10
50.48627165064356
 20
164.679872388288
 30
-0.0000000000000044
 40
2.75
  0
CIRCLE
  5
10100D4
330
1F
100
AcDbEntity
  8
0
100
AcDbCircle
 10
70.00071821693921
 20
193.6068593324444
 30
-0.0000000000000044
 40
2.75
  0
CIRCLE
  5
10100D5
330
1F
100
AcDbEntity
  8
0
100
AcDbCircle
 10
72.99999780952281
 20
210.3214966540222
 30
-0.0000000000000044
 40
2.75
  0
CIRCLE
  5
10100D6
330
1F
100
AcDbEntity
  8
0
100
AcDbCircle
 10
72.9999973177836
 20
225.3214953874235
 30
-0.0000000000000044
 40
2.75
  0
ARC
  5
10100D7
330
1F
100
AcDbEntity
  8
OUTLINE
100
AcDbCircle
 10
50.49999747425187
 20
118.8214952905647
 30
-0.0000000000000044
 40
11.5
100
AcDbArc
 50
270.0
 51
0.0000000000032569
  0
LINE
  5
10100D8
330
1F
100
AcDbEntity
  8
OUTLINE
100
AcDbLine
 10
61.99999747425187
 20
118.8214952905653
 30
-0.0000000000000044
 11
61.99999747425113
 21
131.8214954842804
 31
-0.0000000000000044
  0
ARC
  5
10100D9
330
1F
100
AcDbEntity
  8
OUTLINE
100
AcDbCircle
 10
50.49999747425114
 20
131.8214954842798
 30
-0.0000000000000044
 40
11.5
100
AcDbArc
 50
0.0000000000032569
 51
90.0
  0
ARC
  5
10100DA
330
1F
100
AcDbEntity
  8
OUTLINE
100
AcDbCircle
 10
50.49999747425045
 20
143.8214956630937
 30
-0.0000000000000044
 40
0.5000000074505806
100
AcDbArc
 50
180.0000000000032
 51
270.0
  0
LINE
  5
10100DB
330
1F
100
AcDbEntity
  8
OUTLINE
100
AcDbLine
 10
49.99999746679987
 20
143.8214956630937
 30
-0.0000000000000044
 11
49.99999731778763
 21
154.6429892102123
 31
-0.0000000000000044
  0
ARC
  5
10100DC
330
1F
100
AcDbEntity
  8
OUTLINE
100
AcDbCircle
 10
59.99999731778763
 20
154.6429892102129
 30
-0.0000000000000044
 40
9.999999999999991
100
AcDbArc
 50
145.9959876203062
 51
180.0000000000032
  0
LINE
  5
10100DD
330
1F
100
AcDbEntity
  8
OUTLINE
100
AcDbLine
 10
51.71001321108599
 20
160.2354987998903
 30
-0.0000000000000044
 11
74.57996553118801
 21
194.1364762080679
 31
-0.0000000000000044
  0
ARC
  5
10100DE
330
1F
100
AcDbEntity
  8
OUTLINE
100
AcDbCircle
 10
57.99999731778473
 20
205.3214953874227
 30
-0.0000000000000044
 40
20.0
100
AcDbArc
 50
325.9959876203062
 51
0.0000000000032569
  0
LINE
  5
10100DF
330
1F
100
AcDbEntity
  8
OUTLINE
100
AcDbLine
 10
77.99999731778473
 20
205.3214953874233
 30
-0.0000000000000044
 11
77.9999973177836
 21
225.3214953874238
 31
-0.0000000000000044
  0
ARC
  5
10100E0
330
1F
100
AcDbEntity
  8
OUTLINE
100
AcDbCircle
 10
72.9999973177836
 20
225.3214953874235
 30
-0.0000000000000044
 40
4.999999999999995
100
AcDbArc
 50
0.0000000000032569
 51
90.0
  0
LINE
  5
10100E1
330
1F
100
AcDbEntity
  8
OUTLINE
100
AcDbLine
 10
72.99999731778331
 20
230.3214953874235
 30
-0.0000000000000044
 11
67.99999731778331
 21
230.321495387423
 31
-0.0000000000000044
  0
LINE
  5
10100E2
330
1F
100
AcDbEntity
  8
OUTLINE
100
AcDbLine
 10
67.99999731778331
 20
230.321495387423
 30
-0.0000000000000044
 11
67.99999731778473
 21
205.321495387423
 31
-0.0000000000000044
  0
ARC
  5
10100E3
330
1F
100
AcDbEntity
  8
OUTLINE
100
AcDbCircle
 10
57.99999731778473
 20
205.3214953874227
 30
-0.0000000000000044
 40
10.0
100
AcDbArc
 50
325.9959876203062
 51
0.0000000000032569
  0
LINE
  5
10100E4
330
1F
100
AcDbEntity
  8
OUTLINE
100
AcDbLine
 10
66.28998142448637
 20
199.7289857977453
 30
-0.0000000000000044
 11
43.4200291043843
 21
165.8280083895677
 31
-0.0000000000000044
  0
ARC
  5
10100E5
330
1F
100
AcDbEntity
  8
OUTLINE
100
AcDbCircle
 10
59.99999731778763
 20
154.6429892102129
 30
-0.0000000000000044
 40
19.99999999999998
100
AcDbArc
 50
145.9959876203062
 51
180.0000000000032
  0
LINE
  5
10100E6
330
1F
100
AcDbEntity
  8
OUTLINE
100
AcDbLine
 10
39.99999731778763
 20
154.6429892102118
 30
-0.0000000000000044
 11
39.99999731778883
 21
133.3214955066309
 31
-0.0000000000000044
  0
LINE
  5
10100E7
330
1F
100
AcDbEntity
  8
OUTLINE
100
AcDbLine
 10
39.99999731778883
 20
133.3214955066309
 30
-0.0000000000000044
 11
50.49999747425101
 21
133.3214955066315
 31
-0.0000000000000044
  0
ARC
  5
10100E8
330
1F
100
AcDbEntity
  8
OUTLINE
100
AcDbCircle
 10
50.49999747425114
 20
131.8214954842798
 30
-0.0000000000000044
 40
1.50000002235174
100
AcDbArc
 50
0.0000000000032569
 51
90.0
  0
LINE
  5
10100E9
330
1F
100
AcDbEntity
  8
OUTLINE
100
AcDbLine
 10
51.99999749660286
 20
131.8214954842799
 30
-0.0000000000000044
 11
51.99999749660361
 21
118.8214952905648
 31
-0.0000000000000044
  0
ARC
  5
10100EA
330
1F
100
AcDbEntity
  8
OUTLINE
100
AcDbCircle
 10
50.49999747425187
 20
118.8214952905647
 30
-0.0000000000000044
 40
1.50000002235174
100
AcDbArc
 50
270.0
 51
0.0000000000032569
  0
LINE
  5
10100EB
330
1F
100
AcDbEntity
  8
OUTLINE
100
AcDbLine
 10
50.49999747425193
 20
117.321495268213
 30
-0.0000000000000044
 11
39.99999731778974
 21
117.3214952682124
 31
-0.0000000000000044
  0
LINE
  5
10100EC
330
1F
100
AcDbEntity
  8
OUTLINE
100
AcDbLine
 10
39.99999731778974
 20
117.3214952682124
 30
-0.0000000000000044
 11
39.99999731779093
 21
96.0000015646216
 31
-0.0000000000000044
  0
LINE
  5
10100ED
330
1F
100
AcDbEntity
  8
OUTLINE
100
AcDbLine
 10
39.99999731779093
 20
96.0000015646216
 30
-0.0000000000000044
 11
44.99999731779093
 21
96.00000156462192
 31
-0.0000000000000044
  0
ARC
  5
10100EE
330
1F
100
AcDbEntity
  8
OUTLINE
100
AcDbCircle
 10
44.99999731779064
 20
101.0000015646219
 30
-0.0000000000000044
 40
5.000000000000004
100
AcDbArc
 50
270.0
 51
0.0000000000032569
  0
LINE
  5
10100EF
330
1F
100
AcDbEntity
  8
OUTLINE
100
AcDbLine
 10
49.99999731779064
 20
101.0000015646222
 30
-0.0000000000000044
 11
49.99999746680196
 21
106.8214951117507
 31
-0.0000000000000044
  0
ARC
  5
10100F0
330
1F
100
AcDbEntity
  8
OUTLINE
100
AcDbCircle
 10
50.49999747425254
 20
106.8214951117508
 30
-0.0000000000000044
 40
0.5000001788139308
100
AcDbArc
 50
90.0
 51
180.0000000000032
  0
CIRCLE
  5
1010117
330
1F
100
AcDbEntity
  8
0
100
AcDbCircle
 10
79.50000000000009
 20
169.8214938227987
 30
0.0
 40
2.75
  0
CIRCLE
  5
1010118
330
1F
100
AcDbEntity
  8
0
100
AcDbCircle
 10
79.50000000000009
 20
161.8214938227987
 30
0.0
 40
2.75
  0
CIRCLE
  5
1010119
330
1F
100
AcDbEntity
  8
0
100
AcDbCircle
 10
79.50000007450579
 20
129.1785061772086
 30
0.0
 40
2.75
  0
CIRCLE
  5
101011A
330
1F
100
AcDbEntity
  8
0
100
AcDbCircle
 10
79.50000007450579
 20
121.1785061772086
 30
0.0
 40
2.75
  0
CIRCLE
  5
101011B
330
1F
100
AcDbEntity
  8
0
100
AcDbCircle
 10
84.98627433285655
 20
106.1416229991328
 30
0.0
 40
2.75
  0
CIRCLE
  5
101011C
330
1F
100
AcDbEntity
  8
0
100
AcDbCircle
 10
104.5007208991538
 20
77.21463605497749
 30
0.0
 40
2.75
  0
CIRCLE
  5
101011D
330
1F
100
AcDbEntity
  8
0
100
AcDbCircle
 10
107.5000004917384
 20
60.49999873340001
 30
0.0
 40
2.75
  0
CIRCLE
  5
101011E
330
1F
100
AcDbEntity
  8
0
100
AcDbCircle
 10
107.5
 20
45.49999999999868
 30
0.0
 40
2.75
  0
ARC
  5
101011F
330
1F
100
AcDbEntity
  8
OUTLINE
100
AcDbCircle
 10
85.0000001564622
 20
152.0000000968563
 30
0.0
 40
11.5
100
AcDbArc
 50
0.0
 51
90.0
  0
ARC
  5
1010120
330
1F
100
AcDbEntity
  8
OUTLINE
100
AcDbCircle
 10
85.00000015646222
 20
164.0000002756702
 30
0.0
 40
0.5000001788139265
100
AcDbArc
 50
180.0
 51
270.0
  0
LINE
  5
1010121
330
1F
100
AcDbEntity
  8
OUTLINE
100
AcDbLine
 10
84.50000014901164
 20
164.0000002756702
 30
0.0
 11
84.50000000000008
 21
169.8214938227987
 31
0.0
  0
ARC
  5
1010122
330
1F
100
AcDbEntity
  8
OUTLINE
100
AcDbCircle
 10
79.50000000000009
 20
169.8214938227987
 30
0.0
 40
5.000000000000004
100
AcDbArc
 50
0.0
 51
90.0
  0
LINE
  5
1010123
330
1F
100
AcDbEntity
  8
OUTLINE
100
AcDbLine
 10
79.50000000000009
 20
174.8214938227986
 30
0.0
 11
74.50000000000014
 21
174.8214938227986
 31
0.0
  0
LINE
  5
1010124
330
1F
100
AcDbEntity
  8
OUTLINE
100
AcDbLine
 10
74.50000000000014
 20
174.8214938227986
 30
0.0
 11
74.5
 21
153.500000119208
 31
0.0
  0
LINE
  5
1010125
330
1F
100
AcDbEntity
  8
OUTLINE
100
AcDbLine
 10
74.5
 20
153.500000119208
 30
0.0
 11
85.0000001564622
 21
153.500000119208
 31
0.0
  0
ARC
  5
1010126
330
1F
100
AcDbEntity
  8
OUTLINE
100
AcDbCircle
 10
85.0000001564622
 20
152.0000000968563
 30
0.0
 40
1.50000002235174
100
AcDbArc
 50
0.0
 51
90.0
  0
LINE
  5
1010127
330
1F
100
AcDbEntity
  8
OUTLINE
100
AcDbLine
 10
86.50000017881394
 20
152.0000000968563
 30
0.0
 11
86.50000017881394
 21
138.9999999031412
 31
0.0
  0
ARC
  5
1010128
330
1F
100
AcDbEntity
  8
OUTLINE
100
AcDbCircle
 10
85.0000001564622
 20
138.9999999031412
 30
0.0
 40
1.50000002235174
100
AcDbArc
 50
270.0
 51
0.0
  0
LINE
  5
1010129
330
1F
100
AcDbEntity
  8
OUTLINE
100
AcDbLine
 10
85.0000001564622
 20
137.4999998807894
 30
0.0
 11
74.5
 21
137.4999998807894
 31
0.0
  0
LINE
  5
101012A
330
1F
100
AcDbEntity
  8
OUTLINE
100
AcDbLine
 10
74.5
 20
137.4999998807894
 30
0.0
 11
74.5
 21
116.1785061772086
 31
0.0
  0
ARC
  5
101012B
330
1F
100
AcDbEntity
  8
OUTLINE
100
AcDbCircle
 10
94.50000000000006
 20
116.1785061772086
 30
0.0
 40
20.0
100
AcDbArc
 50
180.0
 51
214.0040123796962
  0
LINE
  5
101012C
330
1F
100
AcDbEntity
  8
OUTLINE
100
AcDbLine
 10
77.92003178659735
 20
104.9934869978528
 30
0.0
 11
100.7899841067013
 21
71.09250958967661
 31
0.0
  0
ARC
  5
101012D
330
1F
100
AcDbEntity
  8
OUTLINE
100
AcDbCircle
 10
92.50000000000005
 20
65.49999999999872
 30
0.0
 40
9.999999999999943
100
AcDbArc
 50
0.0000000000016284
 51
34.0040123796962
  0
LINE
  5
101012E
330
1F
100
AcDbEntity
  8
OUTLINE
100
AcDbLine
 10
102.5
 20
65.49999999999895
 30
0.0
 11
102.5
 21
40.49999999999896
 31
0.0
  0
LINE
  5
101012F
330
1F
100
AcDbEntity
  8
OUTLINE
100
AcDbLine
 10
102.5
 20
40.49999999999896
 30
0.0
 11
107.5
 21
40.49999999999879
 31
0.0
  0
ARC
  5
1010130
330
1F
100
AcDbEntity
  8
OUTLINE
100
AcDbCircle
 10
107.5
 20
45.49999999999868
 30
0.0
 40
4.999999999999874
100
AcDbArc
 50
270.0
 51
0.0
  0
LINE
  5
1010131
330
1F
100
AcDbEntity
  8
OUTLINE
100
AcDbLine
 10
112.5
 20
45.49999999999868
 30
0.0
 11
112.5
 21
65.49999999999929
 31
0.0
  0
ARC
  5
1010132
330
1F
100
AcDbEntity
  8
OUTLINE
100
AcDbCircle
 10
92.50000000000005
 20
65.49999999999872
 30
0.0
 40
19.99999999999994
100
AcDbArc
 50
0.0000000000016284
 51
34.0040123796962
  0
LINE
  5
1010133
330
1F
100
AcDbEntity
  8
OUTLINE
100
AcDbLine
 10
109.0799682134026
 20
76.6850191793545
 30
0.0
 11
86.21001589329864
 21
110.5859965875307
 31
0.0
  0
ARC
  5
1010134
330
1F
100
AcDbEntity
  8
OUTLINE
100
AcDbCircle
 10
94.50000000000006
 20
116.1785061772086
 30
0.0
 40
9.999999999999996
100
AcDbArc
 50
180.0
 51
214.0040123796962
  0
LINE
  5
1010135
330
1F
100
AcDbEntity
  8
OUTLINE
100
AcDbLine
 10
84.50000000000001
 20
116.1785061772086
 30
0.0
 11
84.50000014901162
 21
126.9999997243272
 31
0.0
  0
ARC
  5
1010136
330
1F
100
AcDbEntity
  8
OUTLINE
100
AcDbCircle
 10
85.0000001564622
 20
126.9999997243272
 30
0.0
 40
0.5000000074505784
100
AcDbArc
 50
90.0
 51
180.0
  0
ARC
  5
1010137
330
1F
100
AcDbEntity
  8
OUTLINE
100
AcDbCircle
 10
85.0000001564622
 20
138.9999999031412
 30
0.0
 40
11.5
100
AcDbArc
 50
270.0
 51
0.0
  0
LINE
  5
1010138
330
1F
100
AcDbEntity
  8
OUTLINE
100
AcDbLine
 10
96.5000001564622
 20
138.9999999031412
 30
0.0
 11
96.5000001564622
 21
152.0000000968563
 31
0.0
  0
CIRCLE
  5
101015C
330
1F
100
AcDbEntity
  8
OUTLINE
100
AcDbCircle
 10
15.0
 20
178.4999999999997
 30
0.0
 40
1.25
  0
CIRCLE
  5
101015D
330
1F
100
AcDbEntity
  8
OUTLINE
100
AcDbCircle
 10
15.0
 20
138.4999999999997
 30
0.0
 40
1.25
  0
CIRCLE
  5
101015E
330
1F
100
AcDbEntity
  8
OUTLINE
100
AcDbCircle
 10
2.000001221895216
 20
178.5000002980229
 30
0.0
 40
1.25
  0
CIRCLE
  5
101015F
330
1F
100
AcDbEntity
  8
OUTLINE
100
AcDbCircle
 10
2.000001221895216
 20
138.4999997019765
 30
0.0
 40
1.25
  0
CIRCLE
  5
1010160
330
1F
100
AcDbEntity
  8
OUTLINE
100
AcDbCircle
 10
2.000001221895216
 20
200.999999999999
 30
0.0
 40
1.25
  0
CIRCLE
  5
1010161
330
1F
100
AcDbEntity
  8
OUTLINE
100
AcDbCircle
 10
2.000001221895216
 20
115.999999999999
 30
0.0
 40
1.25
  0
CIRCLE
  5
1010162
330
1F
100
AcDbEntity
  8
0
100
AcDbCircle
 10
39.99999731779093
 20
228.4999984353778
 30
0.0
 40
2.75
  0
CIRCLE
  5
1010163
330
1F
100
AcDbEntity
  8
0
100
AcDbCircle
 10
39.99999731779093
 20
88.5000015646216
 30
-0.0000000000000044
 40
2.75
  0
CIRCLE
  5
1010164
330
1F
100
AcDbEntity
  8
OUTLINE
100
AcDbCircle
 10
15.12250355487782
 20
217.3201169496822
 30
0.0
 40
1.250000000000905
  0
CIRCLE
  5
1010165
330
1F
100
AcDbEntity
  8
OUTLINE
100
AcDbCircle
 10
4.956001132523624
 20
206.9307075104247
 30
0.0
 40
1.250000000000905
  0
CIRCLE
  5
1010166
330
1F
100
AcDbEntity
  8
OUTLINE
100
AcDbCircle
 10
10.59415915869431
 20
112.1214108119085
 30
0.0
 40
1.250000000000905
  0
CIRCLE
  5
1010167
330
1F
100
AcDbEntity
  8
OUTLINE
100
AcDbCircle
 10
9.4843501317402
 20
97.62775965279535
 30
0.0
 40
1.600000000001159
  0
CIRCLE
  5
1010168
330
1F
100
AcDbEntity
  8
0
100
AcDbCircle
 10
19.99999999999977
 20
126.0000000000003
 30
0.0
 40
2.75
  0
CIRCLE
  5
1010169
330
1F
100
AcDbEntity
  8
0
100
AcDbCircle
 10
4.999999999999714
 20
126.0000000000004
 30
-0.0000000000000044
 40
2.75
  0
CIRCLE
  5
101016A
330
1F
100
AcDbEntity
  8
0
100
AcDbCircle
 10
19.99999999999977
 20
190.9999999999991
 30
0.0
 40
2.75
  0
CIRCLE
  5
101016B
330
1F
100
AcDbEntity
  8
0
100
AcDbCircle
 10
4.999999999999714
 20
190.999999999999
 30
0.0
 40
2.75
  0
CIRCLE
  5
101016C
330
1F
100
AcDbEntity
  8
OUTLINE
100
AcDbCircle
 10
19.49999999999994
 20
158.4999999999996
 30
0.0
 40
1.250000000000001
  0
CIRCLE
  5
101016D
330
1F
100
AcDbEntity
  8
OUTLINE
100
AcDbCircle
 10
5.249999999999943
 20
166.7272413359517
 30
0.0
 40
1.250000000000001
  0
CIRCLE
  5
101016E
330
1F
100
AcDbEntity
  8
OUTLINE
100
AcDbCircle
 10
5.249999999999943
 20
150.2727586640475
 30
0.0
 40
1.250000000000001
  0
LINE
  5
101016F
330
1F
100
AcDbEntity
  8
OUTLINE
100
AcDbLine
 10
25.0
 20
233.4999999999997
 30
0.0
 11
10.0
 21
233.4999999999997
 31
0.0
  0
ARC
  5
1010170
330
1F
100
AcDbEntity
  8
OUTLINE
100
AcDbCircle
 10
10.0
 20
223.4999999999997
 30
0.0
 40
10.0
100
AcDbArc
 50
90.0
 51
180.0
  0
LINE
  5
1010171
330
1F
100
AcDbEntity
  8
OUTLINE
100
AcDbLine
 10
0.0
 20
223.4999999999997
 30
0.0
 11
0.0
 21
93.49999999999971
 31
0.0
  0
ARC
  5
1010172
330
1F
100
AcDbEntity
  8
OUTLINE
100
AcDbCircle
 10
10.0
 20
93.49999999999971
 30
0.0
 40
10.0
100
AcDbArc
 50
180.0
 51
270.0
  0
LINE
  5
1010173
330
1F
100
AcDbEntity
  8
OUTLINE
100
AcDbLine
 10
10.0
 20
83.49999999999969
 30
0.0
 11
25.0
 21
83.49999999999969
 31
0.0
  0
LINE
  5
1010174
330
1F
100
AcDbEntity
  8
OUTLINE
100
AcDbLine
 10
25.0
 20
83.49999999999969
 30
0.0
 11
39.99999731779093
 21
83.50000156462161
 31
0.0
  0
ARC
  5
1010176
330
1F
100
AcDbEntity
  8
OUTLINE
100
AcDbCircle
 10
39.99999731779098
 20
108.5000015646216
 30
-0.0000000000000044
 40
15.00000000000001
100
AcDbArc
 50
180.0
 51
270.0
  0
LINE
  5
1010177
330
1F
100
AcDbEntity
  8
OUTLINE
100
AcDbLine
 10
25.0
 20
108.5000015646216
 30
0.0
 11
25.00000156462192
 21
208.4999973177907
 31
0.0
  0
ARC
  5
1010178
330
1F
100
AcDbEntity
  8
OUTLINE
100
AcDbCircle
 10
40.0
 20
208.4999999999997
 30
0.0
 40
14.99999843537831
100
AcDbArc
 50
90.00001024528376
 51
180.0000102452837
  0
LINE
  5
101017A
330
1F
100
AcDbEntity
  8
OUTLINE
100
AcDbLine
 10
39.99999731779093
 20
233.4999984353778
 30
0.0
 11
25.0
 21
233.4999999999997
 31
0.0
  0
LWPOLYLINE
  5
101017E
330
1F
100
AcDbEntity
  8
Board
  6
Continuous
100
AcDbPolyline
 90
        4
 70
     1
 43
0.0
 10
0.0
 20
0.0
 10
150.0
 20
0.0
 10
150.0
 20
300.0
 10
0.0
 20
300.0
  0
POLYLINE
  5
10101CB
330
1F
100
AcDbEntity
  8
OUTLINE
  6
Continuous
100
AcDb2dPolyline
 66
     1
 10
0.0
 20
0.0
 30
-0.0000000000000044
  0
VERTEX
  5
10101CD
330
10101CB
100
AcDbEntity
  8
OUTLINE
  6
Continuous
100
AcDbVertex
100
AcDb2dVertex
 10
39.99999731779093
 20
83.50000156462161
 30
-0.0000000000000044
 42
0.0410715217822284
  0
VERTEX
  5
10101CE
330
10101CB
100
AcDbEntity
  8
OUTLINE
  6
Continuous
100
AcDbVertex
100
AcDb2dVertex
 10
45.09690113140869
 20
83.91938420057327
 30
-0.0000000000000044
 42
0.0541309211895449
  0
VERTEX
  5
10101CF
330
10101CB
100
AcDbEntity
  8
OUTLINE
  6
Continuous
100
AcDbVertex
100
AcDb2dVertex
 10
48.83883208262279
 20
84.96446765868887
 30
-0.0000000000000044
 42
0.0971632324952097
 70
     2
 50
21.80140948635184
  0
VERTEX
  5
10101D0
330
10101CB
100
AcDbEntity
  8
OUTLINE
  6
Continuous
100
AcDbVertex
100
AcDb2dVertex
 10
51.81712557522093
 20
86.89126043090297
 30
-0.0000000000000044
 42
0.2034527507076891
 50
201.8014094863518
  0
VERTEX
  5
10101D1
330
10101CB
100
AcDbEntity
  8
OUTLINE
  6
Continuous
100
AcDbVertex
100
AcDb2dVertex
 10
52.49999731779093
 20
88.5000015646216
 30
-0.0000000000000044
 42
0.2034527507076722
  0
VERTEX
  5
10101D2
330
10101CB
100
AcDbEntity
  8
OUTLINE
  6
Continuous
100
AcDbVertex
100
AcDb2dVertex
 10
51.81712557522097
 20
90.10874269834022
 30
-0.0000000000000044
 42
0.0971632324952045
  0
VERTEX
  5
10101D3
330
10101CB
100
AcDbEntity
  8
OUTLINE
  6
Continuous
100
AcDbVertex
100
AcDb2dVertex
 10
48.83883208262279
 20
92.03553547055435
 30
-0.0000000000000044
 42
0.0541309211895454
 70
     2
 50
158.1985905136481
  0
VERTEX
  5
10101D4
330
10101CB
100
AcDbEntity
  8
OUTLINE
  6
Continuous
100
AcDbVertex
100
AcDb2dVertex
 10
45.09690113140869
 20
93.08061892866994
 30
-0.0000000000000044
 42
0.0410715217822291
 50
338.1985905136482
  0
VERTEX
  5
10101D5
330
10101CB
100
AcDbEntity
  8
OUTLINE
  6
Continuous
100
AcDbVertex
100
AcDb2dVertex
 10
39.99999731779093
 20
93.5000015646216
 30
-0.0000000000000044
 42
0.0410715217822297
  0
SEQEND
  5
10101CC
330
10101CB
100
AcDbEntity
  8
OUTLINE
  6
Continuous
  0
POLYLINE
  5
10101F4
330
1F
100
AcDbEntity
  8
OUTLINE
  6
Continuous
100
AcDb2dPolyline
 66
     1
 10
0.0
 20
0.0
 30
0.0
  0
VERTEX
  5
10101F6
330
10101F4
100
AcDbEntity
  8
OUTLINE
  6
Continuous
100
AcDbVertex
100
AcDb2dVertex
 10
39.99999731779093
 20
223.4999984353778
 30
0.0
 42
0.0410715217822255
  0
VERTEX
  5
10101F7
330
10101F4
100
AcDbEntity
  8
OUTLINE
  6
Continuous
100
AcDbVertex
100
AcDb2dVertex
 10
45.09690113140902
 20
223.9193810713294
 30
0.0
 42
0.0541309211895327
  0
VERTEX
  5
10101F8
330
10101F4
100
AcDbEntity
  8
OUTLINE
  6
Continuous
100
AcDbVertex
100
AcDb2dVertex
 10
48.83883208262279
 20
224.964464529445
 30
0.0
 42
0.097163232495216
 70
     2
 50
21.80140948635184
  0
VERTEX
  5
10101F9
330
10101F4
100
AcDbEntity
  8
OUTLINE
  6
Continuous
100
AcDbVertex
100
AcDb2dVertex
 10
51.81712557522093
 20
226.8912573016592
 30
0.0
 42
0.2034527507076951
 50
201.8014094863518
  0
VERTEX
  5
10101FA
330
10101F4
100
AcDbEntity
  8
OUTLINE
  6
Continuous
100
AcDbVertex
100
AcDb2dVertex
 10
52.49999731779093
 20
228.4999984353778
 30
0.0
 42
0.2034527507076728
  0
VERTEX
  5
10101FB
330
10101F4
100
AcDbEntity
  8
OUTLINE
  6
Continuous
100
AcDbVertex
100
AcDb2dVertex
 10
51.81712557522097
 20
230.1087395690964
 30
0.0
 42
0.0971632324952049
  0
VERTEX
  5
10101FC
330
10101F4
100
AcDbEntity
  8
OUTLINE
  6
Continuous
100
AcDbVertex
100
AcDb2dVertex
 10
48.83883208262279
 20
232.0355323413105
 30
0.0
 42
0.054130921189546
 70
     2
 50
158.1985905136481
  0
VERTEX
  5
10101FD
330
10101F4
100
AcDbEntity
  8
OUTLINE
  6
Continuous
100
AcDbVertex
100
AcDb2dVertex
 10
45.09690113140874
 20
233.0806157994261
 30
0.0
 42
0.0410715217822305
 50
338.1985905136482
  0
VERTEX
  5
10101FE
330
10101F4
100
AcDbEntity
  8
OUTLINE
  6
Continuous
100
AcDbVertex
100
AcDb2dVertex
 10
39.99999731779093
 20
233.4999984353778
 30
0.0
 42
0.0410715217822337
  0
SEQEND
  5
10101F5
330
10101F4
100
AcDbEntity
  8
OUTLINE
  6
Continuous
  0
LINE
  5
1010201
330
1F
100
AcDbEntity
  8
Board
  6
Continuous
100
AcDbLine
 10
0.0
 20
93.49999999999971
 30
0.0
 11
0.0
 21
83.49999999999971
 31
0.0
  0
CIRCLE
  5
101021D
330
1F
100
AcDbEntity
  8
OUTLINE
100
AcDbCircle
 10
6.999999545515436
 20
273.8938991581077
 30
-0.0000000000000022
 40
1.599999999999999
  0
CIRCLE
  5
101021E
330
1F
100
AcDbEntity
  8
CAM_LINE_1.5d
  6
Continuous
100
AcDbCircle
 10
6.999999545515436
 20
273.8938991581077
 30
-0.0000000000000022
 40
1.75
  0
CIRCLE
  5
101021F
330
1F
100
AcDbEntity
  8
OUTLINE
100
AcDbCircle
 10
6.999999545515436
 20
238.9999999999997
 30
0.0000000000000044
 40
1.599999999999999
  0
CIRCLE
  5
1010220
330
1F
100
AcDbEntity
  8
CAM_LINE_1.5d
  6
Continuous
100
AcDbCircle
 10
6.999999545515436
 20
238.9999999999997
 30
0.0000000000000044
 40
1.75
  0
CIRCLE
  5
1010221
330
1F
100
AcDbEntity
  8
OUTLINE
100
AcDbCircle
 10
39.99999731779093
 20
228.4999984353778
 30
0.0
 40
1.599999999999999
  0
CIRCLE
  5
1010222
330
1F
100
AcDbEntity
  8
CAM_LINE_1.5d
  6
Continuous
100
AcDbCircle
 10
39.99999731779093
 20
228.4999984353778
 30
0.0
 40
1.75
  0
CIRCLE
  5
1010223
330
1F
100
AcDbEntity
  8
OUTLINE
100
AcDbCircle
 10
68.00000045448621
 20
273.8938991581075
 30
-0.0000000000000044
 40
1.599999999999999
  0
CIRCLE
  5
1010224
330
1F
100
AcDbEntity
  8
CAM_LINE_1.5d
  6
Continuous
100
AcDbCircle
 10
68.00000045448621
 20
273.8938991581075
 30
-0.0000000000000044
 40
1.75
  0
CIRCLE
  5
1010225
330
1F
100
AcDbEntity
  8
OUTLINE
100
AcDbCircle
 10
68.00000045448604
 20
238.9999999999995
 30
0.0000000000000044
 40
1.599999999999999
  0
CIRCLE
  5
1010226
330
1F
100
AcDbEntity
  8
CAM_LINE_1.5d
  6
Continuous
100
AcDbCircle
 10
68.00000045448604
 20
238.9999999999995
 30
0.0000000000000044
 40
1.75
  0
CIRCLE
  5
1010227
330
1F
100
AcDbEntity
  8
OUTLINE
100
AcDbCircle
 10
72.9999973177836
 20
225.3214953874235
 30
-0.0000000000000044
 40
1.599999999999999
  0
CIRCLE
  5
1010228
330
1F
100
AcDbEntity
  8
CAM_LINE_1.5d
  6
Continuous
100
AcDbCircle
 10
72.9999973177836
 20
225.3214953874235
 30
-0.0000000000000044
 40
1.75
  0
CIRCLE
  5
1010229
330
1F
100
AcDbEntity
  8
OUTLINE
100
AcDbCircle
 10
72.99999780952281
 20
210.3214966540222
 30
-0.0000000000000044
 40
1.599999999999999
  0
CIRCLE
  5
101022A
330
1F
100
AcDbEntity
  8
CAM_LINE_1.5d
  6
Continuous
100
AcDbCircle
 10
72.99999780952281
 20
210.3214966540222
 30
-0.0000000000000044
 40
1.75
  0
CIRCLE
  5
101022B
330
1F
100
AcDbEntity
  8
OUTLINE
100
AcDbCircle
 10
19.99999999999977
 20
190.9999999999991
 30
0.0
 40
1.599999999999999
  0
CIRCLE
  5
101022C
330
1F
100
AcDbEntity
  8
CAM_LINE_1.5d
  6
Continuous
100
AcDbCircle
 10
19.99999999999977
 20
190.9999999999991
 30
0.0
 40
1.75
  0
CIRCLE
  5
101022D
330
1F
100
AcDbEntity
  8
OUTLINE
100
AcDbCircle
 10
4.999999999999714
 20
190.999999999999
 30
0.0
 40
1.599999999999999
  0
CIRCLE
  5
101022E
330
1F
100
AcDbEntity
  8
CAM_LINE_1.5d
  6
Continuous
100
AcDbCircle
 10
4.999999999999714
 20
190.999999999999
 30
0.0
 40
1.75
  0
CIRCLE
  5
101022F
330
1F
100
AcDbEntity
  8
OUTLINE
100
AcDbCircle
 10
19.99999999999977
 20
126.0000000000003
 30
0.0
 40
1.599999999999999
  0
CIRCLE
  5
1010230
330
1F
100
AcDbEntity
  8
CAM_LINE_1.5d
  6
Continuous
100
AcDbCircle
 10
19.99999999999977
 20
126.0000000000003
 30
0.0
 40
1.75
  0
CIRCLE
  5
1010231
330
1F
100
AcDbEntity
  8
OUTLINE
100
AcDbCircle
 10
4.999999999999714
 20
126.0000000000004
 30
-0.0000000000000044
 40
1.599999999999999
  0
CIRCLE
  5
1010232
330
1F
100
AcDbEntity
  8
CAM_LINE_1.5d
  6
Continuous
100
AcDbCircle
 10
4.999999999999714
 20
126.0000000000004
 30
-0.0000000000000044
 40
1.75
  0
CIRCLE
  5
1010233
330
1F
100
AcDbEntity
  8
OUTLINE
100
AcDbCircle
 10
70.32149382279988
 20
71.50000046193494
 30
0.0
 40
1.599999999999999
  0
CIRCLE
  5
1010234
330
1F
100
AcDbEntity
  8
CAM_LINE_1.5d
  6
Continuous
100
AcDbCircle
 10
70.32149382279988
 20
71.50000046193494
 30
0.0
 40
1.75
  0
CIRCLE
  5
1010235
330
1F
100
AcDbEntity
  8
OUTLINE
100
AcDbCircle
 10
29.67850617720977
 20
71.50000046193479
 30
0.0
 40
1.599999999999999
  0
CIRCLE
  5
1010236
330
1F
100
AcDbEntity
  8
CAM_LINE_1.5d
  6
Continuous
100
AcDbCircle
 10
29.67850617720977
 20
71.50000046193479
 30
0.0
 40
1.75
  0
CIRCLE
  5
1010237
330
1F
100
AcDbEntity
  8
OUTLINE
100
AcDbCircle
 10
29.67850617720986
 20
9.499999538064965
 30
0.0
 40
1.599999999999999
  0
CIRCLE
  5
1010238
330
1F
100
AcDbEntity
  8
CAM_LINE_1.5d
  6
Continuous
100
AcDbCircle
 10
29.67850617720986
 20
9.499999538064965
 30
0.0
 40
1.75
  0
CIRCLE
  5
1010239
330
1F
100
AcDbEntity
  8
OUTLINE
100
AcDbCircle
 10
70.32149382279996
 20
9.499999538065139
 30
0.0
 40
1.599999999999999
  0
CIRCLE
  5
101023A
330
1F
100
AcDbEntity
  8
CAM_LINE_1.5d
  6
Continuous
100
AcDbCircle
 10
70.32149382279996
 20
9.499999538065139
 30
0.0
 40
1.75
  0
CIRCLE
  5
101023B
330
1F
100
AcDbEntity
  8
OUTLINE
100
AcDbCircle
 10
107.5
 20
45.49999999999868
 30
0.0
 40
1.599999999999999
  0
CIRCLE
  5
101023C
330
1F
100
AcDbEntity
  8
CAM_LINE_1.5d
  6
Continuous
100
AcDbCircle
 10
107.5
 20
45.49999999999868
 30
0.0
 40
1.75
  0
CIRCLE
  5
101023D
330
1F
100
AcDbEntity
  8
OUTLINE
100
AcDbCircle
 10
107.5000004917384
 20
60.49999873340002
 30
0.0
 40
1.599999999999999
  0
CIRCLE
  5
101023E
330
1F
100
AcDbEntity
  8
CAM_LINE_1.5d
  6
Continuous
100
AcDbCircle
 10
107.5000004917384
 20
60.49999873340002
 30
0.0
 40
1.75
  0
CIRCLE
  5
101023F
330
1F
100
AcDbEntity
  8
OUTLINE
100
AcDbCircle
 10
104.5007208991538
 20
77.21463605497749
 30
0.0
 40
1.599999999999999
  0
CIRCLE
  5
1010240
330
1F
100
AcDbEntity
  8
CAM_LINE_1.5d
  6
Continuous
100
AcDbCircle
 10
104.5007208991538
 20
77.21463605497749
 30
0.0
 40
1.75
  0
CIRCLE
  5
1010241
330
1F
100
AcDbEntity
  8
OUTLINE
100
AcDbCircle
 10
84.98627433285655
 20
106.1416229991328
 30
0.0
 40
1.599999999999999
  0
CIRCLE
  5
1010242
330
1F
100
AcDbEntity
  8
CAM_LINE_1.5d
  6
Continuous
100
AcDbCircle
 10
84.98627433285655
 20
106.1416229991328
 30
0.0
 40
1.75
  0
CIRCLE
  5
1010243
330
1F
100
AcDbEntity
  8
OUTLINE
100
AcDbCircle
 10
39.99999731779093
 20
88.5000015646216
 30
-0.0000000000000044
 40
1.599999999999999
  0
CIRCLE
  5
1010244
330
1F
100
AcDbEntity
  8
CAM_LINE_1.5d
  6
Continuous
100
AcDbCircle
 10
39.99999731779093
 20
88.5000015646216
 30
-0.0000000000000044
 40
1.75
  0
CIRCLE
  5
1010245
330
1F
100
AcDbEntity
  8
OUTLINE
100
AcDbCircle
 10
44.99999731779064
 20
101.0000015646219
 30
-0.0000000000000044
 40
1.599999999999999
  0
CIRCLE
  5
1010246
330
1F
100
AcDbEntity
  8
CAM_LINE_1.5d
  6
Continuous
100
AcDbCircle
 10
44.99999731779064
 20
101.0000015646219
 30
-0.0000000000000044
 40
1.75
  0
CIRCLE
  5
1010247
330
1F
100
AcDbEntity
  8
OUTLINE
100
AcDbCircle
 10
44.99999731779023
 20
109.0000015646219
 30
-0.0000000000000044
 40
1.599999999999999
  0
CIRCLE
  5
1010248
330
1F
100
AcDbEntity
  8
CAM_LINE_1.5d
  6
Continuous
100
AcDbCircle
 10
44.99999731779023
 20
109.0000015646219
 30
-0.0000000000000044
 40
1.75
  0
CIRCLE
  5
1010249
330
1F
100
AcDbEntity
  8
OUTLINE
100
AcDbCircle
 10
44.99999739229417
 20
141.642989210212
 30
-0.0000000000000044
 40
1.599999999999999
  0
CIRCLE
  5
101024A
330
1F
100
AcDbEntity
  8
CAM_LINE_1.5d
  6
Continuous
100
AcDbCircle
 10
44.99999739229417
 20
141.642989210212
 30
-0.0000000000000044
 40
1.75
  0
CIRCLE
  5
101024B
330
1F
100
AcDbEntity
  8
OUTLINE
100
AcDbCircle
 10
44.99999739229372
 20
149.642989210212
 30
-0.0000000000000044
 40
1.599999999999999
  0
CIRCLE
  5
101024C
330
1F
100
AcDbEntity
  8
CAM_LINE_1.5d
  6
Continuous
100
AcDbCircle
 10
44.99999739229372
 20
149.642989210212
 30
-0.0000000000000044
 40
1.75
  0
CIRCLE
  5
101024D
330
1F
100
AcDbEntity
  8
OUTLINE
100
AcDbCircle
 10
50.48627165064356
 20
164.679872388288
 30
-0.0000000000000044
 40
1.599999999999999
  0
CIRCLE
  5
101024E
330
1F
100
AcDbEntity
  8
CAM_LINE_1.5d
  6
Continuous
100
AcDbCircle
 10
50.48627165064356
 20
164.679872388288
 30
-0.0000000000000044
 40
1.75
  0
CIRCLE
  5
101024F
330
1F
100
AcDbEntity
  8
OUTLINE
100
AcDbCircle
 10
70.00071821693921
 20
193.6068593324444
 30
-0.0000000000000044
 40
1.599999999999999
  0
CIRCLE
  5
1010250
330
1F
100
AcDbEntity
  8
CAM_LINE_1.5d
  6
Continuous
100
AcDbCircle
 10
70.00071821693921
 20
193.6068593324444
 30
-0.0000000000000044
 40
1.75
  0
CIRCLE
  5
1010251
330
1F
100
AcDbEntity
  8
OUTLINE
100
AcDbCircle
 10
79.50000000000009
 20
169.8214938227987
 30
0.0
 40
1.599999999999999
  0
CIRCLE
  5
1010252
330
1F
100
AcDbEntity
  8
CAM_LINE_1.5d
  6
Continuous
100
AcDbCircle
 10
79.50000000000009
 20
169.8214938227987
 30
0.0
 40
1.75
  0
CIRCLE
  5
1010253
330
1F
100
AcDbEntity
  8
OUTLINE
100
AcDbCircle
 10
79.50000000000009
 20
161.8214938227987
 30
0.0
 40
1.599999999999999
  0
CIRCLE
  5
1010254
330
1F
100
AcDbEntity
  8
CAM_LINE_1.5d
  6
Continuous
100
AcDbCircle
 10
79.50000000000009
 20
161.8214938227987
 30
0.0
 40
1.75
  0
CIRCLE
  5
1010255
330
1F
100
AcDbEntity
  8
OUTLINE
100
AcDbCircle
 10
79.50000007450579
 20
129.1785061772086
 30
0.0
 40
1.599999999999999
  0
CIRCLE
  5
1010256
330
1F
100
AcDbEntity
  8
CAM_LINE_1.5d
  6
Continuous
100
AcDbCircle
 10
79.50000007450579
 20
129.1785061772086
 30
0.0
 40
1.75
  0
CIRCLE
  5
1010257
330
1F
100
AcDbEntity
  8
OUTLINE
100
AcDbCircle
 10
79.50000007450579
 20
121.1785061772086
 30
0.0
 40
1.599999999999999
  0
CIRCLE
  5
1010258
330
1F
100
AcDbEntity
  8
CAM_LINE_1.5d
  6
Continuous
100
AcDbCircle
 10
79.50000007450579
 20
121.1785061772086
 30
0.0
 40
1.75
  0
CIRCLE
  5
1010259
330
1F
100
AcDbEntity
  8
OUTLINE
100
AcDbCircle
 10
75.53999999999994
 20
45.50000007450478
 30
0.0
 40
1.599999999999999
  0
CIRCLE
  5
101025A
330
1F
100
AcDbEntity
  8
CAM_LINE_1.5d
  6
Continuous
100
AcDbCircle
 10
75.53999999999994
 20
45.50000007450478
 30
0.0
 40
1.75
  0
CIRCLE
  5
101025B
330
1F
100
AcDbEntity
  8
OUTLINE
100
AcDbCircle
 10
75.53999999999994
 20
35.49999992549317
 30
0.0
 40
1.599999999999999
  0
CIRCLE
  5
101025C
330
1F
100
AcDbEntity
  8
CAM_LINE_1.5d
  6
Continuous
100
AcDbCircle
 10
75.53999999999994
 20
35.49999992549317
 30
0.0
 40
1.75
  0
LWPOLYLINE
  5
1010285
330
1F
100
AcDbEntity
  8
AlpacaFig
  6
Continuous
100
AcDbPolyline
 90
        4
 70
     1
 43
0.0
 10
0.0
 20
0.0
 10
70.0
 20
0.0
 10
70.0
 20
50.0
 10
0.0
 20
50.0
  0
ARC
  5
10102B1
330
1F
100
AcDbEntity
  8
AlpacaFig
100
AcDbCircle
 10
11.79089841223255
 20
41.69234081845348
 30
0.0
 40
0.4374000000000001
100
AcDbArc
 50
119.5297384832237
 51
7.987471138849281
  0
ARC
  5
10102B2
330
1F
100
AcDbEntity
  8
AlpacaFig
100
AcDbCircle
 10
12.95128734577937
 20
44.04626793773779
 30
0.0
 40
2.405699999999999
100
AcDbArc
 50
208.3067674302988
 51
273.7586048110365
  0
ARC
  5
10102B3
330
1F
100
AcDbEntity
  8
AlpacaFig
100
AcDbCircle
 10
8.897245523743922
 20
43.50204230891011
 30
0.0
 40
0.7873200000000002
100
AcDbArc
 50
232.1507764287826
 51
315.3664331932902
  0
ARC
  5
10102B4
330
1F
100
AcDbEntity
  8
AlpacaFig
100
AcDbCircle
 10
10.16241005424433
 20
43.46696477356516
 30
0.0
 40
0.8748000000000001
100
AcDbArc
 50
216.3143699557456
 51
320.0725998015836
  0
ARC
  5
10102B5
330
1F
100
AcDbEntity
  8
AlpacaFig
100
AcDbCircle
 10
6.265214167038445
 20
41.32933490547574
 30
0.0
 40
0.4374000000000001
100
AcDbArc
 50
179.5297384832237
 51
67.98747113884934
  0
ARC
  5
10102B6
330
1F
100
AcDbEntity
  8
AlpacaFig
100
AcDbCircle
 10
4.806847949854528
 20
43.51122475983976
 30
0.0
 40
2.405699999999999
100
AcDbArc
 50
273.7586048110365
 51
339.2104421917733
  0
ARC
  5
10102B7
330
1F
100
AcDbEntity
  8
AlpacaFig
100
AcDbCircle
 10
7.647543291930843
 20
43.30175238274406
 30
0.0
 40
0.8748000000000001
100
AcDbArc
 50
227.4446098204893
 51
331.2028396663273
  0
LINE
  5
10102B8
330
1F
100
AcDbEntity
  8
AlpacaFig
100
AcDbLine
 10
9.198310737354393
 20
38.91922079513132
 30
0.0
 11
8.60629426475714
 21
39.43824803774343
 31
0.0
  0
LINE
  5
10102B9
330
1F
100
AcDbEntity
  8
AlpacaFig
100
AcDbLine
 10
9.198310737354393
 20
38.91922079513132
 30
0.0
 11
9.717337979966494
 21
39.51123726772858
 31
0.0
  0
ARC
  5
10102BA
330
1F
100
AcDbEntity
  8
AlpacaFig
100
AcDbCircle
 10
9.198310737354393
 20
38.91922079513133
 30
0.0
 40
0.8748000000000029
100
AcDbArc
 50
213.7586048110353
 51
334.57694348427
  0
ARC
  5
10102BB
330
1F
100
AcDbEntity
  8
AlpacaFig
100
AcDbCircle
 10
9.161816122361821
 20
39.474742652736
 30
0.0
 40
0.5567193109637941
100
AcDbArc
 50
183.7586048110365
 51
3.758604811036544
  0
ARC
  5
10102BC
330
1F
100
AcDbEntity
  8
AlpacaFig
100
AcDbCircle
 10
9.298665808557885
 20
37.39161362387173
 30
0.0
 40
0.7435800000000001
100
AcDbArc
 50
73.17080832424413
 51
114.3464012978289
  0
LINE
  5
10102BD
330
1F
100
AcDbEntity
  8
AlpacaFig
100
AcDbLine
 10
9.198310737354393
 20
38.91922079513132
 30
0.0
 11
9.249921916830476
 21
38.13359424991211
 31
0.0
  0
ARC
  5
10102BE
330
1F
100
AcDbEntity
  8
AlpacaFig
100
AcDbCircle
 10
9.090133928645043
 20
40.56589063220712
 30
0.0
 40
4.891572607798999
100
AcDbArc
 50
66.83646511054252
 51
120.6807445115286
  0
LINE
  5
10102BF
330
1F
100
AcDbEntity
  8
AlpacaFig
100
AcDbLine
 10
6.594189844764575
 20
44.77275950436271
 30
0.0
 11
5.378884663777979
 21
46.59100104966608
 31
0.0
  0
ARC
  5
10102C0
330
1F
100
AcDbEntity
  8
AlpacaFig
100
AcDbCircle
 10
4.942506692905167
 20
46.29932780622929
 30
0.0
 40
0.5248799999999978
100
AcDbArc
 50
33.75860481103662
 51
123.7586048110362
  0
ARC
  5
10102C1
330
1F
100
AcDbEntity
  8
AlpacaFig
100
AcDbCircle
 10
6.157799750179702
 20
44.48110439944559
 30
0.0
 40
2.711858182798301
100
AcDbArc
 50
123.7586048110362
 51
232.9246839335181
  0
LINE
  5
10102C3
330
1F
100
AcDbEntity
  8
AlpacaFig
100
AcDbLine
 10
11.01426756427414
 20
45.06313337967031
 30
0.0
 11
11.98125834222984
 21
47.02473931240724
 31
0.0
  0
ARC
  5
10102C4
330
1F
100
AcDbEntity
  8
AlpacaFig
100
AcDbCircle
 10
12.45204376608668
 20
46.79266152569787
 30
0.0
 40
0.5248799999999978
100
AcDbArc
 50
63.75860481103678
 51
153.7586048110352
  0
ARC
  5
10102C5
330
1F
100
AcDbEntity
  8
AlpacaFig
100
AcDbCircle
 10
11.48506263469381
 20
44.83107516166341
 30
0.0
 40
2.711858182798301
100
AcDbArc
 50
314.5925256885533
 51
63.75860481103678
  0
ARC
  5
10102C9
330
1F
100
AcDbEntity
  8
AlpacaFig
100
AcDbCircle
 10
11.48506263469381
 20
44.83107516166341
 30
0.0
 40
1.968299999999999
100
AcDbArc
 50
336.9220690676257
 51
60.03647831073569
  0
ARC
  5
10102CA
330
1F
100
AcDbEntity
  8
AlpacaFig
100
AcDbCircle
 10
9.090133928645043
 20
40.56589063220712
 30
0.0
 40
5.4675
100
AcDbArc
 50
39.71609757928299
 51
59.63236394865788
  0
LINE
  5
10102CB
330
1F
100
AcDbEntity
  8
AlpacaFig
100
AcDbLine
 10
12.46812717477256
 20
46.53629919387729
 30
0.0
 11
11.85420934159086
 21
45.28324617970919
 31
0.0
  0
ARC
  5
10102CC
330
1F
100
AcDbEntity
  8
AlpacaFig
100
AcDbCircle
 10
6.157799750179702
 20
44.48110439944559
 30
0.0
 40
1.968299999999999
100
AcDbArc
 50
127.4807313113374
 51
210.5951405544468
  0
ARC
  5
10102CD
330
1F
100
AcDbEntity
  8
AlpacaFig
100
AcDbCircle
 10
9.090133928645043
 20
40.56589063220712
 30
0.0
 40
5.4675
100
AcDbArc
 50
127.8848456734167
 51
147.8011120427909
  0
LINE
  5
10102CE
330
1F
100
AcDbEntity
  8
AlpacaFig
100
AcDbLine
 10
4.960099852174176
 20
46.04306465640399
 30
0.0
 11
5.732670820823233
 21
44.88109604210542
 31
0.0
  0
ARC
  5
10102CF
330
1F
100
AcDbEntity
  8
AlpacaFig
100
AcDbCircle
 10
9.298665808557885
 20
37.39161362387173
 30
0.0
 40
0.8748000000000001
100
AcDbArc
 50
197.8981015856334
 51
349.6191080364397
  0
ARC
  5
10102D0
330
1F
100
AcDbEntity
  8
AlpacaFig
100
AcDbCircle
 10
10.76729901327837
 20
37.8628113974318
 30
0.0
 40
0.8747999999999997
100
AcDbArc
 50
225.9576355296839
 51
17.67864198049016
  0
ARC
  5
10102D1
330
1F
100
AcDbEntity
  8
AlpacaFig
100
AcDbCircle
 10
7.781010639905971
 20
37.66662929775182
 30
0.0
 40
0.8747999999999997
100
AcDbArc
 50
169.8385676415821
 51
321.559574092388
  0
ARC
  5
101032B
330
1F
100
AcDbEntity
  8
Layer1
  6
Continuous
100
AcDbCircle
 10
11.60436172092592
 20
33.23593063489468
 30
0.0
 40
2.603155146404687
100
AcDbArc
 50
337.5172096220731
 51
37.51720962207374
  0
ARC
  5
101032D
330
1F
100
AcDbEntity
  8
Layer1
  6
Continuous
100
AcDbCircle
 10
11.94491684095175
 20
30.65514801590532
 30
0.0
 40
2.603155146404687
100
AcDbArc
 50
337.5172096220733
 51
37.51720962207401
  0
ARC
  5
1010333
330
1F
100
AcDbEntity
  8
Layer1
  6
Continuous
100
AcDbCircle
 10
14.05704725651221
 20
28.1846609911798
 30
0.0
 40
1.503877642120726
100
AcDbArc
 50
18.75860481103368
 51
78.7586048110396
  0
ARC
  5
1010335
330
1F
100
AcDbEntity
  8
Layer1
  6
Continuous
100
AcDbCircle
 10
15.18787123774762
 20
27.19325537997219
 30
0.0
 40
1.503877642120726
100
AcDbArc
 50
18.75860481103408
 51
78.75860481103996
  0
ARC
  5
101034C
330
1F
100
AcDbEntity
  8
Layer1
  6
Continuous
100
AcDbCircle
 10
19.60614413083483
 20
24.58586968743077
 30
0.0
 40
4.303488877272828
100
AcDbArc
 50
74.08934953298679
 51
134.0893495329873
  0
ARC
  5
101034E
330
1F
100
AcDbEntity
  8
Layer1
  6
Continuous
100
AcDbCircle
 10
23.5557936395828
 20
25.43091306314386
 30
0.0
 40
4.303488877272828
100
AcDbArc
 50
70.06382109499182
 51
130.0638210949923
  0
ARC
  5
101034F
330
1F
100
AcDbEntity
  8
Layer1
  6
Continuous
100
AcDbCircle
 10
31.58409505681222
 20
26.28014677731453
 30
0.0
 40
4.303488877272828
100
AcDbArc
 50
62.0127642189982
 51
122.0127642189987
  0
ARC
  5
1010350
330
1F
100
AcDbEntity
  8
Layer1
  6
Continuous
100
AcDbCircle
 10
27.5550216895709
 20
25.99660251238181
 30
0.0
 40
4.303488877272828
100
AcDbArc
 50
66.03829265699321
 51
126.0382926569936
  0
ARC
  5
1010352
330
1F
100
AcDbEntity
  8
Layer1
  6
Continuous
100
AcDbCircle
 10
43.65143467004659
 20
25.43091306314386
 30
0.0
 40
4.303488877272828
100
AcDbArc
 50
49.93617890500736
 51
109.9361789050078
  0
ARC
  5
1010353
330
1F
100
AcDbEntity
  8
Layer1
  6
Continuous
100
AcDbCircle
 10
35.62313325281718
 20
26.28014677731453
 30
0.0
 40
4.303488877272828
100
AcDbArc
 50
57.98723578100133
 51
117.9872357810021
  0
ARC
  5
1010354
330
1F
100
AcDbEntity
  8
Layer1
  6
Continuous
100
AcDbCircle
 10
39.65220662005851
 20
25.99660251238181
 30
0.0
 40
4.303488877272828
100
AcDbArc
 50
53.96170734300614
 51
113.9617073430071
  0
ARC
  5
1010374
330
1F
100
AcDbEntity
  8
Layer1
  6
Continuous
100
AcDbCircle
 10
6.299437962761212
 20
33.89820294470994
 30
0.0
 40
2.41379212554035
100
AcDbArc
 50
157.5172096220737
 51
217.5172096220733
  0
ARC
  5
101037B
330
1F
100
AcDbEntity
  8
Layer1
  6
Continuous
100
AcDbCircle
 10
6.615219858498811
 20
31.50515588716071
 30
0.0
 40
2.41379212554035
100
AcDbArc
 50
157.5172096220737
 51
217.5172096220734
  0
ARC
  5
101037C
330
1F
100
AcDbEntity
  8
Layer1
  6
Continuous
100
AcDbCircle
 10
7.246783649974036
 20
26.71906177206225
 30
0.0
 40
2.413792125540349
100
AcDbArc
 50
157.5172096220741
 51
217.5172096220735
  0
ARC
  5
101037D
330
1F
100
AcDbEntity
  8
Layer1
  6
Continuous
100
AcDbCircle
 10
6.931001754236419
 20
29.11210882961148
 30
0.0
 40
2.413792125540349
100
AcDbArc
 50
157.5172096220737
 51
217.5172096220735
  0
ARC
  5
101037E
330
1F
100
AcDbEntity
  8
Layer1
  6
Continuous
100
AcDbCircle
 10
8.509911232924391
 20
17.14687354186544
 30
0.0
 40
2.41379212554035
100
AcDbArc
 50
157.5172096220736
 51
217.517209622073
  0
ARC
  5
101037F
330
1F
100
AcDbEntity
  8
Layer1
  6
Continuous
100
AcDbCircle
 10
8.19412933718679
 20
19.53992059941466
 30
0.0
 40
2.41379212554035
100
AcDbArc
 50
157.5172096220732
 51
217.517209622073
  0
ARC
  5
1010380
330
1F
100
AcDbEntity
  8
Layer1
  6
Continuous
100
AcDbCircle
 10
7.562565545711617
 20
24.32601471451314
 30
0.0
 40
2.413792125540349
100
AcDbArc
 50
157.5172096220732
 51
217.5172096220729
  0
ARC
  5
1010381
330
1F
100
AcDbEntity
  8
Layer1
  6
Continuous
100
AcDbCircle
 10
7.8783474414492
 20
21.9329676569639
 30
0.0
 40
2.413792125540349
100
AcDbArc
 50
157.5172096220732
 51
217.517209622073
  0
ARC
  5
1010392
330
1F
100
AcDbEntity
  8
Layer1
  6
Continuous
100
AcDbCircle
 10
20.35755824629428
 20
17.49599618296153
 30
0.0
 40
2.532693372851184
100
AcDbArc
 50
225.9106504670099
 51
285.9106504670145
  0
ARC
  5
1010394
330
1F
100
AcDbEntity
  8
Layer1
  6
Continuous
100
AcDbCircle
 10
22.68200973697216
 20
16.99867045063678
 30
0.0
 40
2.532693372851184
100
AcDbArc
 50
229.9361789050013
 51
289.9361789050056
  0
ARC
  5
1010395
330
1F
100
AcDbEntity
  8
Layer1
  6
Continuous
100
AcDbCircle
 10
27.40683333348425
 20
16.49887861633232
 30
0.0
 40
2.532693372851184
100
AcDbArc
 50
237.9872357809994
 51
297.9872357810041
  0
ARC
  5
1010396
330
1F
100
AcDbEntity
  8
Layer1
  6
Continuous
100
AcDbCircle
 10
25.03563923795966
 20
16.66575035718829
 30
0.0
 40
2.532693372851184
100
AcDbArc
 50
233.9617073430085
 51
293.9617073430126
  0
ARC
  5
1010397
330
1F
100
AcDbEntity
  8
Layer1
  6
Continuous
100
AcDbCircle
 10
36.83316702671362
 20
17.49599618296153
 30
0.0
 40
2.532693372851184
100
AcDbArc
 50
254.0893495329854
 51
314.0893495329899
  0
ARC
  5
1010398
330
1F
100
AcDbEntity
  8
Layer1
  6
Continuous
100
AcDbCircle
 10
34.50871553603575
 20
16.99867045063678
 30
0.0
 40
2.532693372851184
100
AcDbArc
 50
250.0638210949944
 51
310.0638210949987
  0
ARC
  5
1010399
330
1F
100
AcDbEntity
  8
Layer1
  6
Continuous
100
AcDbCircle
 10
29.78389193952366
 20
16.49887861633232
 30
0.0
 40
2.532693372851184
100
AcDbArc
 50
242.012764218996
 51
302.0127642190005
  0
ARC
  5
101039A
330
1F
100
AcDbEntity
  8
Layer1
  6
Continuous
100
AcDbCircle
 10
32.15508603504825
 20
16.66575035718829
 30
0.0
 40
2.532693372851184
100
AcDbArc
 50
246.0382926569874
 51
306.0382926569915
  0
ARC
  5
10103A1
330
1F
100
AcDbEntity
  8
Layer1
  6
Continuous
100
AcDbCircle
 10
8.760426145965103
 20
14.42687486932682
 30
0.0
 40
2.500000000000032
100
AcDbArc
 50
149.9999999999996
 51
210.0
  0
ARC
  5
10103A3
330
1F
100
AcDbEntity
  8
Layer1
  6
Continuous
100
AcDbCircle
 10
8.760426145965103
 20
11.9268748693268
 30
0.0
 40
2.500000000000032
100
AcDbArc
 50
150.0
 51
210.0000000000004
  0
ARC
  5
10103A4
330
1F
100
AcDbEntity
  8
Layer1
  6
Continuous
100
AcDbCircle
 10
8.760426145964773
 20
1.92687486932716
 30
0.0
 40
2.500000000000032
100
AcDbArc
 50
149.9999999999979
 51
209.9999999999983
  0
ARC
  5
10103A5
330
1F
100
AcDbEntity
  8
Layer1
  6
Continuous
100
AcDbCircle
 10
8.760426145964865
 20
4.426874869327188
 30
0.0
 40
2.500000000000032
100
AcDbArc
 50
149.9999999999974
 51
209.9999999999979
  0
ARC
  5
10103A6
330
1F
100
AcDbEntity
  8
Layer1
  6
Continuous
100
AcDbCircle
 10
40.76042614596523
 20
14.42687486932682
 30
0.0
 40
2.500000000000032
100
AcDbArc
 50
149.9999999999996
 51
209.9999999999999
  0
ARC
  5
10103A7
330
1F
100
AcDbEntity
  8
Layer1
  6
Continuous
100
AcDbCircle
 10
40.76042614596523
 20
11.92687486932679
 30
0.0
 40
2.500000000000032
100
AcDbArc
 50
150.0
 51
210.0000000000004
  0
ARC
  5
10103A8
330
1F
100
AcDbEntity
  8
Layer1
  6
Continuous
100
AcDbCircle
 10
40.76042614596489
 20
1.926874869327155
 30
0.0
 40
2.500000000000032
100
AcDbArc
 50
149.9999999999979
 51
209.9999999999983
  0
ARC
  5
10103A9
330
1F
100
AcDbEntity
  8
Layer1
  6
Continuous
100
AcDbCircle
 10
40.76042614596498
 20
4.426874869327183
 30
0.0
 40
2.500000000000032
100
AcDbArc
 50
149.9999999999974
 51
209.9999999999978
  0
ARC
  5
10103B0
330
1F
100
AcDbEntity
  8
Layer1
  6
Continuous
100
AcDbCircle
 10
12.97693249691118
 20
14.30187486932687
 30
0.0
 40
2.749999999999999
100
AcDbArc
 50
150.0000000000001
 51
210.0
  0
ARC
  5
10103B5
330
1F
100
AcDbEntity
  8
Layer1
  6
Continuous
100
AcDbCircle
 10
12.97693249691118
 20
11.55187486932686
 30
0.0
 40
2.749999999999999
100
AcDbArc
 50
149.9999999999998
 51
209.9999999999998
  0
ARC
  5
10103B6
330
1F
100
AcDbEntity
  8
Layer1
  6
Continuous
100
AcDbCircle
 10
12.97693249691119
 20
0.5518748693268485
 30
0.0
 40
2.749999999999999
100
AcDbArc
 50
150.0
 51
210.0
  0
ARC
  5
10103B7
330
1F
100
AcDbEntity
  8
Layer1
  6
Continuous
100
AcDbCircle
 10
12.97693249691118
 20
8.801874869326859
 30
0.0
 40
2.749999999999999
100
AcDbArc
 50
150.0000000000002
 51
210.0000000000003
  0
ARC
  5
10103B9
330
1F
100
AcDbEntity
  8
Layer1
  6
Continuous
100
AcDbCircle
 10
44.97693249691118
 20
14.30187486932687
 30
0.0
 40
2.749999999999999
100
AcDbArc
 50
150.0000000000001
 51
210.0
  0
ARC
  5
10103BA
330
1F
100
AcDbEntity
  8
Layer1
  6
Continuous
100
AcDbCircle
 10
44.97693249691118
 20
11.55187486932686
 30
0.0
 40
2.749999999999999
100
AcDbArc
 50
149.9999999999998
 51
209.9999999999997
  0
ARC
  5
10103BB
330
1F
100
AcDbEntity
  8
Layer1
  6
Continuous
100
AcDbCircle
 10
44.97693249691119
 20
0.5518748693268485
 30
0.0
 40
2.749999999999999
100
AcDbArc
 50
150.0
 51
210.0
  0
ARC
  5
10103BC
330
1F
100
AcDbEntity
  8
Layer1
  6
Continuous
100
AcDbCircle
 10
44.97693249691118
 20
8.801874869326859
 30
0.0
 40
2.749999999999999
100
AcDbArc
 50
150.0000000000002
 51
210.0000000000002
  0
ARC
  5
10103BE
330
1F
100
AcDbEntity
  8
Layer1
  6
Continuous
100
AcDbCircle
 10
16.21379277609676
 20
14.30187486932686
 30
0.0
 40
2.749999999999999
100
AcDbArc
 50
330.0000000000001
 51
30.00000000000007
  0
ARC
  5
10103BF
330
1F
100
AcDbEntity
  8
Layer1
  6
Continuous
100
AcDbCircle
 10
16.21379277609677
 20
11.55187486932686
 30
0.0
 40
2.749999999999999
100
AcDbArc
 50
330.0000000000003
 51
30.00000000000027
  0
ARC
  5
10103C0
330
1F
100
AcDbEntity
  8
Layer1
  6
Continuous
100
AcDbCircle
 10
16.21379277609677
 20
0.5518748693268441
 30
0.0
 40
2.749999999999999
100
AcDbArc
 50
330.0000000000001
 51
30.00000000000012
  0
ARC
  5
10103C1
330
1F
100
AcDbEntity
  8
Layer1
  6
Continuous
100
AcDbCircle
 10
16.21379277609677
 20
8.801874869326855
 30
0.0
 40
2.749999999999999
100
AcDbArc
 50
329.9999999999999
 51
29.9999999999998
  0
ARC
  5
10103CD
330
1F
100
AcDbEntity
  8
Layer1
  6
Continuous
100
AcDbCircle
 10
48.10553960062378
 20
17.6143748693268
 30
0.0
 40
2.874999999999977
100
AcDbArc
 50
329.9999999999972
 51
29.99999999999995
  0
ARC
  5
10103CE
330
1F
100
AcDbEntity
  8
Layer1
  6
Continuous
100
AcDbCircle
 10
48.10553960062375
 20
20.4893748693267
 30
0.0
 40
2.874999999999977
100
AcDbArc
 50
330.0000000000015
 51
30.00000000000418
  0
ARC
  5
10103CF
330
1F
100
AcDbEntity
  8
Layer1
  6
Continuous
100
AcDbCircle
 10
48.10553960062373
 20
0.6143748693268965
 30
0.0
 40
2.874999999999977
100
AcDbArc
 50
329.9999999999965
 51
29.99999999999906
  0
ARC
  5
10103D0
330
1F
100
AcDbEntity
  8
Layer1
  6
Continuous
100
AcDbCircle
 10
48.10553960062373
 20
8.989374869326802
 30
0.0
 40
2.874999999999977
100
AcDbArc
 50
330.000000000001
 51
30.0000000000033
  0
ARC
  5
10103D1
330
1F
100
AcDbEntity
  8
Layer1
  6
Continuous
100
AcDbCircle
 10
48.10553960062378
 20
14.73937486932689
 30
0.0
 40
2.874999999999977
100
AcDbArc
 50
330.0000000000001
 51
30.00000000000282
  0
ARC
  5
10103D2
330
1F
100
AcDbEntity
  8
Layer1
  6
Continuous
100
AcDbCircle
 10
48.10553960062375
 20
11.86437486932699
 30
0.0
 40
2.874999999999977
100
AcDbArc
 50
329.9999999999958
 51
29.99999999999857
  0
ARC
  5
10103E8
330
1F
100
AcDbEntity
  8
Layer1
  6
Continuous
100
AcDbCircle
 10
45.46103366875696
 20
24.70859201699977
 30
0.0
 40
4.129121228463897
100
AcDbArc
 50
16.55170259043217
 51
76.55170259043226
  0
ARC
  5
10103EA
330
1F
100
AcDbEntity
  8
Layer1
  6
Continuous
100
AcDbCircle
 10
46.57946116474406
 20
22.88717559746796
 30
0.0
 40
4.129121228463896
100
AcDbArc
 50
346.5517025904328
 51
46.55170259043287
  0
CIRCLE
  5
10103EE
330
1F
100
AcDbEntity
  8
Layer1
  6
Continuous
100
AcDbCircle
 10
53.4349581982267
 20
24.92459719889565
 30
0.0
 40
3.022726529846773
  0
ARC
  5
10103F2
330
1F
100
AcDbEntity
  8
Layer1
  6
Continuous
100
AcDbCircle
 10
8.760426145965112
 20
9.426874869326745
 30
0.0
 40
2.500000000000032
100
AcDbArc
 50
149.9999999999996
 51
210.0
  0
ARC
  5
10103F3
330
1F
100
AcDbEntity
  8
Layer1
  6
Continuous
100
AcDbCircle
 10
8.760426145965112
 20
6.926874869326717
 30
0.0
 40
2.500000000000032
100
AcDbArc
 50
150.0
 51
210.0000000000004
  0
ARC
  5
10103F4
330
1F
100
AcDbEntity
  8
Layer1
  6
Continuous
100
AcDbCircle
 10
40.76042614596524
 20
9.426874869326741
 30
0.0
 40
2.500000000000032
100
AcDbArc
 50
149.9999999999995
 51
209.9999999999999
  0
ARC
  5
10103F5
330
1F
100
AcDbEntity
  8
Layer1
  6
Continuous
100
AcDbCircle
 10
40.76042614596524
 20
6.926874869326713
 30
0.0
 40
2.500000000000032
100
AcDbArc
 50
150.0
 51
210.0000000000005
  0
ARC
  5
10103F6
330
1F
100
AcDbEntity
  8
Layer1
  6
Continuous
100
AcDbCircle
 10
12.97693249691118
 20
6.051874869326856
 30
0.0
 40
2.749999999999999
100
AcDbArc
 50
149.9999999999998
 51
209.9999999999998
  0
ARC
  5
10103F7
330
1F
100
AcDbEntity
  8
Layer1
  6
Continuous
100
AcDbCircle
 10
12.97693249691118
 20
3.301874869326851
 30
0.0
 40
2.749999999999999
100
AcDbArc
 50
150.0000000000002
 51
210.0000000000002
  0
ARC
  5
10103F8
330
1F
100
AcDbEntity
  8
Layer1
  6
Continuous
100
AcDbCircle
 10
44.97693249691118
 20
6.051874869326848
 30
0.0
 40
2.749999999999999
100
AcDbArc
 50
149.9999999999998
 51
209.9999999999997
  0
ARC
  5
10103F9
330
1F
100
AcDbEntity
  8
Layer1
  6
Continuous
100
AcDbCircle
 10
44.97693249691118
 20
3.301874869326843
 30
0.0
 40
2.749999999999999
100
AcDbArc
 50
150.0000000000002
 51
210.0000000000002
  0
ARC
  5
10103FA
330
1F
100
AcDbEntity
  8
Layer1
  6
Continuous
100
AcDbCircle
 10
16.21379277609678
 20
6.051874869326841
 30
0.0
 40
2.749999999999999
100
AcDbArc
 50
330.0000000000003
 51
30.00000000000029
  0
ARC
  5
10103FB
330
1F
100
AcDbEntity
  8
Layer1
  6
Continuous
100
AcDbCircle
 10
16.21379277609678
 20
3.301874869326837
 30
0.0
 40
2.749999999999999
100
AcDbArc
 50
329.9999999999999
 51
29.99999999999978
  0
ARC
  5
10103FC
330
1F
100
AcDbEntity
  8
Layer1
  6
Continuous
100
AcDbCircle
 10
48.21379277609679
 20
6.176874869326845
 30
0.0
 40
2.749999999999999
100
AcDbArc
 50
330.0000000000003
 51
30.00000000000035
  0
ARC
  5
10103FD
330
1F
100
AcDbEntity
  8
Layer1
  6
Continuous
100
AcDbCircle
 10
48.21379277609679
 20
3.426874869326842
 30
0.0
 40
2.749999999999999
100
AcDbArc
 50
329.9999999999998
 51
29.9999999999998
  0
LINE
  5
10103FE
330
1F
100
AcDbEntity
  8
Layer1
  6
Continuous
100
AcDbLine
 10
6.595362636503612
 20
0.6768748693272072
 30
0.0
 11
10.22977487493171
 21
0.6768748693272072
 31
0.0
  0
LINE
  5
10103FF
330
1F
100
AcDbEntity
  8
Layer1
  6
Continuous
100
AcDbLine
 10
38.59536263650373
 20
0.6768748693272027
 30
0.0
 11
42.22977487493172
 21
0.6768748693272027
 31
0.0
  0
LINE
  5
1010403
330
1F
100
AcDbEntity
  8
AlpacaFig
  6
Continuous
100
AcDbLine
 10
14.58268765948361
 20
28.40631899085516
 30
0.0
 11
16.41462250908495
 21
26.80024190069888
 31
0.0
  0
LINE
  5
101040B
330
1F
100
AcDbEntity
  8
AlpacaFig
  6
Continuous
100
AcDbLine
 10
16.40125504942162
 20
17.08024190069881
 30
0.0
 11
16.40125504942158
 21
3.715241900698899
 31
0.0
  0
LINE
  5
1010435
330
1F
100
AcDbEntity
  8
AlpacaFig
  6
Continuous
100
AcDbLine
 10
16.40125504942158
 20
3.715241900698899
 30
0.0
 11
11.54125504942158
 21
3.71524190069889
 31
0.0
  0
ARC
  5
1010436
330
1F
100
AcDbEntity
  8
AlpacaFig
  6
Continuous
100
AcDbCircle
 10
8.30125504942158
 20
5.74024190069918
 30
0.0
 40
0.8100000000000003
100
AcDbArc
 50
90.0
 51
270.0
  0
LINE
  5
1010438
330
1F
100
AcDbEntity
  8
AlpacaFig
  6
Continuous
100
AcDbLine
 10
8.30125504942158
 20
6.55024190069918
 30
0.0
 11
8.301255049421582
 21
17.08024190069872
 31
0.0
  0
ARC
  5
1010439
330
1F
100
AcDbEntity
  8
AlpacaFig
  6
Continuous
100
AcDbCircle
 10
11.54125504942158
 20
4.52524190069889
 30
0.0
 40
0.8100000000000003
100
AcDbArc
 50
90.0
 51
270.0
  0
LINE
  5
101043A
330
1F
100
AcDbEntity
  8
AlpacaFig
  6
Continuous
100
AcDbLine
 10
11.54125504942158
 20
5.335241900698891
 30
0.0
 11
11.54125504942158
 21
17.08024190069881
 31
0.0
  0
LINE
  5
101043B
330
1F
100
AcDbEntity
  8
AlpacaFig
  6
Continuous
100
AcDbLine
 10
8.30125504942158
 20
4.93024190069918
 30
0.0
 11
10.83977447235635
 21
4.93024190069918
 31
0.0
  0
LINE
  5
101043C
330
1F
100
AcDbEntity
  8
AlpacaFig
  6
Continuous
100
AcDbLine
 10
39.08125504942201
 20
3.715241900699285
 30
0.0
 11
34.22125504942199
 21
3.715241900699276
 31
0.0
  0
ARC
  5
101043D
330
1F
100
AcDbEntity
  8
AlpacaFig
  6
Continuous
100
AcDbCircle
 10
30.981255049422
 20
5.740241900699566
 30
0.0
 40
0.8100000000000003
100
AcDbArc
 50
90.0
 51
270.0
  0
LINE
  5
101043E
330
1F
100
AcDbEntity
  8
AlpacaFig
  6
Continuous
100
AcDbLine
 10
30.981255049422
 20
6.550241900699567
 30
0.0
 11
30.981255049422
 21
17.08024190069911
 31
0.0
  0
ARC
  5
101043F
330
1F
100
AcDbEntity
  8
AlpacaFig
  6
Continuous
100
AcDbCircle
 10
34.22125504942199
 20
4.525241900699277
 30
0.0
 40
0.8100000000000003
100
AcDbArc
 50
90.0
 51
270.0
  0
LINE
  5
1010440
330
1F
100
AcDbEntity
  8
AlpacaFig
  6
Continuous
100
AcDbLine
 10
34.22125504942199
 20
5.335241900699277
 30
0.0
 11
34.22125504942199
 21
17.0802419006992
 31
0.0
  0
LINE
  5
1010441
330
1F
100
AcDbEntity
  8
AlpacaFig
  6
Continuous
100
AcDbLine
 10
30.981255049422
 20
4.930241900699566
 30
0.0
 11
33.51977447235677
 21
4.930241900699566
 31
0.0
  0
ARC
  5
1010453
330
1F
100
AcDbEntity
  8
AlpacaFig
  6
Continuous
100
AcDbCircle
 10
23.69125504942156
 20
42.33354267505399
 30
0.0
 40
26.28446879813323
100
AcDbArc
 50
253.8978862480147
 51
286.1021137519865
  0
ARC
  5
1010458
330
1F
100
AcDbEntity
  8
AlpacaFig
  6
Continuous
100
AcDbCircle
 10
32.79826387689779
 20
21.82590135407259
 30
0.0
 40
6.35062071928041
100
AcDbArc
 50
8.369199987021151
 51
68.36919998702093
  0
ARC
  5
101045A
330
1F
100
AcDbEntity
  8
AlpacaFig
  6
Continuous
100
AcDbCircle
 10
27.74793877925344
 20
-12.45951729565879
 30
0.0
 40
40.8628529331428
100
AcDbArc
 50
79.57891370007017
 51
106.102113751986
  0
LINE
  5
101045B
330
1F
100
AcDbEntity
  8
AlpacaFig
  6
Continuous
100
AcDbLine
 10
39.08125504942193
 20
22.7502419006989
 30
0.0
 11
39.08125504942201
 21
3.715241900699285
 31
0.0
  0
LINE
  5
101046F
330
1F
100
AcDbEntity
  8
AlpacaFig
  6
Continuous
100
AcDbLine
 10
5.662664530270999
 20
37.07591411357848
 30
0.0
 11
8.301255049421582
 21
17.08024190069872
 31
0.0
  0
LINE
  5
1010473
330
1F
100
AcDbEntity
  8
AlpacaFig
  6
Continuous
100
AcDbLine
 10
13.30557895849165
 20
38.0844584292825
 30
0.0
 11
14.58268765948361
 21
28.40631899085516
 31
0.0
  0
LINE
  5
1010474
330
1F
100
AcDbEntity
  8
aa
  6
Continuous
100
AcDbLine
 10
7.569287178755175
 20
44.67150293291726
 30
0.0
 11
19.51760747310992
 21
46.24818034154929
 31
0.0
  0
LINE
  5
1010475
330
1F
100
AcDbEntity
  8
aa
  6
Continuous
100
AcDbLine
 10
7.569287178755175
 20
44.67150293291726
 30
0.0
 11
21.49024901713399
 21
44.67150293291726
 31
0.0
  0
LINE
  5
1010479
330
1F
100
AcDbEntity
  8
aa
  6
Continuous
100
AcDbLine
 10
7.569287178755175
 20
44.67150293291726
 30
0.0
 11
18.20395413650864
 21
45.37013984681101
 31
0.0
  0
ARC
  5
101047B
330
1F
100
AcDbEntity
  8
AlpacaFig
  6
Continuous
100
AcDbCircle
 10
9.090133928645043
 20
40.56589063220712
 30
0.0
 40
4.891572607799036
100
AcDbArc
 50
329.5166997344139
 51
28.49954374419306
  0
ARC
  5
101047E
330
1F
100
AcDbEntity
  8
AlpacaFig
  6
Continuous
100
AcDbCircle
 10
9.090133928645043
 20
40.56589063220712
 30
0.0
 40
4.891572607799036
100
AcDbArc
 50
159.0176658778796
 51
225.5177195097314
  0
CIRCLE
  5
1010485
330
1F
100
AcDbEntity
  8
AlpacaFig
  6
Continuous
100
AcDbCircle
 10
39.59978590565078
 20
27.21077073831617
 30
0.0
 40
2.324488513056424
  0
ENDSEC
  0
SECTION
  2
OBJECTS
  0
DICTIONARY
  5
C
330
0
100
AcDbDictionary
281
     1
  3
ACAD_CIP_PREVIOUS_PRODUCT_INFO
350
101005A
  3
ACAD_COLOR
350
1010036
  3
ACAD_DETAILVIEWSTYLE
350
1010050
  3
ACAD_GROUP
350
D
  3
ACAD_LAYOUT
350
1010053
  3
ACAD_MATERIAL
350
1010004
  3
ACAD_MLEADERSTYLE
350
101004C
  3
ACAD_MLINESTYLE
350
17
  3
ACAD_PLOTSETTINGS
350
1010054
  3
ACAD_PLOTSTYLENAME
350
1010002
  3
ACAD_SCALELIST
350
101003A
  3
ACAD_SECTIONVIEWSTYLE
350
101004E
  3
ACAD_TABLESTYLE
350
1010037
  3
ACAD_VISUALSTYLE
350
101001D
  3
ACDB_RECOMPOSE_DATA
350
101049B
  3
AcDbVariableDictionary
350
101007C
  0
DICTIONARY
  5
1010060
330
2
100
AcDbDictionary
280
     1
281
     1
  3
ACAD_LAYERSTATES
360
1010061
  0
DICTIONARY
  5
101005B
330
50
100
AcDbDictionary
280
     1
281
     1
  3
ADSK_XREC_LAYER_RECONCILED
360
101005C
  0
DICTIONARY
  5
10101AD
330
1F
100
AcDbDictionary
280
     1
281
     1
  3
ACAD_SORTENTS
360
10101AE
  0
XRECORD
  5
101005A
102
{ACAD_REACTORS
330
C
102
}
330
C
100
AcDbXrecord
280
     1
300
ACDMAC
300
2017
300
ACDMAC_F_S
  0
DICTIONARY
  5
1010036
102
{ACAD_REACTORS
330
C
102
}
330
C
100
AcDbDictionary
281
     1
  0
DICTIONARY
  5
1010050
102
{ACAD_REACTORS
330
C
102
}
330
C
100
AcDbDictionary
281
     1
  3
Imperial24
350
1010051
  0
DICTIONARY
  5
D
330
C
100
AcDbDictionary
281
     1
  0
DICTIONARY
  5
1010053
102
{ACAD_REACTORS
330
C
102
}
330
C
100
AcDbDictionary
281
     1
  3
Layout1
350
1010056
  3
Model
350
1010055
  0
DICTIONARY
  5
1010004
102
{ACAD_REACTORS
330
C
102
}
330
C
100
AcDbDictionary
281
     1
  3
ByBlock
350
101000D
  3
ByLayer
350
1010005
  3
Global
350
1010015
  0
DICTIONARY
  5
101004C
102
{ACAD_REACTORS
330
C
102
}
330
C
100
AcDbDictionary
281
     1
  3
Standard
350
101004D
  0
DICTIONARY
  5
17
330
C
100
AcDbDictionary
281
     1
  3
Standard
350
1010039
  0
DICTIONARY
  5
1010054
102
{ACAD_REACTORS
330
C
102
}
330
C
100
AcDbDictionary
281
     1
  0
ACDBDICTIONARYWDFLT
  5
1010002
102
{ACAD_REACTORS
330
C
102
}
330
C
100
AcDbDictionary
281
     1
  3
Normal
350
1010003
100
AcDbDictionaryWithDefault
340
1010003
  0
DICTIONARY
  5
101003A
102
{ACAD_REACTORS
330
C
102
}
330
C
100
AcDbDictionary
281
     1
  3
A0
350
101003B
  3
A1
350
101003C
  3
A2
350
101003D
  3
A3
350
101003E
  3
A4
350
101003F
  3
A5
350
1010040
  3
A6
350
1010041
  3
A7
350
1010042
  3
A8
350
1010043
  3
A9
350
1010044
  3
B0
350
1010045
  3
B1
350
1010046
  3
B2
350
1010047
  3
B3
350
1010048
  3
B4
350
1010049
  3
B5
350
101004A
  3
B6
350
101004B
  0
DICTIONARY
  5
101004E
102
{ACAD_REACTORS
330
C
102
}
330
C
100
AcDbDictionary
281
     1
  3
Imperial24
350
101004F
  0
DICTIONARY
  5
1010037
102
{ACAD_REACTORS
330
C
102
}
330
C
100
AcDbDictionary
281
     1
  3
Standard
350
1010038
  0
DICTIONARY
  5
101001D
102
{ACAD_REACTORS
330
C
102
}
330
C
100
AcDbDictionary
281
     1
  3
2dWireframe
350
1010023
  3
Basic
350
1010022
  3
Brighten
350
1010029
  3
ColorChange
350
101002D
  3
Conceptual
350
1010026
  3
Dim
350
1010028
  3
EdgeColorOff
350
1010035
  3
Facepattern
350
101002C
  3
Flat
350
101001E
  3
FlatWithEdges
350
101001F
  3
Gouraud
350
1010020
  3
GouraudWithEdges
350
1010021
  3
Hidden
350
1010025
  3
JitterOff
350
1010033
  3
Linepattern
350
101002B
  3
OverhangOff
350
1010034
  3
Realistic
350
1010027
  3
Shaded
350
1010032
  3
Shaded with edges
350
1010031
  3
Shades of Gray
350
101002E
  3
Sketchy
350
101002F
  3
Thicken
350
101002A
  3
Wireframe
350
1010024
  3
X-Ray
350
1010030
  0
XRECORD
  5
101049B
102
{ACAD_REACTORS
330
C
102
}
330
C
100
AcDbXrecord
280
     1
 90
        1
330
1010038
330
101004F
330
1010051
  0
DICTIONARY
  5
101007C
102
{ACAD_REACTORS
330
C
102
}
330
C
100
AcDbDictionary
281
     1
  3
CANNOSCALE
350
1010082
  3
CMLEADERSTYLE
350
101007E
  3
CTABLESTYLE
350
101007D
  3
CVIEWDETAILSTYLE
350
101007F
  3
CVIEWSECTIONSTYLE
350
1010080
  3
LAYEREVAL
350
1010084
  3
LAYERNOTIFY
350
1010085
  3
LIGHTINGUNITS
350
1010083
  3
MSLTSCALE
350
1010081
  0
DICTIONARY
  5
1010061
102
{ACAD_REACTORS
330
1010060
102
}
330
1010060
100
AcDbDictionary
281
     1
  0
XRECORD
  5
101005C
102
{ACAD_REACTORS
330
101005B
102
}
330
101005B
100
AcDbXrecord
280
     1
290
     1
  0
SORTENTSTABLE
  5
10101AE
102
{ACAD_REACTORS
330
10101AD
102
}
330
10101AD
100
AcDbSortentsTable
330
1F
331
1010475
  5
1010475
331
1010436
  5
1010436
331
101037E
  5
101037E
331
1010132
  5
1010132
331
10100DB
  5
10100DB
331
10100DF
  5
10100DF
331
1010136
  5
1010136
331
10100E3
  5
10100E3
331
10102C0
  5
10102C0
331
10100E7
  5
10100E7
331
10102C4
  5
10102C4
331
10102CC
  5
10102CC
331
1010253
  5
1010253
331
1010257
  5
1010257
331
10103C1
  5
10103C1
331
101025B
  5
101025B
331
10103CD
  5
10103CD
331
1010479
  5
1010479
331
101043A
  5
101043A
331
101043E
  5
101043E
331
101034F
  5
101034F
331
1010392
  5
1010392
331
1010353
  5
1010353
331
1010396
  5
1010396
331
10100EB
  5
10100EB
331
10100EF
  5
10100EF
331
101015E
  5
101015E
331
1010162
  5
1010162
331
101009B
  5
101009B
331
10102D0
  5
10102D0
331
101009F
  5
101009F
331
1010166
  5
1010166
331
1010220
  5
1010220
331
1010224
  5
1010224
331
1010228
  5
1010228
331
10103D1
  5
10103D1
331
101022C
  5
101022C
331
101039A
  5
101039A
331
1010178
  5
1010178
331
101016A
  5
101016A
331
1010117
  5
1010117
331
101016E
  5
101016E
331
101011B
  5
101011B
331
100
  5
100
331
101011F
  5
101011F
331
104
  5
104
331
108
  5
108
331
1010230
  5
1010230
331
1010171
  5
1010171
331
1010234
  5
1010234
331
1010238
  5
1010238
331
101023C
  5
101023C
331
10103A6
  5
10103A6
331
101045A
  5
101044E
331
10100CC
  5
10100CC
331
1010123
  5
1010123
331
1010127
  5
1010127
331
10100D0
  5
10100D0
331
101012B
  5
101012B
331
110
  5
110
331
10100D4
  5
10100D4
331
10102B1
  5
10102B1
331
101012F
  5
101012F
331
114
  5
114
331
10102B5
  5
10102B5
331
118
  5
118
331
10102B9
  5
10102B9
331
10102BD
  5
10102BD
331
1010240
  5
1010240
331
1010244
  5
1010244
331
1010248
  5
1010248
331
101024C
  5
101024C
331
10103F5
  5
10103F5
331
10103B6
  5
10103B6
331
10103F9
  5
10103F9
331
10103BA
  5
10103BA
331
10103FD
  5
10103FD
331
10103BE
  5
10103BE
331
101037B
  5
101037B
331
101037F
  5
101037F
331
10100D8
  5
10100D8
331
10100DC
  5
10100DC
331
1010133
  5
1010133
331
10100E0
  5
10100E0
331
1010137
  5
1010137
331
120
  5
120
331
10100E4
  5
10100E4
331
10102C1
  5
10102C1
331
10102C5
  5
10102C5
331
10102C9
  5
10102C9
331
10102CD
  5
10102CD
331
1010250
  5
1010250
331
1010254
  5
1010254
331
1010258
  5
1010258
331
1010201
  5
1010201
331
101025C
  5
101025C
331
10103CE
  5
10103CE
331
101043B
  5
101043B
331
101047E
  5
101047D
331
101043F
  5
101043F
331
101034C
  5
101034C
331
1010350
  5
1010350
331
1010354
  5
1010354
331
10100E8
  5
10100E8
331
1010397
  5
1010397
331
10100EC
  5
10100EC
331
10100F0
  5
10100F0
331
101015F
  5
101015F
331
1010163
  5
1010163
331
101009C
  5
101009C
331
10102D1
  5
10102D1
331
1010167
  5
1010167
331
1010221
  5
1010221
331
1010225
  5
1010225
331
1010229
  5
1010229
331
10103D2
  5
10103D2
331
101022D
  5
101022D
331
1010453
  5
1010458
331
10100A0
  5
10100A0
331
101016B
  5
101016B
331
1010118
  5
1010118
331
101016F
  5
101016F
331
101021D
  5
101021D
331
101011C
  5
101011C
331
101
  5
101
331
105
  5
105
331
109
  5
109
331
1010231
  5
1010231
331
1010172
  5
1010172
331
1010235
  5
1010235
331
1010176
  5
1010176
331
1010239
  5
1010239
331
10103A3
  5
10103A3
331
101023D
  5
101023D
331
10103A7
  5
10103A7
331
10103EA
  5
10103EA
331
10103EE
  5
10103EE
331
101045B
  5
101045B
331
101032D
  5
101032D
331
1010374
  5
1010374
331
1010335
  5
1010335
331
1010120
  5
1010120
331
10100CD
  5
10100CD
331
1010124
  5
1010124
331
1010128
  5
1010128
331
10100D1
  5
10100D1
331
101012C
  5
101012C
331
111
  5
111
331
10100D5
  5
10100D5
331
10102B2
  5
10102B2
331
115
  5
115
331
10102B6
  5
10102B6
331
119
  5
119
331
10102BA
  5
10102BA
331
10102BE
  5
10102BE
331
1010241
  5
1010241
331
1010245
  5
1010245
331
1010249
  5
1010249
331
10103F2
  5
10103F2
331
101024D
  5
101024D
331
10103F6
  5
10103F6
331
10103B7
  5
10103B7
331
10103FA
  5
10103FA
331
10103BB
  5
10103BB
331
10103FE
  5
10103FE
331
10103BF
  5
10103BF
331
101046F
  5
1010471
331
1010473
  5
1010473
331
101037C
  5
101037C
331
1010380
  5
1010380
331
1010130
  5
1010130
331
10100D9
  5
10100D9
331
10100DD
  5
10100DD
331
1010134
  5
1010134
331
1010138
  5
1010138
331
10100E1
  5
10100E1
331
121
  5
121
331
10100E5
  5
10100E5
331
10102CA
  5
10102CA
331
10102CE
  5
10102CE
331
1010251
  5
1010251
331
1010255
  5
1010255
331
1010259
  5
1010259
331
10103CF
  5
10103CF
331
1010438
  5
1010438
331
101047B
  5
101047B
331
101043C
  5
101043C
331
1010440
  5
1010440
331
1010394
  5
1010394
331
10100E9
  5
10100E9
331
10100ED
  5
10100ED
331
101015C
  5
101015C
331
1010160
  5
1010160
331
1010164
  5
1010164
331
101009D
  5
101009D
331
1010222
  5
1010222
331
1010226
  5
1010226
331
101022A
  5
101022A
331
101022E
  5
101022E
331
1010398
  5
1010398
331
10100A1
  5
10100A1
331
101017A
  5
101017A
331
1010168
  5
1010168
331
101017E
  5
101017E
331
101016C
  5
101016C
331
1010119
  5
1010119
331
101021E
  5
101021E
331
101011D
  5
101011D
331
102
  5
102
331
106
  5
106
331
1010232
  5
1010232
331
1010173
  5
1010173
331
1010236
  5
1010236
331
1010177
  5
1010177
331
101023A
  5
101023A
331
10101CB
  5
10101AB
331
10103A4
  5
10103A4
331
101023E
  5
101023E
331
10103A8
  5
10103A8
331
1010458
  5
101045A
331
1010285
  5
1010285
331
1010121
  5
1010121
331
10100CE
  5
10100CE
331
1010125
  5
1010125
331
1010129
  5
1010129
331
10100D2
  5
10100D2
331
101012D
  5
101012D
331
112
  5
112
331
10100D6
  5
10100D6
331
10102B3
  5
10102B3
331
116
  5
116
331
10102B7
  5
10102B7
331
10102BB
  5
10102BB
331
10102BF
  5
10102BF
331
1010242
  5
1010242
331
1010246
  5
1010246
331
10103B0
  5
10103B0
331
101024A
  5
101024A
331
10103F3
  5
10103F3
331
101024E
  5
101024E
331
10103F7
  5
10103F7
331
10103FB
  5
10103FB
331
10103BC
  5
10103BC
331
10103FF
  5
10103FF
331
1010474
  5
1010474
331
1010435
  5
1010435
331
101037D
  5
101037D
331
1010381
  5
1010381
331
1010131
  5
1010131
331
10100DA
  5
10100DA
331
10100DE
  5
10100DE
331
1010135
  5
1010135
331
10100E2
  5
10100E2
331
122
  5
122
331
10100E6
  5
10100E6
331
10102C3
  5
10102C3
331
10102CB
  5
10102CB
331
10102CF
  5
10102CF
331
1010252
  5
1010252
331
1010256
  5
1010256
331
10103C0
  5
10103C0
331
101025A
  5
101025A
331
1010403
  5
1010403
331
101040B
  5
101040F
331
1010439
  5
1010439
331
101043D
  5
101043D
331
1010441
  5
1010441
331
101034E
  5
101034E
331
1010352
  5
1010352
331
1010395
  5
1010395
331
10100EA
  5
10100EA
331
10100EE
  5
10100EE
331
101015D
  5
101015D
331
1010161
  5
1010161
331
101009A
  5
101009A
331
1010165
  5
1010165
331
101009E
  5
101009E
331
1010223
  5
1010223
331
1010227
  5
1010227
331
10103D0
  5
10103D0
331
101022B
  5
101022B
331
101022F
  5
101022F
331
1010399
  5
1010399
331
10100A2
  5
10100A2
331
1010169
  5
1010169
331
101016D
  5
101016D
331
101011A
  5
101011A
331
101021F
  5
101021F
331
101011E
  5
101011E
331
103
  5
103
331
107
  5
107
331
1010170
  5
1010170
331
1010233
  5
1010233
331
1010174
  5
1010174
331
1010237
  5
1010237
331
10103A1
  5
10103A1
331
101023B
  5
101023B
331
10103A5
  5
10103A5
331
101023F
  5
101023F
331
10103E8
  5
10103E8
331
10103A9
  5
10103A9
331
101032B
  5
101032B
331
1010333
  5
1010333
331
1010122
  5
1010122
331
10100CF
  5
10100CF
331
1010126
  5
1010126
331
101012A
  5
101012A
331
10100D3
  5
10100D3
331
101012E
  5
101012E
331
113
  5
113
331
10100D7
  5
10100D7
331
10102B4
  5
10102B4
331
117
  5
117
331
10102B8
  5
10102B8
331
10102BC
  5
10102BC
331
1010243
  5
1010243
331
1010247
  5
1010247
331
101024B
  5
101024B
331
10101F4
  5
10101E9
331
10103F4
  5
10103F4
331
10103B5
  5
10103B5
331
101024F
  5
101024F
331
10103F8
  5
10103F8
331
10103B9
  5
10103B9
331
10103FC
  5
10103FC
  0
ACDBDETAILVIEWSTYLE
  5
1010051
102
{ACAD_XDICTIONARY
360
1010278
102
}
102
{ACAD_REACTORS
330
1010050
102
}
330
1010050
100
AcDbModelDocViewStyle
 70
     0
  3
Imperial24
290
     0
100
AcDbDetailViewStyle
 70
     0
 71
     0
 90
        3
 71
     1
340
11
 62
   256
 40
0.24
340
0
 62
   256
 40
0.24
300

 40
0.36
280
     3
 71
     2
340
0
 90
       25
 62
   256
 71
     3
340
11
 62
   256
 40
0.24
 90
        1
 40
0.75
 90
        1
300
%<\AcVar ViewType \f "%tc1">% %<\AcVar ViewDetailId>%\PSCALE %<\AcVar ViewScale \f "%sn">%
 71
     4
340
0
 90
       25
 62
   256
340
0
 90
       25
 62
   256
280
     0
  0
LAYOUT
  5
1010056
102
{ACAD_REACTORS
330
1010053
102
}
330
1010053
100
AcDbPlotSettings
  1

  2

  4

  6

 40
0.0
 41
0.0
 42
0.0
 43
0.0
 44
0.0
 45
0.0
 46
0.0
 47
0.0
 48
0.0
 49
0.0
140
0.0
141
0.0
142
1.0
143
1.0
 70
   688
 72
     0
 73
     0
 74
     5
  7

 75
    16
147
1.0
 76
     0
 77
     2
 78
   300
148
0.0
149
0.0
100
AcDbLayout
  1
Layout1
 70
     1
 71
     1
 10
0.0
 20
0.0
 11
12.0
 21
9.0
 12
0.0
 22
0.0
 32
0.0
 14
1.000000000000000E+20
 24
1.000000000000000E+20
 34
1.000000000000000E+20
 15
-1.000000000000000E+20
 25
-1.000000000000000E+20
 35
-1.000000000000000E+20
146
0.0
 13
0.0
 23
0.0
 33
0.0
 16
1.0
 26
0.0
 36
0.0
 17
0.0
 27
1.0
 37
0.0
 76
     0
330
1B
  0
LAYOUT
  5
1010055
102
{ACAD_REACTORS
330
1010053
102
}
330
1010053
100
AcDbPlotSettings
  1

  2

  4

  6

 40
0.0
 41
0.0
 42
0.0
 43
0.0
 44
0.0
 45
0.0
 46
0.0
 47
0.0
 48
0.0
 49
0.0
140
0.0
141
0.0
142
1.0
143
1.0
 70
  1712
 72
     0
 73
     0
 74
     0
  7

 75
     0
147
1.0
 76
     0
 77
     2
 78
   300
148
0.0
149
0.0
100
AcDbLayout
  1
Model
 70
     1
 71
     0
 10
0.0
 20
0.0
 11
12.0
 21
9.0
 12
0.0
 22
0.0
 32
0.0
 14
0.0
 24
0.0
 34
0.0
 15
0.0
 25
0.0
 35
0.0
146
0.0
 13
0.0
 23
0.0
 33
0.0
 16
1.0
 26
0.0
 36
0.0
 17
0.0
 27
1.0
 37
0.0
 76
     0
330
1F
331
1010059
  0
MATERIAL
  5
101000D
102
{ACAD_XDICTIONARY
360
101000E
102
}
102
{ACAD_REACTORS
330
1010004
102
}
330
1010004
100
AcDbMaterial
  1
ByBlock
 72
     0
 43
0.0008202099737533
 43
0.0
 43
0.0
 43
0.0
 43
0.0
 43
0.0008202099737533
 43
0.0
 43
0.0
 43
0.0
 43
0.0
 43
1.0
 43
0.0
 43
0.0
 43
0.0
 43
0.0
 43
1.0
 77
     0
 47
0.0008202099737533
 47
0.0
 47
0.0
 47
0.0
 47
0.0
 47
0.0008202099737533
 47
0.0
 47
0.0
 47
0.0
 47
0.0
 47
1.0
 47
0.0
 47
0.0
 47
0.0
 47
0.0
 47
1.0
171
     0
 49
0.0008202099737533
 49
0.0
 49
0.0
 49
0.0
 49
0.0
 49
0.0008202099737533
 49
0.0
 49
0.0
 49
0.0
 49
0.0
 49
1.0
 49
0.0
 49
0.0
 49
0.0
 49
0.0
 49
1.0
175
     0
142
0.0008202099737533
142
0.0
142
0.0
142
0.0
142
0.0
142
0.0008202099737533
142
0.0
142
0.0
142
0.0
142
0.0
142
1.0
142
0.0
142
0.0
142
0.0
142
0.0
142
1.0
179
     0
144
0.0008202099737533
144
0.0
144
0.0
144
0.0
144
0.0
144
0.0008202099737533
144
0.0
144
0.0
144
0.0
144
0.0
144
1.0
144
0.0
144
0.0
144
0.0
144
0.0
144
1.0
147
0.0008202099737533
147
0.0
147
0.0
147
0.0
147
0.0
147
0.0008202099737533
147
0.0
147
0.0
147
0.0
147
0.0
147
1.0
147
0.0
147
0.0
147
0.0
147
0.0
147
1.0
  0
MATERIAL
  5
1010005
102
{ACAD_XDICTIONARY
360
1010006
102
}
102
{ACAD_REACTORS
330
1010004
102
}
330
1010004
100
AcDbMaterial
  1
ByLayer
 72
     0
 43
0.0008202099737533
 43
0.0
 43
0.0
 43
0.0
 43
0.0
 43
0.0008202099737533
 43
0.0
 43
0.0
 43
0.0
 43
0.0
 43
1.0
 43
0.0
 43
0.0
 43
0.0
 43
0.0
 43
1.0
 77
     0
 47
0.0008202099737533
 47
0.0
 47
0.0
 47
0.0
 47
0.0
 47
0.0008202099737533
 47
0.0
 47
0.0
 47
0.0
 47
0.0
 47
1.0
 47
0.0
 47
0.0
 47
0.0
 47
0.0
 47
1.0
171
     0
 49
0.0008202099737533
 49
0.0
 49
0.0
 49
0.0
 49
0.0
 49
0.0008202099737533
 49
0.0
 49
0.0
 49
0.0
 49
0.0
 49
1.0
 49
0.0
 49
0.0
 49
0.0
 49
0.0
 49
1.0
175
     0
142
0.0008202099737533
142
0.0
142
0.0
142
0.0
142
0.0
142
0.0008202099737533
142
0.0
142
0.0
142
0.0
142
0.0
142
1.0
142
0.0
142
0.0
142
0.0
142
0.0
142
1.0
179
     0
144
0.0008202099737533
144
0.0
144
0.0
144
0.0
144
0.0
144
0.0008202099737533
144
0.0
144
0.0
144
0.0
144
0.0
144
1.0
144
0.0
144
0.0
144
0.0
144
0.0
144
1.0
147
0.0008202099737533
147
0.0
147
0.0
147
0.0
147
0.0
147
0.0008202099737533
147
0.0
147
0.0
147
0.0
147
0.0
147
1.0
147
0.0
147
0.0
147
0.0
147
0.0
147
1.0
  0
MATERIAL
  5
1010015
102
{ACAD_XDICTIONARY
360
1010016
102
}
102
{ACAD_REACTORS
330
1010004
102
}
330
1010004
100
AcDbMaterial
  1
Global
 72
     0
 43
0.0008202099737533
 43
0.0
 43
0.0
 43
0.0
 43
0.0
 43
0.0008202099737533
 43
0.0
 43
0.0
 43
0.0
 43
0.0
 43
1.0
 43
0.0
 43
0.0
 43
0.0
 43
0.0
 43
1.0
 77
     0
 47
0.0008202099737533
 47
0.0
 47
0.0
 47
0.0
 47
0.0
 47
0.0008202099737533
 47
0.0
 47
0.0
 47
0.0
 47
0.0
 47
1.0
 47
0.0
 47
0.0
 47
0.0
 47
0.0
 47
1.0
171
     0
 49
0.0008202099737533
 49
0.0
 49
0.0
 49
0.0
 49
0.0
 49
0.0008202099737533
 49
0.0
 49
0.0
 49
0.0
 49
0.0
 49
1.0
 49
0.0
 49
0.0
 49
0.0
 49
0.0
 49
1.0
175
     0
142
0.0008202099737533
142
0.0
142
0.0
142
0.0
142
0.0
142
0.0008202099737533
142
0.0
142
0.0
142
0.0
142
0.0
142
1.0
142
0.0
142
0.0
142
0.0
142
0.0
142
1.0
179
     0
144
0.0008202099737533
144
0.0
144
0.0
144
0.0
144
0.0
144
0.0008202099737533
144
0.0
144
0.0
144
0.0
144
0.0
144
1.0
144
0.0
144
0.0
144
0.0
144
0.0
144
1.0
147
0.0008202099737533
147
0.0
147
0.0
147
0.0
147
0.0
147
0.0008202099737533
147
0.0
147
0.0
147
0.0
147
0.0
147
1.0
147
0.0
147
0.0
147
0.0
147
0.0
147
1.0
  0
MLEADERSTYLE
  5
101004D
102
{ACAD_REACTORS
330
101004C
102
}
330
101004C
100
AcDbMLeaderStyle
179
     2
170
     2
171
     1
172
     0
 90
        2
 40
0.0
 41
0.0
173
     1
 91
-1056964608
340
14
 92
       -2
290
     1
 42
0.09
291
     1
 43
0.36
  3
Standard
 44
0.18
300

342
11
174
     1
178
     6
175
     1
176
     0
 93
-1056964608
 45
0.18
292
     0
297
     0
 46
0.18
 94
-1056964608
 47
1.0
 49
1.0
140
1.0
293
     1
141
0.0
294
     1
177
     0
142
1.0
295
     0
296
     0
143
0.125
271
     0
272
     9
273
     9
298
     0
  0
MLINESTYLE
  5
1010039
102
{ACAD_REACTORS
330
17
102
}
330
17
100
AcDbMlineStyle
  2
STANDARD
 70
     0
  3

 62
   256
 51
90.0
 52
90.0
 71
     2
 49
0.5
 62
   256
  6
BYLAYER
 49
-0.5
 62
   256
  6
BYLAYER
  0
ACDBPLACEHOLDER
  5
1010003
102
{ACAD_REACTORS
330
1010002
102
}
330
1010002
  0
SCALE
  5
101003B
102
{ACAD_REACTORS
330
101003A
102
}
330
101003A
100
AcDbScale
 70
     0
300
1:1
140
1.0
141
1.0
290
     1
  0
SCALE
  5
101003C
102
{ACAD_REACTORS
330
101003A
102
}
330
101003A
100
AcDbScale
 70
     0
300
1/128" = 1'-0"
140
0.0078125
141
12.0
290
     0
  0
SCALE
  5
101003D
102
{ACAD_REACTORS
330
101003A
102
}
330
101003A
100
AcDbScale
 70
     0
300
1/64" = 1'-0"
140
0.015625
141
12.0
290
     0
  0
SCALE
  5
101003E
102
{ACAD_REACTORS
330
101003A
102
}
330
101003A
100
AcDbScale
 70
     0
300
1/32" = 1'-0"
140
0.03125
141
12.0
290
     0
  0
SCALE
  5
101003F
102
{ACAD_REACTORS
330
101003A
102
}
330
101003A
100
AcDbScale
 70
     0
300
1/16" = 1'-0"
140
0.0625
141
12.0
290
     0
  0
SCALE
  5
1010040
102
{ACAD_REACTORS
330
101003A
102
}
330
101003A
100
AcDbScale
 70
     0
300
3/32" = 1'-0"
140
0.09375
141
12.0
290
     0
  0
SCALE
  5
1010041
102
{ACAD_REACTORS
330
101003A
102
}
330
101003A
100
AcDbScale
 70
     0
300
1/8" = 1'-0"
140
0.125
141
12.0
290
     0
  0
SCALE
  5
1010042
102
{ACAD_REACTORS
330
101003A
102
}
330
101003A
100
AcDbScale
 70
     0
300
3/16" = 1'-0"
140
0.1875
141
12.0
290
     0
  0
SCALE
  5
1010043
102
{ACAD_REACTORS
330
101003A
102
}
330
101003A
100
AcDbScale
 70
     0
300
1/4" = 1'-0"
140
0.25
141
12.0
290
     0
  0
SCALE
  5
1010044
102
{ACAD_REACTORS
330
101003A
102
}
330
101003A
100
AcDbScale
 70
     0
300
3/8" = 1'-0"
140
0.375
141
12.0
290
     0
  0
SCALE
  5
1010045
102
{ACAD_REACTORS
330
101003A
102
}
330
101003A
100
AcDbScale
 70
     0
300
1/2" = 1'-0"
140
0.5
141
12.0
290
     0
  0
SCALE
  5
1010046
102
{ACAD_REACTORS
330
101003A
102
}
330
101003A
100
AcDbScale
 70
     0
300
3/4" = 1'-0"
140
0.75
141
12.0
290
     0
  0
SCALE
  5
1010047
102
{ACAD_REACTORS
330
101003A
102
}
330
101003A
100
AcDbScale
 70
     0
300
1" = 1'-0"
140
1.0
141
12.0
290
     0
  0
SCALE
  5
1010048
102
{ACAD_REACTORS
330
101003A
102
}
330
101003A
100
AcDbScale
 70
     0
300
1-1/2" = 1'-0"
140
1.5
141
12.0
290
     0
  0
SCALE
  5
1010049
102
{ACAD_REACTORS
330
101003A
102
}
330
101003A
100
AcDbScale
 70
     0
300
3" = 1'-0"
140
3.0
141
12.0
290
     0
  0
SCALE
  5
101004A
102
{ACAD_REACTORS
330
101003A
102
}
330
101003A
100
AcDbScale
 70
     0
300
6" = 1'-0"
140
6.0
141
12.0
290
     0
  0
SCALE
  5
101004B
102
{ACAD_REACTORS
330
101003A
102
}
330
101003A
100
AcDbScale
 70
     0
300
1'-0" = 1'-0"
140
12.0
141
12.0
290
     0
  0
ACDBSECTIONVIEWSTYLE
  5
101004F
102
{ACAD_XDICTIONARY
360
1010276
102
}
102
{ACAD_REACTORS
330
101004E
102
}
330
101004E
100
AcDbModelDocViewStyle
 70
     0
  3
Imperial24
290
     0
100
AcDbSectionViewStyle
 70
     0
 71
     0
 90
       78
 71
     1
340
11
 62
   256
 40
0.24
340
0
340
0
 62
   256
 40
0.24
300
I, O, Q, S, X, Z
 40
0.48
 90
        3
 40
0.18
 90
        1
 71
     2
340
0
 90
       25
 62
   256
340
0
 90
       50
 62
   256
 40
0.24
 40
0.0
 40
0.24
 71
     3
340
11
 62
   256
 40
0.24
 90
        1
 40
0.75
 90
        1
300
%<\AcVar ViewType \f "%tc1">% %<\AcVar ViewSectionStartId>%-%<\AcVar ViewSectionEndId>%\PSCALE %<\AcVar ViewScale \f "%sn">%
 71
     4
 62
   256
 62
   257
300
ANSI31
 40
1.0
 90
        0
290
     0
290
     0
 90
        6
 40
0.0
 40
1.570796326794896
 40
0.2617993877991494
 40
1.308996938995747
 40
-0.2617993877991494
 40
1.832595714594045
  0
TABLESTYLE
  5
1010038
102
{ACAD_XDICTIONARY
360
1010274
102
}
102
{ACAD_REACTORS
330
1010037
102
}
330
1010037
100
AcDbTableStyle
280
     0
  3
Standard
 70
     0
 71
     0
 40
0.06
 41
0.06
280
     0
281
     0
  7
STANDARD
140
0.18
170
     2
 62
     0
 63
     7
283
     0
 90
      512
 91
        0
  1

274
    -2
284
     1
 64
     0
275
    -2
285
     1
 65
     0
276
    -2
286
     1
 66
     0
277
    -2
287
     1
 67
     0
278
    -2
288
     1
 68
     0
279
    -2
289
     1
 69
     0
  7
STANDARD
140
0.25
170
     5
 62
     0
 63
     7
283
     0
 90
      512
 91
        0
  1

274
    -2
284
     1
 64
     0
275
    -2
285
     1
 65
     0
276
    -2
286
     1
 66
     0
277
    -2
287
     1
 67
     0
278
    -2
288
     1
 68
     0
279
    -2
289
     1
 69
     0
  7
STANDARD
140
0.18
170
     5
 62
     0
 63
     7
283
     0
 90
      512
 91
        0
  1

274
    -2
284
     1
 64
     0
275
    -2
285
     1
 65
     0
276
    -2
286
     1
 66
     0
277
    -2
287
     1
 67
     0
278
    -2
288
     1
 68
     0
279
    -2
289
     1
 69
     0
  0
VISUALSTYLE
  5
1010023
102
{ACAD_REACTORS
330
101001D
102
}
330
101001D
100
AcDbVisualStyle
  2
2dWireframe
 70
     4
177
     3
291
     0
 70
    58
 90
        0
176
     1
 90
        2
176
     1
 90
        0
176
     1
 90
        0
176
     1
 40
0.6
176
     1
 40
30.0
176
     1
 62
     7
420
 16777215
176
     1
 90
        1
176
     1
 90
        4
176
     1
 62
     7
176
     1
 62
   257
176
     1
 90
        1
176
     1
 90
        1
176
     1
 40
1.0
176
     1
 90
        0
176
     1
 62
   257
176
     1
 40
1.0
176
     1
 90
        1
176
     1
 90
        6
176
     1
 90
        2
176
     1
 62
     7
176
     1
 90
        5
176
     1
 90
        0
176
     1
 90
        0
176
     1
290
     0
176
     1
 90
        1
176
     1
 40
0.0
176
     1
 90
        0
176
     1
290
     1
176
     1
290
     1
176
     1
290
     0
176
     1
290
     0
176
     1
290
     0
176
     1
290
     0
176
     1
290
     0
176
     1
290
     0
176
     1
290
     0
176
     1
 90
       50
176
     1
 40
0.0
176
     1
 40
1.0
176
     1
 90
        0
176
     1
 62
    18
176
     1
 90
       50
176
     1
 90
        3
176
     1
 62
     5
420
      255
176
     1
290
     0
176
     1
 90
       50
176
     1
 90
       50
176
     1
 90
       50
176
     1
290
     0
176
     1
 90
       50
176
     1
 62
   256
176
     0
 40
1.0
176
     0
 90
        2
176
     1
  1
strokes_ogs.tif
176
     1
290
     0
176
     1
 40
1.0
176
     1
 40
1.0
176
     1
  0
VISUALSTYLE
  5
1010022
102
{ACAD_REACTORS
330
101001D
102
}
330
101001D
100
AcDbVisualStyle
  2
Basic
 70
     7
177
     3
291
     1
 70
    58
 90
        1
176
     1
 90
        0
176
     1
 90
        1
176
     1
 90
        0
176
     1
 40
0.6
176
     1
 40
30.0
176
     1
 62
     7
420
 16777215
176
     1
 90
        0
176
     1
 90
        4
176
     1
 62
     7
176
     1
 62
   257
176
     1
 90
        1
176
     1
 90
        1
176
     1
 40
1.0
176
     1
 90
        8
176
     1
 62
     7
176
     1
 40
1.0
176
     1
 90
        1
176
     1
 90
        6
176
     1
 90
        2
176
     1
 62
     7
176
     1
 90
        5
176
     1
 90
        0
176
     1
 90
        0
176
     1
290
     0
176
     1
 90
        1
176
     1
 40
0.0
176
     1
 90
        0
176
     1
290
     0
176
     1
290
     1
176
     1
290
     1
176
     1
290
     0
176
     1
290
     0
176
     1
290
     0
176
     1
290
     0
176
     1
290
     0
176
     1
290
     0
176
     1
 90
       50
176
     1
 40
0.0
176
     1
 40
1.0
176
     1
 90
        0
176
     1
 62
    18
176
     1
 90
       50
176
     1
 90
        3
176
     1
 62
     5
420
      255
176
     1
290
     0
176
     1
 90
       50
176
     1
 90
       50
176
     1
 90
       50
176
     1
290
     0
176
     1
 90
       50
176
     1
 62
   256
176
     0
 40
1.0
176
     0
 90
        2
176
     1
  1
strokes_ogs.tif
176
     1
290
     0
176
     1
 40
1.0
176
     1
 40
1.0
176
     1
  0
VISUALSTYLE
  5
1010029
102
{ACAD_REACTORS
330
101001D
102
}
330
101001D
100
AcDbVisualStyle
  2
Brighten
 70
    12
177
     3
291
     1
 70
    58
 90
        2
176
     1
 90
        2
176
     1
 90
        0
176
     1
 90
        0
176
     1
 40
0.6
176
     1
 40
30.0
176
     1
 62
     7
420
 16777215
176
     1
 90
        1
176
     1
 90
        4
176
     1
 62
     7
176
     1
 62
   257
176
     1
 90
        1
176
     1
 90
        1
176
     1
 40
1.0
176
     1
 90
        8
176
     1
 62
     7
176
     1
 40
1.0
176
     1
 90
        1
176
     1
 90
        6
176
     1
 90
        2
176
     1
 62
     7
176
     1
 90
        5
176
     1
 90
        0
176
     1
 90
        0
176
     1
290
     0
176
     1
 90
        1
176
     1
 40
50.0
176
     1
 90
        0
176
     1
290
     0
176
     1
290
     1
176
     1
290
     1
176
     1
290
     0
176
     1
290
     0
176
     1
290
     0
176
     1
290
     0
176
     1
290
     0
176
     1
290
     0
176
     1
 90
       50
176
     1
 40
0.0
176
     1
 40
1.0
176
     1
 90
        0
176
     1
 62
    18
176
     1
 90
       50
176
     1
 90
        3
176
     1
 62
     5
420
      255
176
     1
290
     0
176
     1
 90
       50
176
     1
 90
       50
176
     1
 90
       50
176
     1
290
     0
176
     1
 90
       50
176
     1
 62
   256
176
     0
 40
1.0
176
     0
 90
        2
176
     1
  1
strokes_ogs.tif
176
     1
290
     0
176
     1
 40
1.0
176
     1
 40
1.0
176
     1
  0
VISUALSTYLE
  5
101002D
102
{ACAD_REACTORS
330
101001D
102
}
330
101001D
100
AcDbVisualStyle
  2
ColorChange
 70
    16
177
     3
291
     1
 70
    58
 90
        2
176
     1
 90
        2
176
     1
 90
        3
176
     1
 90
        0
176
     1
 40
0.6
176
     1
 40
30.0
176
     1
 62
     8
420
  8421504
176
     1
 90
        1
176
     1
 90
        4
176
     1
 62
     7
176
     1
 62
   257
176
     1
 90
        1
176
     1
 90
        1
176
     1
 40
1.0
176
     1
 90
        8
176
     1
 62
     8
420
  8421504
176
     1
 40
1.0
176
     1
 90
        1
176
     1
 90
        6
176
     1
 90
        2
176
     1
 62
     7
176
     1
 90
        5
176
     1
 90
        0
176
     1
 90
        0
176
     1
290
     0
176
     1
 90
        1
176
     1
 40
0.0
176
     1
 90
        0
176
     1
290
     0
176
     1
290
     1
176
     1
290
     1
176
     1
290
     0
176
     1
290
     0
176
     1
290
     0
176
     1
290
     0
176
     1
290
     0
176
     1
290
     0
176
     1
 90
       50
176
     1
 40
0.0
176
     1
 40
1.0
176
     1
 90
        0
176
     1
 62
    18
176
     1
 90
       50
176
     1
 90
        3
176
     1
 62
     5
420
      255
176
     1
290
     0
176
     1
 90
       50
176
     1
 90
       50
176
     1
 90
       50
176
     1
290
     0
176
     1
 90
       50
176
     1
 62
   256
176
     0
 40
1.0
176
     0
 90
        2
176
     1
  1
strokes_ogs.tif
176
     1
290
     0
176
     1
 40
1.0
176
     1
 40
1.0
176
     1
  0
VISUALSTYLE
  5
1010026
102
{ACAD_REACTORS
330
101001D
102
}
330
101001D
100
AcDbVisualStyle
  2
Conceptual
 70
     9
177
     3
291
     0
 70
    58
 90
        3
176
     1
 90
        2
176
     1
 90
        0
176
     1
 90
        0
176
     1
 40
0.6
176
     1
 40
30.0
176
     1
 62
     7
420
 16777215
176
     1
 90
        2
176
     1
 90
        2
176
     1
 62
     7
176
     1
 62
   257
176
     1
 90
        1
176
     1
 90
        1
176
     1
 40
179.0
176
     1
 90
        8
176
     1
 62
     7
176
     1
 40
1.0
176
     1
 90
        1
176
     1
 90
        6
176
     1
 90
        2
176
     1
 62
     7
176
     1
 90
        3
176
     1
 90
        0
176
     1
 90
        0
176
     1
290
     0
176
     1
 90
        1
176
     1
 40
0.0
176
     1
 90
        0
176
     1
290
     0
176
     1
290
     1
176
     1
290
     1
176
     1
290
     0
176
     1
290
     0
176
     1
290
     0
176
     1
290
     0
176
     1
290
     0
176
     1
290
     0
176
     1
 90
       50
176
     1
 40
0.0
176
     1
 40
1.0
176
     1
 90
        0
176
     1
 62
    18
176
     1
 90
       50
176
     1
 90
        3
176
     1
 62
     5
420
      255
176
     1
290
     0
176
     1
 90
       50
176
     1
 90
       50
176
     1
 90
       50
176
     1
290
     0
176
     1
 90
       50
176
     1
 62
   256
176
     0
 40
1.0
176
     0
 90
        2
176
     1
  1
strokes_ogs.tif
176
     1
290
     0
176
     1
 40
1.0
176
     1
 40
1.0
176
     1
  0
VISUALSTYLE
  5
1010028
102
{ACAD_REACTORS
330
101001D
102
}
330
101001D
100
AcDbVisualStyle
  2
Dim
 70
    11
177
     3
291
     1
 70
    58
 90
        2
176
     1
 90
        2
176
     1
 90
        0
176
     1
 90
        0
176
     1
 40
0.6
176
     1
 40
30.0
176
     1
 62
     7
420
 16777215
176
     1
 90
        1
176
     1
 90
        4
176
     1
 62
     7
176
     1
 62
   257
176
     1
 90
        1
176
     1
 90
        1
176
     1
 40
1.0
176
     1
 90
        8
176
     1
 62
     7
176
     1
 40
1.0
176
     1
 90
        1
176
     1
 90
        6
176
     1
 90
        2
176
     1
 62
     7
176
     1
 90
        5
176
     1
 90
        0
176
     1
 90
        0
176
     1
290
     0
176
     1
 90
        1
176
     1
 40
-50.0
176
     1
 90
        0
176
     1
290
     0
176
     1
290
     1
176
     1
290
     1
176
     1
290
     0
176
     1
290
     0
176
     1
290
     0
176
     1
290
     0
176
     1
290
     0
176
     1
290
     0
176
     1
 90
       50
176
     1
 40
0.0
176
     1
 40
1.0
176
     1
 90
        0
176
     1
 62
    18
176
     1
 90
       50
176
     1
 90
        3
176
     1
 62
     5
420
      255
176
     1
290
     0
176
     1
 90
       50
176
     1
 90
       50
176
     1
 90
       50
176
     1
290
     0
176
     1
 90
       50
176
     1
 62
   256
176
     0
 40
1.0
176
     0
 90
        2
176
     1
  1
strokes_ogs.tif
176
     1
290
     0
176
     1
 40
1.0
176
     1
 40
1.0
176
     1
  0
VISUALSTYLE
  5
1010035
102
{ACAD_REACTORS
330
101001D
102
}
330
101001D
100
AcDbVisualStyle
  2
EdgeColorOff
 70
    22
177
     3
291
     1
 70
    58
 90
        2
176
     0
 90
        2
176
     0
 90
        0
176
     0
 90
        0
176
     0
 40
0.6
176
     0
 40
30.0
176
     0
 62
     7
420
 16777215
176
     0
 90
        1
176
     0
 90
        4
176
     0
 62
     7
176
     0
 62
   257
176
     0
 90
        1
176
     0
 90
        1
176
     0
 40
1.0
176
     0
 90
        8
176
     2
 62
     7
176
     0
 40
1.0
176
     0
 90
        1
176
     0
 90
        6
176
     0
 90
        2
176
     0
 62
     7
176
     0
 90
        5
176
     0
 90
        0
176
     0
 90
        0
176
     0
290
     0
176
     0
 90
        1
176
     0
 40
0.0
176
     0
 90
        0
176
     0
290
     0
176
     1
290
     1
176
     1
290
     1
176
     1
290
     0
176
     1
290
     0
176
     1
290
     0
176
     1
290
     0
176
     1
290
     0
176
     1
290
     0
176
     1
 90
       50
176
     0
 40
0.0
176
     0
 40
1.0
176
     0
 90
        0
176
     0
 62
    18
176
     0
 90
       50
176
     0
 90
        3
176
     0
 62
     5
420
      255
176
     0
290
     0
176
     1
 90
       50
176
     0
 90
       50
176
     0
 90
       50
176
     0
290
     0
176
     1
 90
       50
176
     0
 62
   256
176
     0
 40
1.0
176
     0
 90
        2
176
     0
  1
strokes_ogs.tif
176
     0
290
     0
176
     1
 40
1.0
176
     0
 40
1.0
176
     0
  0
VISUALSTYLE
  5
101002C
102
{ACAD_REACTORS
330
101001D
102
}
330
101001D
100
AcDbVisualStyle
  2
Facepattern
 70
    15
177
     3
291
     1
 70
    58
 90
        2
176
     1
 90
        2
176
     1
 90
        0
176
     1
 90
        0
176
     1
 40
0.6
176
     1
 40
30.0
176
     1
 62
     7
420
 16777215
176
     1
 90
        1
176
     1
 90
        4
176
     1
 62
     7
176
     1
 62
   257
176
     1
 90
        1
176
     1
 90
        1
176
     1
 40
1.0
176
     1
 90
        8
176
     1
 62
     7
176
     1
 40
1.0
176
     1
 90
        1
176
     1
 90
        6
176
     1
 90
        2
176
     1
 62
     7
176
     1
 90
        5
176
     1
 90
        0
176
     1
 90
        0
176
     1
290
     0
176
     1
 90
        1
176
     1
 40
0.0
176
     1
 90
        0
176
     1
290
     0
176
     1
290
     1
176
     1
290
     1
176
     1
290
     0
176
     1
290
     0
176
     1
290
     0
176
     1
290
     0
176
     1
290
     0
176
     1
290
     0
176
     1
 90
       50
176
     1
 40
0.0
176
     1
 40
1.0
176
     1
 90
        0
176
     1
 62
    18
176
     1
 90
       50
176
     1
 90
        3
176
     1
 62
     5
420
      255
176
     1
290
     0
176
     1
 90
       50
176
     1
 90
       50
176
     1
 90
       50
176
     1
290
     0
176
     1
 90
       50
176
     1
 62
   256
176
     0
 40
1.0
176
     0
 90
        2
176
     1
  1
strokes_ogs.tif
176
     1
290
     0
176
     1
 40
1.0
176
     1
 40
1.0
176
     1
  0
VISUALSTYLE
  5
101001E
102
{ACAD_REACTORS
330
101001D
102
}
330
101001D
100
AcDbVisualStyle
  2
Flat
 70
     0
177
     3
291
     1
 70
    58
 90
        2
176
     1
 90
        1
176
     1
 90
        1
176
     1
 90
        2
176
     1
 40
0.6
176
     1
 40
30.0
176
     1
 62
     7
420
 16777215
176
     1
 90
        0
176
     1
 90
        0
176
     1
 62
     7
176
     1
 62
   257
176
     1
 90
        1
176
     1
 90
        1
176
     1
 40
1.0
176
     1
 90
        8
176
     1
 62
     7
176
     1
 40
1.0
176
     1
 90
        1
176
     1
 90
        6
176
     1
 90
        2
176
     1
 62
     7
176
     1
 90
        5
176
     1
 90
        0
176
     1
 90
        0
176
     1
290
     0
176
     1
 90
       13
176
     1
 40
0.0
176
     1
 90
        0
176
     1
290
     0
176
     1
290
     1
176
     1
290
     1
176
     1
290
     0
176
     1
290
     0
176
     1
290
     0
176
     1
290
     0
176
     1
290
     0
176
     1
290
     0
176
     1
 90
       50
176
     1
 40
0.0
176
     1
 40
1.0
176
     1
 90
        0
176
     1
 62
    18
176
     1
 90
       50
176
     1
 90
        3
176
     1
 62
     5
420
      255
176
     1
290
     0
176
     1
 90
       50
176
     1
 90
       50
176
     1
 90
       50
176
     1
290
     0
176
     1
 90
       50
176
     1
 62
   256
176
     0
 40
1.0
176
     0
 90
        2
176
     1
  1
strokes_ogs.tif
176
     1
290
     0
176
     1
 40
1.0
176
     1
 40
1.0
176
     1
  0
VISUALSTYLE
  5
101001F
102
{ACAD_REACTORS
330
101001D
102
}
330
101001D
100
AcDbVisualStyle
  2
FlatWithEdges
 70
     1
177
     3
291
     1
 70
    58
 90
        2
176
     1
 90
        1
176
     1
 90
        1
176
     1
 90
        2
176
     1
 40
0.6
176
     1
 40
30.0
176
     1
 62
     7
420
 16777215
176
     1
 90
        1
176
     1
 90
        0
176
     1
 62
     7
176
     1
 62
   257
176
     1
 90
        1
176
     1
 90
        1
176
     1
 40
1.0
176
     1
 90
        0
176
     1
 62
   257
176
     1
 40
1.0
176
     1
 90
        1
176
     1
 90
        6
176
     1
 90
        2
176
     1
 62
     7
176
     1
 90
        5
176
     1
 90
        0
176
     1
 90
        0
176
     1
290
     0
176
     1
 90
       13
176
     1
 40
0.0
176
     1
 90
        0
176
     1
290
     0
176
     1
290
     1
176
     1
290
     1
176
     1
290
     0
176
     1
290
     0
176
     1
290
     0
176
     1
290
     0
176
     1
290
     0
176
     1
290
     0
176
     1
 90
       50
176
     1
 40
0.0
176
     1
 40
1.0
176
     1
 90
        0
176
     1
 62
    18
176
     1
 90
       50
176
     1
 90
        3
176
     1
 62
     5
420
      255
176
     1
290
     0
176
     1
 90
       50
176
     1
 90
       50
176
     1
 90
       50
176
     1
290
     0
176
     1
 90
       50
176
     1
 62
   256
176
     0
 40
1.0
176
     0
 90
        2
176
     1
  1
strokes_ogs.tif
176
     1
290
     0
176
     1
 40
1.0
176
     1
 40
1.0
176
     1
  0
VISUALSTYLE
  5
1010020
102
{ACAD_REACTORS
330
101001D
102
}
330
101001D
100
AcDbVisualStyle
  2
Gouraud
 70
     2
177
     3
291
     1
 70
    58
 90
        2
176
     1
 90
        2
176
     1
 90
        1
176
     1
 90
        2
176
     1
 40
0.6
176
     1
 40
30.0
176
     1
 62
     7
420
 16777215
176
     1
 90
        0
176
     1
 90
        0
176
     1
 62
     7
176
     1
 62
   257
176
     1
 90
        1
176
     1
 90
        1
176
     1
 40
1.0
176
     1
 90
        0
176
     1
 62
     7
176
     1
 40
1.0
176
     1
 90
        1
176
     1
 90
        6
176
     1
 90
        2
176
     1
 62
     7
176
     1
 90
        5
176
     1
 90
        0
176
     1
 90
        0
176
     1
290
     0
176
     1
 90
       13
176
     1
 40
0.0
176
     1
 90
        0
176
     1
290
     0
176
     1
290
     1
176
     1
290
     1
176
     1
290
     0
176
     1
290
     0
176
     1
290
     0
176
     1
290
     0
176
     1
290
     0
176
     1
290
     0
176
     1
 90
       50
176
     1
 40
0.0
176
     1
 40
1.0
176
     1
 90
        0
176
     1
 62
    18
176
     1
 90
       50
176
     1
 90
        3
176
     1
 62
     5
420
      255
176
     1
290
     0
176
     1
 90
       50
176
     1
 90
       50
176
     1
 90
       50
176
     1
290
     0
176
     1
 90
       50
176
     1
 62
   256
176
     0
 40
1.0
176
     0
 90
        2
176
     1
  1
strokes_ogs.tif
176
     1
290
     0
176
     1
 40
1.0
176
     1
 40
1.0
176
     1
  0
VISUALSTYLE
  5
1010021
102
{ACAD_REACTORS
330
101001D
102
}
330
101001D
100
AcDbVisualStyle
  2
GouraudWithEdges
 70
     3
177
     3
291
     1
 70
    58
 90
        2
176
     1
 90
        2
176
     1
 90
        1
176
     1
 90
        2
176
     1
 40
0.6
176
     1
 40
30.0
176
     1
 62
     7
420
 16777215
176
     1
 90
        1
176
     1
 90
        0
176
     1
 62
     7
176
     1
 62
   257
176
     1
 90
        1
176
     1
 90
        1
176
     1
 40
1.0
176
     1
 90
        0
176
     1
 62
   257
176
     1
 40
1.0
176
     1
 90
        1
176
     1
 90
        6
176
     1
 90
        2
176
     1
 62
     7
176
     1
 90
        5
176
     1
 90
        0
176
     1
 90
        0
176
     1
290
     0
176
     1
 90
       13
176
     1
 40
0.0
176
     1
 90
        0
176
     1
290
     0
176
     1
290
     1
176
     1
290
     1
176
     1
290
     0
176
     1
290
     0
176
     1
290
     0
176
     1
290
     0
176
     1
290
     0
176
     1
290
     0
176
     1
 90
       50
176
     1
 40
0.0
176
     1
 40
1.0
176
     1
 90
        0
176
     1
 62
    18
176
     1
 90
       50
176
     1
 90
        3
176
     1
 62
     5
420
      255
176
     1
290
     0
176
     1
 90
       50
176
     1
 90
       50
176
     1
 90
       50
176
     1
290
     0
176
     1
 90
       50
176
     1
 62
   256
176
     0
 40
1.0
176
     0
 90
        2
176
     1
  1
strokes_ogs.tif
176
     1
290
     0
176
     1
 40
1.0
176
     1
 40
1.0
176
     1
  0
VISUALSTYLE
  5
1010025
102
{ACAD_REACTORS
330
101001D
102
}
330
101001D
100
AcDbVisualStyle
  2
Hidden
 70
     6
177
     3
291
     0
 70
    58
 90
        1
176
     1
 90
        2
176
     1
 90
        2
176
     1
 90
        0
176
     1
 40
0.6
176
     1
 40
30.0
176
     1
 62
     7
420
 16777215
176
     1
 90
        2
176
     1
 90
        2
176
     1
 62
     7
176
     1
 62
   257
176
     1
 90
        2
176
     1
 90
        1
176
     1
 40
40.0
176
     1
 90
        0
176
     1
 62
   257
176
     1
 40
1.0
176
     1
 90
        1
176
     1
 90
        6
176
     1
 90
        2
176
     1
 62
     7
176
     1
 90
        3
176
     1
 90
        0
176
     1
 90
        0
176
     1
290
     0
176
     1
 90
        1
176
     1
 40
0.0
176
     1
 90
        0
176
     1
290
     0
176
     1
290
     1
176
     1
290
     1
176
     1
290
     0
176
     1
290
     0
176
     1
290
     0
176
     1
290
     0
176
     1
290
     0
176
     1
290
     0
176
     1
 90
       50
176
     1
 40
0.0
176
     1
 40
1.0
176
     1
 90
        0
176
     1
 62
    18
176
     1
 90
       50
176
     1
 90
        3
176
     1
 62
     5
420
      255
176
     1
290
     0
176
     1
 90
       50
176
     1
 90
       50
176
     1
 90
       50
176
     1
290
     0
176
     1
 90
       50
176
     1
 62
   256
176
     0
 40
1.0
176
     0
 90
        2
176
     1
  1
strokes_ogs.tif
176
     1
290
     0
176
     1
 40
1.0
176
     1
 40
1.0
176
     1
  0
VISUALSTYLE
  5
1010033
102
{ACAD_REACTORS
330
101001D
102
}
330
101001D
100
AcDbVisualStyle
  2
JitterOff
 70
    20
177
     3
291
     1
 70
    58
 90
        2
176
     0
 90
        2
176
     0
 90
        0
176
     0
 90
        0
176
     0
 40
0.6
176
     0
 40
30.0
176
     0
 62
     7
420
 16777215
176
     0
 90
        1
176
     0
 90
        4
176
     0
 62
     7
176
     0
 62
   257
176
     0
 90
        1
176
     0
 90
        1
176
     0
 40
1.0
176
     0
 90
       10
176
     2
 62
     7
176
     0
 40
1.0
176
     0
 90
        1
176
     0
 90
        6
176
     0
 90
        2
176
     0
 62
     7
176
     0
 90
        5
176
     0
 90
        0
176
     0
 90
        0
176
     0
290
     0
176
     0
 90
        1
176
     0
 40
0.0
176
     0
 90
        0
176
     0
290
     0
176
     1
290
     1
176
     1
290
     1
176
     1
290
     0
176
     1
290
     0
176
     1
290
     0
176
     1
290
     0
176
     1
290
     0
176
     1
290
     0
176
     1
 90
       50
176
     0
 40
0.0
176
     0
 40
1.0
176
     0
 90
        0
176
     0
 62
    18
176
     0
 90
       50
176
     0
 90
        3
176
     0
 62
     5
420
      255
176
     0
290
     0
176
     1
 90
       50
176
     0
 90
       50
176
     0
 90
       50
176
     0
290
     0
176
     1
 90
       50
176
     0
 62
   256
176
     0
 40
1.0
176
     0
 90
        2
176
     0
  1
strokes_ogs.tif
176
     0
290
     0
176
     1
 40
1.0
176
     0
 40
1.0
176
     0
  0
VISUALSTYLE
  5
101002B
102
{ACAD_REACTORS
330
101001D
102
}
330
101001D
100
AcDbVisualStyle
  2
Linepattern
 70
    14
177
     3
291
     1
 70
    58
 90
        2
176
     1
 90
        2
176
     1
 90
        0
176
     1
 90
        0
176
     1
 40
0.6
176
     1
 40
30.0
176
     1
 62
     7
420
 16777215
176
     1
 90
        1
176
     1
 90
        4
176
     1
 62
     7
176
     1
 62
   257
176
     1
 90
        7
176
     1
 90
        7
176
     1
 40
1.0
176
     1
 90
        8
176
     1
 62
     7
176
     1
 40
1.0
176
     1
 90
        1
176
     1
 90
        6
176
     1
 90
        2
176
     1
 62
     7
176
     1
 90
        5
176
     1
 90
        0
176
     1
 90
        0
176
     1
290
     0
176
     1
 90
        1
176
     1
 40
0.0
176
     1
 90
        0
176
     1
290
     0
176
     1
290
     1
176
     1
290
     1
176
     1
290
     0
176
     1
290
     0
176
     1
290
     0
176
     1
290
     0
176
     1
290
     0
176
     1
290
     0
176
     1
 90
       50
176
     1
 40
0.0
176
     1
 40
1.0
176
     1
 90
        0
176
     1
 62
    18
176
     1
 90
       50
176
     1
 90
        3
176
     1
 62
     5
420
      255
176
     1
290
     0
176
     1
 90
       50
176
     1
 90
       50
176
     1
 90
       50
176
     1
290
     0
176
     1
 90
       50
176
     1
 62
   256
176
     0
 40
1.0
176
     0
 90
        2
176
     1
  1
strokes_ogs.tif
176
     1
290
     0
176
     1
 40
1.0
176
     1
 40
1.0
176
     1
  0
VISUALSTYLE
  5
1010034
102
{ACAD_REACTORS
330
101001D
102
}
330
101001D
100
AcDbVisualStyle
  2
OverhangOff
 70
    21
177
     3
291
     1
 70
    58
 90
        2
176
     0
 90
        2
176
     0
 90
        0
176
     0
 90
        0
176
     0
 40
0.6
176
     0
 40
30.0
176
     0
 62
     7
420
 16777215
176
     0
 90
        1
176
     0
 90
        4
176
     0
 62
     7
176
     0
 62
   257
176
     0
 90
        1
176
     0
 90
        1
176
     0
 40
1.0
176
     0
 90
        9
176
     2
 62
     7
176
     0
 40
1.0
176
     0
 90
        1
176
     0
 90
        6
176
     0
 90
        2
176
     0
 62
     7
176
     0
 90
        5
176
     0
 90
        0
176
     0
 90
        0
176
     0
290
     0
176
     0
 90
        1
176
     0
 40
0.0
176
     0
 90
        0
176
     0
290
     0
176
     1
290
     1
176
     1
290
     1
176
     1
290
     0
176
     1
290
     0
176
     1
290
     0
176
     1
290
     0
176
     1
290
     0
176
     1
290
     0
176
     1
 90
       50
176
     0
 40
0.0
176
     0
 40
1.0
176
     0
 90
        0
176
     0
 62
    18
176
     0
 90
       50
176
     0
 90
        3
176
     0
 62
     5
420
      255
176
     0
290
     0
176
     1
 90
       50
176
     0
 90
       50
176
     0
 90
       50
176
     0
290
     0
176
     1
 90
       50
176
     0
 62
   256
176
     0
 40
1.0
176
     0
 90
        2
176
     0
  1
strokes_ogs.tif
176
     0
290
     0
176
     1
 40
1.0
176
     0
 40
1.0
176
     0
  0
VISUALSTYLE
  5
1010027
102
{ACAD_REACTORS
330
101001D
102
}
330
101001D
100
AcDbVisualStyle
  2
Realistic
 70
     8
177
     3
291
     0
 70
    58
 90
        2
176
     1
 90
        3
176
     1
 90
        0
176
     1
 90
        2
176
     1
 40
0.6
176
     1
 40
30.0
176
     1
 62
     7
420
 16777215
176
     1
 90
        0
176
     1
 90
        0
176
     1
 62
     7
176
     1
 62
   257
176
     1
 90
        1
176
     1
 90
        1
176
     1
 40
1.0
176
     1
 90
        8
176
     1
 62
   257
176
     1
 40
1.0
176
     1
 90
        1
176
     1
 90
        6
176
     1
 90
        2
176
     1
 62
     7
176
     1
 90
        3
176
     1
 90
        0
176
     1
 90
        0
176
     1
290
     0
176
     1
 90
       13
176
     1
 40
0.0
176
     1
 90
        0
176
     1
290
     0
176
     1
290
     1
176
     1
290
     1
176
     1
290
     0
176
     1
290
     0
176
     1
290
     0
176
     1
290
     0
176
     1
290
     0
176
     1
290
     0
176
     1
 90
       50
176
     1
 40
0.0
176
     1
 40
1.0
176
     1
 90
        0
176
     1
 62
    18
176
     1
 90
       50
176
     1
 90
        3
176
     1
 62
     5
420
      255
176
     1
290
     0
176
     1
 90
       50
176
     1
 90
       50
176
     1
 90
       50
176
     1
290
     0
176
     1
 90
       50
176
     1
 62
   256
176
     0
 40
1.0
176
     0
 90
        2
176
     1
  1
strokes_ogs.tif
176
     1
290
     0
176
     1
 40
1.0
176
     1
 40
1.0
176
     1
  0
VISUALSTYLE
  5
1010032
102
{ACAD_REACTORS
330
101001D
102
}
330
101001D
100
AcDbVisualStyle
  2
Shaded
 70
    27
177
     3
291
     0
 70
    58
 90
        2
176
     1
 90
        2
176
     1
 90
        1
176
     1
 90
        2
176
     1
 40
0.6
176
     1
 40
30.0
176
     1
 62
     7
420
 16777215
176
     1
 90
        0
176
     1
 90
        4
176
     1
 62
     7
176
     1
 62
   257
176
     1
 90
        1
176
     1
 90
        1
176
     1
 40
1.0
176
     1
 90
        8
176
     1
 62
   257
176
     1
 40
1.0
176
     1
 90
        1
176
     1
 90
        6
176
     1
 90
        2
176
     1
 62
     8
420
  7895160
176
     1
 90
        3
176
     1
 90
        0
176
     1
 90
        0
176
     1
290
     0
176
     1
 90
        5
176
     1
 40
0.0
176
     1
 90
        0
176
     1
290
     0
176
     1
290
     1
176
     1
290
     1
176
     1
290
     0
176
     1
290
     0
176
     1
290
     0
176
     1
290
     0
176
     1
290
     0
176
     1
290
     0
176
     1
 90
       50
176
     1
 40
0.0
176
     1
 40
1.0
176
     1
 90
        0
176
     1
 62
    18
176
     1
 90
       50
176
     1
 90
        3
176
     1
 62
     5
420
      255
176
     1
290
     0
176
     1
 90
       50
176
     1
 90
       50
176
     1
 90
       50
176
     1
290
     0
176
     1
 90
       50
176
     1
 62
   256
176
     0
 40
1.0
176
     0
 90
        2
176
     1
  1
strokes_ogs.tif
176
     1
290
     0
176
     1
 40
1.0
176
     1
 40
1.0
176
     1
  0
VISUALSTYLE
  5
1010031
102
{ACAD_REACTORS
330
101001D
102
}
330
101001D
100
AcDbVisualStyle
  2
Shaded with edges
 70
    26
177
     3
291
     0
 70
    58
 90
        2
176
     1
 90
        2
176
     1
 90
        1
176
     1
 90
        2
176
     1
 40
0.6
176
     1
 40
30.0
176
     1
 62
     7
420
 16777215
176
     1
 90
        1
176
     1
 90
        2
176
     1
 62
     7
176
     1
 62
   257
176
     1
 90
        2
176
     1
 90
        1
176
     1
 40
1.0
176
     1
 90
        8
176
     1
 62
   257
176
     1
 40
1.0
176
     1
 90
        1
176
     1
 90
        6
176
     1
 90
        2
176
     1
 62
     7
176
     1
 90
        3
176
     1
 90
        0
176
     1
 90
        0
176
     1
290
     0
176
     1
 90
        5
176
     1
 40
0.0
176
     1
 90
        0
176
     1
290
     0
176
     1
290
     1
176
     1
290
     1
176
     1
290
     0
176
     1
290
     0
176
     1
290
     0
176
     1
290
     0
176
     1
290
     0
176
     1
290
     0
176
     1
 90
       50
176
     1
 40
0.0
176
     1
 40
1.0
176
     1
 90
        0
176
     1
 62
    18
176
     1
 90
       50
176
     1
 90
        3
176
     1
 62
     5
420
      255
176
     1
290
     0
176
     1
 90
       50
176
     1
 90
       50
176
     1
 90
       50
176
     1
290
     0
176
     1
 90
       50
176
     1
 62
   256
176
     0
 40
1.0
176
     0
 90
        2
176
     1
  1
strokes_ogs.tif
176
     1
290
     0
176
     1
 40
1.0
176
     1
 40
1.0
176
     1
  0
VISUALSTYLE
  5
101002E
102
{ACAD_REACTORS
330
101001D
102
}
330
101001D
100
AcDbVisualStyle
  2
Shades of Gray
 70
    23
177
     3
291
     0
 70
    58
 90
        2
176
     1
 90
        2
176
     1
 90
        3
176
     1
 90
        0
176
     1
 40
0.6
176
     1
 40
30.0
176
     1
 62
     7
420
 16777215
176
     1
 90
        2
176
     1
 90
        2
176
     1
 62
     7
176
     1
 62
     7
176
     1
 90
        1
176
     1
 90
        1
176
     1
 40
40.0
176
     1
 90
        8
176
     1
 62
     7
176
     1
 40
1.0
176
     1
 90
        1
176
     1
 90
        6
176
     1
 90
        2
176
     1
 62
     7
176
     1
 90
        3
176
     1
 90
        0
176
     1
 90
        0
176
     1
290
     0
176
     1
 90
        1
176
     1
 40
0.0
176
     1
 90
        0
176
     1
290
     0
176
     1
290
     1
176
     1
290
     1
176
     1
290
     0
176
     1
290
     0
176
     1
290
     0
176
     1
290
     0
176
     1
290
     0
176
     1
290
     0
176
     1
 90
       50
176
     1
 40
0.0
176
     1
 40
1.0
176
     1
 90
        0
176
     1
 62
    18
176
     1
 90
       50
176
     1
 90
        3
176
     1
 62
     5
420
      255
176
     1
290
     0
176
     1
 90
       50
176
     1
 90
       50
176
     1
 90
       50
176
     1
290
     0
176
     1
 90
       50
176
     1
 62
   256
176
     0
 40
1.0
176
     0
 90
        2
176
     1
  1
strokes_ogs.tif
176
     1
290
     0
176
     1
 40
1.0
176
     1
 40
1.0
176
     1
  0
VISUALSTYLE
  5
101002F
102
{ACAD_REACTORS
330
101001D
102
}
330
101001D
100
AcDbVisualStyle
  2
Sketchy
 70
    24
177
     3
291
     0
 70
    58
 90
        1
176
     1
 90
        2
176
     1
 90
        2
176
     1
 90
        0
176
     1
 40
0.6
176
     1
 40
30.0
176
     1
 62
     7
420
 16777215
176
     1
 90
        2
176
     1
 90
        2
176
     1
 62
     7
176
     1
 62
     7
176
     1
 90
        1
176
     1
 90
        1
176
     1
 40
40.0
176
     1
 90
       11
176
     1
 62
     7
176
     1
 40
1.0
176
     1
 90
        1
176
     1
 90
        6
176
     1
 90
        2
176
     1
 62
     7
176
     1
 90
        6
176
     1
 90
        0
176
     1
 90
        0
176
     1
290
     0
176
     1
 90
        1
176
     1
 40
0.0
176
     1
 90
        0
176
     1
290
     0
176
     1
290
     1
176
     1
290
     1
176
     1
290
     0
176
     1
290
     0
176
     1
290
     0
176
     1
290
     0
176
     1
290
     0
176
     1
290
     0
176
     1
 90
       50
176
     1
 40
0.0
176
     1
 40
1.0
176
     1
 90
        0
176
     1
 62
    18
176
     1
 90
       50
176
     1
 90
        3
176
     1
 62
     5
420
      255
176
     1
290
     0
176
     1
 90
       50
176
     1
 90
       50
176
     1
 90
       50
176
     1
290
     0
176
     1
 90
       50
176
     1
 62
   256
176
     0
 40
1.0
176
     0
 90
        2
176
     1
  1
strokes_ogs.tif
176
     1
290
     0
176
     1
 40
1.0
176
     1
 40
1.0
176
     1
  0
VISUALSTYLE
  5
101002A
102
{ACAD_REACTORS
330
101001D
102
}
330
101001D
100
AcDbVisualStyle
  2
Thicken
 70
    13
177
     3
291
     1
 70
    58
 90
        2
176
     1
 90
        2
176
     1
 90
        0
176
     1
 90
        0
176
     1
 40
0.6
176
     1
 40
30.0
176
     1
 62
     7
420
 16777215
176
     1
 90
        1
176
     1
 90
        4
176
     1
 62
     7
176
     1
 62
   257
176
     1
 90
        1
176
     1
 90
        1
176
     1
 40
1.0
176
     1
 90
       12
176
     1
 62
     7
176
     1
 40
1.0
176
     1
 90
        1
176
     1
 90
        6
176
     1
 90
        2
176
     1
 62
     7
176
     1
 90
        5
176
     1
 90
        0
176
     1
 90
        0
176
     1
290
     0
176
     1
 90
        1
176
     1
 40
0.0
176
     1
 90
        0
176
     1
290
     0
176
     1
290
     1
176
     1
290
     1
176
     1
290
     0
176
     1
290
     0
176
     1
290
     0
176
     1
290
     0
176
     1
290
     0
176
     1
290
     0
176
     1
 90
       50
176
     1
 40
0.0
176
     1
 40
1.0
176
     1
 90
        0
176
     1
 62
    18
176
     1
 90
       50
176
     1
 90
        3
176
     1
 62
     5
420
      255
176
     1
290
     0
176
     1
 90
       50
176
     1
 90
       50
176
     1
 90
       50
176
     1
290
     0
176
     1
 90
       50
176
     1
 62
   256
176
     0
 40
1.0
176
     0
 90
        2
176
     1
  1
strokes_ogs.tif
176
     1
290
     0
176
     1
 40
1.0
176
     1
 40
1.0
176
     1
  0
VISUALSTYLE
  5
1010024
102
{ACAD_REACTORS
330
101001D
102
}
330
101001D
100
AcDbVisualStyle
  2
Wireframe
 70
     5
177
     3
291
     0
 70
    58
 90
        0
176
     1
 90
        2
176
     1
 90
        0
176
     1
 90
        0
176
     1
 40
0.6
176
     1
 40
30.0
176
     1
 62
     7
420
 16777215
176
     1
 90
        1
176
     1
 90
        4
176
     1
 62
     7
176
     1
 62
   257
176
     1
 90
        1
176
     1
 90
        1
176
     1
 40
1.0
176
     1
 90
        0
176
     1
 62
   257
176
     1
 40
1.0
176
     1
 90
        1
176
     1
 90
        6
176
     1
 90
        2
176
     1
 62
     7
176
     1
 90
        3
176
     1
 90
        0
176
     1
 90
        0
176
     1
290
     0
176
     1
 90
        1
176
     1
 40
0.0
176
     1
 90
        0
176
     1
290
     0
176
     1
290
     1
176
     1
290
     1
176
     1
290
     0
176
     1
290
     0
176
     1
290
     0
176
     1
290
     0
176
     1
290
     0
176
     1
290
     0
176
     1
 90
       50
176
     1
 40
0.0
176
     1
 40
1.0
176
     1
 90
        0
176
     1
 62
    18
176
     1
 90
       50
176
     1
 90
        3
176
     1
 62
     5
420
      255
176
     1
290
     0
176
     1
 90
       50
176
     1
 90
       50
176
     1
 90
       50
176
     1
290
     0
176
     1
 90
       50
176
     1
 62
   256
176
     0
 40
1.0
176
     0
 90
        2
176
     1
  1
strokes_ogs.tif
176
     1
290
     0
176
     1
 40
1.0
176
     1
 40
1.0
176
     1
  0
VISUALSTYLE
  5
1010030
102
{ACAD_REACTORS
330
101001D
102
}
330
101001D
100
AcDbVisualStyle
  2
X-Ray
 70
    25
177
     3
291
     0
 70
    58
 90
        2
176
     1
 90
        2
176
     1
 90
        1
176
     1
 90
        1
176
     1
 40
0.5
176
     1
 40
30.0
176
     1
 62
     7
420
 16777215
176
     1
 90
        1
176
     1
 90
        0
176
     1
 62
     7
176
     1
 62
   257
176
     1
 90
        1
176
     1
 90
        1
176
     1
 40
1.0
176
     1
 90
        8
176
     1
 62
     7
176
     1
 40
1.0
176
     1
 90
        1
176
     1
 90
        6
176
     1
 90
        2
176
     1
 62
     7
176
     1
 90
        3
176
     1
 90
        0
176
     1
 90
        0
176
     1
290
     0
176
     1
 90
       13
176
     1
 40
0.0
176
     1
 90
        0
176
     1
290
     0
176
     1
290
     1
176
     1
290
     1
176
     1
290
     0
176
     1
290
     0
176
     1
290
     0
176
     1
290
     0
176
     1
290
     0
176
     1
290
     0
176
     1
 90
       50
176
     1
 40
0.0
176
     1
 40
1.0
176
     1
 90
        0
176
     1
 62
    18
176
     1
 90
       50
176
     1
 90
        3
176
     1
 62
     5
420
      255
176
     1
290
     0
176
     1
 90
       50
176
     1
 90
       50
176
     1
 90
       50
176
     1
290
     0
176
     1
 90
       50
176
     1
 62
   256
176
     0
 40
1.0
176
     0
 90
        2
176
     1
  1
strokes_ogs.tif
176
     1
290
     0
176
     1
 40
1.0
176
     1
 40
1.0
176
     1
  0
DICTIONARYVAR
  5
1010082
102
{ACAD_REACTORS
330
101007C
102
}
330
101007C
100
DictionaryVariables
280
     0
  1
1:1
  0
DICTIONARYVAR
  5
101007E
102
{ACAD_REACTORS
330
101007C
102
}
330
101007C
100
DictionaryVariables
280
     0
  1
STANDARD
  0
DICTIONARYVAR
  5
101007D
102
{ACAD_REACTORS
330
101007C
102
}
330
101007C
100
DictionaryVariables
280
     0
  1
STANDARD
  0
DICTIONARYVAR
  5
101007F
102
{ACAD_REACTORS
330
101007C
102
}
330
101007C
100
DictionaryVariables
280
     0
  1
Imperial24
  0
DICTIONARYVAR
  5
1010080
102
{ACAD_REACTORS
330
101007C
102
}
330
101007C
100
DictionaryVariables
280
     0
  1
Imperial24
  0
DICTIONARYVAR
  5
1010084
102
{ACAD_REACTORS
330
101007C
102
}
330
101007C
100
DictionaryVariables
280
     0
  1
1
  0
DICTIONARYVAR
  5
1010085
102
{ACAD_REACTORS
330
101007C
102
}
330
101007C
100
DictionaryVariables
280
     0
  1
15
  0
DICTIONARYVAR
  5
1010083
102
{ACAD_REACTORS
330
101007C
102
}
330
101007C
100
DictionaryVariables
280
     0
  1
0
  0
DICTIONARYVAR
  5
1010081
102
{ACAD_REACTORS
330
101007C
102
}
330
101007C
100
DictionaryVariables
280
     0
  1
0
  0
DICTIONARY
  5
1010278
330
1010051
100
AcDbDictionary
280
     1
281
     1
  3
ACAD_XREC_ROUNDTRIP
360
101049A
  0
DICTIONARY
  5
101000E
330
101000D
100
AcDbDictionary
280
     1
281
     1
  3
BUMPTILE
360
1010010
  3
DIFFUSETILE
360
101000F
  3
OPACITYTILE
360
1010013
  3
REFLECTIONTILE
360
1010012
  3
REFRACTIONTILE
360
1010014
  3
SPECULARTILE
360
1010011
  0
DICTIONARY
  5
1010006
330
1010005
100
AcDbDictionary
280
     1
281
     1
  3
BUMPTILE
360
1010008
  3
DIFFUSETILE
360
1010007
  3
OPACITYTILE
360
101000B
  3
REFLECTIONTILE
360
101000A
  3
REFRACTIONTILE
360
101000C
  3
SPECULARTILE
360
1010009
  0
DICTIONARY
  5
1010016
330
1010015
100
AcDbDictionary
280
     1
281
     1
  3
BUMPTILE
360
1010018
  3
DIFFUSETILE
360
1010017
  3
OPACITYTILE
360
101001B
  3
REFLECTIONTILE
360
101001A
  3
REFRACTIONTILE
360
101001C
  3
SPECULARTILE
360
1010019
  0
DICTIONARY
  5
1010276
330
101004F
100
AcDbDictionary
280
     1
281
     1
  3
ACAD_XREC_ROUNDTRIP
360
1010499
  0
DICTIONARY
  5
1010274
330
1010038
100
AcDbDictionary
280
     1
281
     1
  3
ACAD_ROUNDTRIP_2008_TABLESTYLE_CELLSTYLEMAP
360
1010498
  0
XRECORD
  5
101049A
102
{ACAD_REACTORS
330
1010278
102
}
330
1010278
100
AcDbXrecord
280
     1
102
DISPLAYNAME
  1
Imperial24
102
FLAGS
 90
        0
  0
XRECORD
  5
1010010
102
{ACAD_REACTORS
330
101000E
102
}
330
101000E
100
AcDbXrecord
280
     1
270
     1
271
     1
  0
XRECORD
  5
101000F
102
{ACAD_REACTORS
330
101000E
102
}
330
101000E
100
AcDbXrecord
280
     1
270
     1
271
     1
  0
XRECORD
  5
1010013
102
{ACAD_REACTORS
330
101000E
102
}
330
101000E
100
AcDbXrecord
280
     1
270
     1
271
     1
  0
XRECORD
  5
1010012
102
{ACAD_REACTORS
330
101000E
102
}
330
101000E
100
AcDbXrecord
280
     1
270
     1
271
     1
  0
XRECORD
  5
1010014
102
{ACAD_REACTORS
330
101000E
102
}
330
101000E
100
AcDbXrecord
280
     1
270
     1
271
     1
  0
XRECORD
  5
1010011
102
{ACAD_REACTORS
330
101000E
102
}
330
101000E
100
AcDbXrecord
280
     1
270
     1
271
     1
  0
XRECORD
  5
1010008
102
{ACAD_REACTORS
330
1010006
102
}
330
1010006
100
AcDbXrecord
280
     1
270
     1
271
     1
  0
XRECORD
  5
1010007
102
{ACAD_REACTORS
330
1010006
102
}
330
1010006
100
AcDbXrecord
280
     1
270
     1
271
     1
  0
XRECORD
  5
101000B
102
{ACAD_REACTORS
330
1010006
102
}
330
1010006
100
AcDbXrecord
280
     1
270
     1
271
     1
  0
XRECORD
  5
101000A
102
{ACAD_REACTORS
330
1010006
102
}
330
1010006
100
AcDbXrecord
280
     1
270
     1
271
     1
  0
XRECORD
  5
101000C
102
{ACAD_REACTORS
330
1010006
102
}
330
1010006
100
AcDbXrecord
280
     1
270
     1
271
     1
  0
XRECORD
  5
1010009
102
{ACAD_REACTORS
330
1010006
102
}
330
1010006
100
AcDbXrecord
280
     1
270
     1
271
     1
  0
XRECORD
  5
1010018
102
{ACAD_REACTORS
330
1010016
102
}
330
1010016
100
AcDbXrecord
280
     1
270
     1
271
     1
  0
XRECORD
  5
1010017
102
{ACAD_REACTORS
330
1010016
102
}
330
1010016
100
AcDbXrecord
280
     1
270
     1
271
     1
  0
XRECORD
  5
101001B
102
{ACAD_REACTORS
330
1010016
102
}
330
1010016
100
AcDbXrecord
280
     1
270
     1
271
     1
  0
XRECORD
  5
101001A
102
{ACAD_REACTORS
330
1010016
102
}
330
1010016
100
AcDbXrecord
280
     1
270
     1
271
     1
  0
XRECORD
  5
101001C
102
{ACAD_REACTORS
330
1010016
102
}
330
1010016
100
AcDbXrecord
280
     1
270
     1
271
     1
  0
XRECORD
  5
1010019
102
{ACAD_REACTORS
330
1010016
102
}
330
1010016
100
AcDbXrecord
280
     1
270
     1
271
     1
  0
XRECORD
  5
1010499
102
{ACAD_REACTORS
330
1010276
102
}
330
1010276
100
AcDbXrecord
280
     1
102
DISPLAYNAME
  1
Imperial24
102
FLAGS
 90
        0
  0
CELLSTYLEMAP
  5
1010498
102
{ACAD_REACTORS
330
1010274
102
}
330
1010274
100
AcDbCellStyleMap
 90
        3
300
CELLSTYLE
  1
TABLEFORMAT_BEGIN
 90
        5
170
     1
 91
        0
 92
    32768
 62
   257
 93
        1
300
CONTENTFORMAT
  1
CONTENTFORMAT_BEGIN
 90
        0
 91
        0
 92
      512
 93
        0
300

 40
0.0
140
1.0
 94
        5
 62
     0
340
11
144
0.25
309
CONTENTFORMAT_END
171
     1
301
MARGIN
  1
CELLMARGIN_BEGIN
 40
0.06
 40
0.06
 40
0.06
 40
0.06
 40
0.18
 40
0.18
309
CELLMARGIN_END
 94
        6
 95
        1
302
GRIDFORMAT
  1
GRIDFORMAT_BEGIN
 90
        0
 91
        1
 62
     0
 92
       -2
340
0
 93
        0
 40
0.045
309
GRIDFORMAT_END
 95
        2
302
GRIDFORMAT
  1
GRIDFORMAT_BEGIN
 90
        0
 91
        1
 62
     0
 92
       -2
340
0
 93
        0
 40
0.045
309
GRIDFORMAT_END
 95
        4
302
GRIDFORMAT
  1
GRIDFORMAT_BEGIN
 90
        0
 91
        1
 62
     0
 92
       -2
340
0
 93
        0
 40
0.045
309
GRIDFORMAT_END
 95
        8
302
GRIDFORMAT
  1
GRIDFORMAT_BEGIN
 90
        0
 91
        1
 62
     0
 92
       -2
340
0
 93
        0
 40
0.045
309
GRIDFORMAT_END
 95
       16
302
GRIDFORMAT
  1
GRIDFORMAT_BEGIN
 90
        0
 91
        1
 62
     0
 92
       -2
340
0
 93
        0
 40
0.045
309
GRIDFORMAT_END
 95
       32
302
GRIDFORMAT
  1
GRIDFORMAT_BEGIN
 90
        0
 91
        1
 62
     0
 92
       -2
340
0
 93
        0
 40
0.045
309
GRIDFORMAT_END
309
TABLEFORMAT_END
  1
CELLSTYLE_BEGIN
 90
        1
 91
        1
300
_TITLE
309
CELLSTYLE_END
300
CELLSTYLE
  1
TABLEFORMAT_BEGIN
 90
        5
170
     1
 91
        0
 92
        0
 62
   257
 93
        1
300
CONTENTFORMAT
  1
CONTENTFORMAT_BEGIN
 90
        0
 91
        0
 92
      512
 93
        0
300

 40
0.0
140
1.0
 94
        5
 62
     0
340
11
144
0.18
309
CONTENTFORMAT_END
171
     1
301
MARGIN
  1
CELLMARGIN_BEGIN
 40
0.06
 40
0.06
 40
0.06
 40
0.06
 40
0.18
 40
0.18
309
CELLMARGIN_END
 94
        6
 95
        1
302
GRIDFORMAT
  1
GRIDFORMAT_BEGIN
 90
        0
 91
        1
 62
     0
 92
       -2
340
0
 93
        0
 40
0.045
309
GRIDFORMAT_END
 95
        2
302
GRIDFORMAT
  1
GRIDFORMAT_BEGIN
 90
        0
 91
        1
 62
     0
 92
       -2
340
0
 93
        0
 40
0.045
309
GRIDFORMAT_END
 95
        4
302
GRIDFORMAT
  1
GRIDFORMAT_BEGIN
 90
        0
 91
        1
 62
     0
 92
       -2
340
0
 93
        0
 40
0.045
309
GRIDFORMAT_END
 95
        8
302
GRIDFORMAT
  1
GRIDFORMAT_BEGIN
 90
        0
 91
        1
 62
     0
 92
       -2
340
0
 93
        0
 40
0.045
309
GRIDFORMAT_END
 95
       16
302
GRIDFORMAT
  1
GRIDFORMAT_BEGIN
 90
        0
 91
        1
 62
     0
 92
       -2
340
0
 93
        0
 40
0.045
309
GRIDFORMAT_END
 95
       32
302
GRIDFORMAT
  1
GRIDFORMAT_BEGIN
 90
        0
 91
        1
 62
     0
 92
       -2
340
0
 93
        0
 40
0.045
309
GRIDFORMAT_END
309
TABLEFORMAT_END
  1
CELLSTYLE_BEGIN
 90
        2
 91
        1
300
_HEADER
309
CELLSTYLE_END
300
CELLSTYLE
  1
TABLEFORMAT_BEGIN
 90
        5
170
     1
 91
        0
 92
        0
 62
   257
 93
        1
300
CONTENTFORMAT
  1
CONTENTFORMAT_BEGIN
 90
        0
 91
        0
 92
      512
 93
        0
300

 40
0.0
140
1.0
 94
        2
 62
     0
340
11
144
0.18
309
CONTENTFORMAT_END
171
     1
301
MARGIN
  1
CELLMARGIN_BEGIN
 40
0.06
 40
0.06
 40
0.06
 40
0.06
 40
0.18
 40
0.18
309
CELLMARGIN_END
 94
        6
 95
        1
302
GRIDFORMAT
  1
GRIDFORMAT_BEGIN
 90
        0
 91
        1
 62
     0
 92
       -2
340
0
 93
        0
 40
0.045
309
GRIDFORMAT_END
 95
        2
302
GRIDFORMAT
  1
GRIDFORMAT_BEGIN
 90
        0
 91
        1
 62
     0
 92
       -2
340
0
 93
        0
 40
0.045
309
GRIDFORMAT_END
 95
        4
302
GRIDFORMAT
  1
GRIDFORMAT_BEGIN
 90
        0
 91
        1
 62
     0
 92
       -2
340
0
 93
        0
 40
0.045
309
GRIDFORMAT_END
 95
        8
302
GRIDFORMAT
  1
GRIDFORMAT_BEGIN
 90
        0
 91
        1
 62
     0
 92
       -2
340
0
 93
        0
 40
0.045
309
GRIDFORMAT_END
 95
       16
302
GRIDFORMAT
  1
GRIDFORMAT_BEGIN
 90
        0
 91
        1
 62
     0
 92
       -2
340
0
 93
        0
 40
0.045
309
GRIDFORMAT_END
 95
       32
302
GRIDFORMAT
  1
GRIDFORMAT_BEGIN
 90
        0
 91
        1
 62
     0
 92
       -2
340
0
 93
        0
 40
0.045
309
GRIDFORMAT_END
309
TABLEFORMAT_END
  1
CELLSTYLE_BEGIN
 90
        3
 91
        2
300
_DATA
309
CELLSTYLE_END
  0
ENDSEC
  0
SECTION
  2
ACDSDATA
 70
     2
 71
     8
  0
ACDSSCHEMA
 90
        0
  1
AcDb_Thumbnail_Schema
  2
AcDbDs::ID
280
    10
 91
        8
  2
Thumbnail_Data
280
    15
 91
        0
101
ACDSRECORD
 95
        0
 90
        1
  2
AcDbDs::TreatedAsObjectData
280
     1
291
     1
101
ACDSRECORD
 95
        0
 90
        2
  2
AcDbDs::Legacy
280
     1
291
     1
101
ACDSRECORD
  1
AcDbDs::ID
 90
        3
  2
AcDs:Indexable
280
     1
291
     1
101
ACDSRECORD
  1
AcDbDs::ID
 90
        4
  2
AcDbDs::HandleAttribute
280
     7
282
     1
  0
ACDSSCHEMA
 90
        1
  1
AcDbDs::TreatedAsObjectDataSchema
  2
AcDbDs::TreatedAsObjectData
280
     1
 91
        0
  0
ACDSSCHEMA
 90
        2
  1
AcDbDs::LegacySchema
  2
AcDbDs::Legacy
280
     1
 91
        0
  0
ACDSSCHEMA
 90
        3
  1
AcDbDs::IndexedPropertySchema
  2
AcDs:Indexable
280
     1
 91
        0
  0
ACDSSCHEMA
 90
        4
  1
AcDbDs::HandleAttributeSchema
  2
AcDbDs::HandleAttribute
280
     7
 91
        1
284
     1
  0
ACDSRECORD
 90
        0
  2
AcDbDs::ID
280
    10
320
1010055
  2
Thumbnail_Data
280
    15
 94
     1987
310
89504E470D0A1A0A0000000D4948445200000100000000B90803000000F01E115D00000300504C54452128300000000000000000000000000000000000000000000000000000000000000000330000660000990000CC0000FF0033000033330033660033990033CC0033FF0066000066330066660066990066CC0066FF0099
310
000099330099660099990099CC0099FF00CC0000CC3300CC6600CC9900CCCC00CCFF00FF0000FF3300FF6600FF9900FFCC00FFFF3300003300333300663300993300CC3300FF3333003333333333663333993333CC3333FF3366003366333366663366993366CC3366FF3399003399333399663399993399CC3399FF33CC00
310
33CC3333CC6633CC9933CCCC33CCFF33FF0033FF3333FF6633FF9933FFCC33FFFF6600006600336600666600996600CC6600FF6633006633336633666633996633CC6633FF6666006666336666666666996666CC6666FF6699006699336699666699996699CC6699FF66CC0066CC3366CC6666CC9966CCCC66CCFF66FF0066
310
FF3366FF6666FF9966FFCC66FFFF9900009900339900669900999900CC9900FF9933009933339933669933999933CC9933FF9966009966339966669966999966CC9966FF9999009999339999669999999999CC9999FF99CC0099CC3399CC6699CC9999CCCC99CCFF99FF0099FF3399FF6699FF9999FFCC99FFFFCC0000CC00
310
33CC0066CC0099CC00CCCC00FFCC3300CC3333CC3366CC3399CC33CCCC33FFCC6600CC6633CC6666CC6699CC66CCCC66FFCC9900CC9933CC9966CC9999CC99CCCC99FFCCCC00CCCC33CCCC66CCCC99CCCCCCCCCCFFCCFF00CCFF33CCFF66CCFF99CCFFCCCCFFFFFF0000FF0033FF0066FF0099FF00CCFF00FFFF3300FF3333
310
FF3366FF3399FF33CCFF33FFFF6600FF6633FF6666FF6699FF66CCFF66FFFF9900FF9933FF9966FF9999FF99CCFF99FFFFCC00FFCC33FFCC66FFCC99FFCCCCFFCCFFFFFF00FFFF33FFFF66FFFF99FFFFCCFFFFFF0000000D0D0D1A1A1A2828283535354343435050505D5D5D6B6B6B787878868686939393A1A1A1AEAEAEBB
310
BBBBC9C9C9D6D6D6E4E4E4F1F1F1FFFFFF000000000000000000000000000000000000000000000000000000000000544354A80000023E4944415478DAEDDD5B9282301040D1EC7F51BDB629151121964A8531A1CFF5C71A344CAE79745E45290000005F13C3D15AC070BF18010410400001FF965EFB6EA76701DBDCC6E58F
310
6904C436F5B8E43F9208A86436A6571A01736EA7721FB7521129043C327B6D0A6E6177641370AB07DB5A904540A5C58F4825A0FE893402628460F1C85EA02417108BE8EFDE05F4375A383212BCC700D737F3F453AA50783338C854056E6F9F5AC2E8AF173C56C03ABB5365C85402AAE3FF48D5061402B2C6019BB980CC029E
310
E2E234022A41515A01CB129027125C0E0D1761703A01EB329149C03407589E66C75209788C85E75A904FC0621490AD1778913C01990494208000020820A06303041070707A41000104104040BF060614D076BFF17002A6DD16690544EBFFFBF8EDF25FB582EFCE74B55F5FF989806DC0FCF20CDBEA4254548C2860F94B7E76
310
766FBBB9646C01D3069AAF1AF4F57E9BC105ECB9739C4AC0EE3E908013F4020DE2807104B4BDC57DA3C1408150EB22D0F8CCFB70023A4F8E00027E720B020820A063017D375B0410400001041040C0B1E90501041040C0FAE2DBA9BDE507E28C02CABCF459C9F96A2DF0AC029E73BC5D22CE22E07D6A041040000104104000
310
010410400001041040000104104000010410308A80D82BE0242B432FCEFAC517F91F5C40D92BA094739580D85B0222466F036A8BA09F9D96DCF7C5DE7A81EAA5CFEF7C160165773E4E2360EFC33E8F7C4AA8C7ED114000010410400001CDD2CBFEF075000000000000000000000000000000000000A047FE00A230A2244D99
310
D7ED0000000049454E44AE426082452673C8B67BC96815CA793FA0D7669CAAAEB187A2FA19A7126EECA138928DCC80A06458D266032B2D85AC7AF6408FDD21C88C88CE21ABF198B906587E06D8649058649F672D5AFD3EAF0A45359F6B37748FDDA5C731CE473CAE848F9733201A19EDE50CF5F3B4D58E0BC9D36CB2C53C71
310
8E686424A39507F1D01A4D129AB21F715AE6611F139A5F092B2F88B077CCC122D33210BB3C22A0E1498A441D4F0C5E871B99F68C580CB46EB279680F9E458C340900F19D9F83CFBC7A9C7E7C666C42E6FDF42966161A9EDFC939998CC1719C9E7963D4C56667DEF8CEFBE74682CDB3EBAFDD3BAE40EC6EFC3F26DBD3C7A3FE
310
2DC9F6AEB68286996379B39992819F6DC6E95BB51E16D6A301E693A119333B9E68468479792F6FA691A119ADE291356D8AA3629E41D67CF6AA4D2661C9E6D8ECBBA21213FDCC58B5E29015A72D3B926E706C36F4EF04B2C17F9F450649B2D964F7BC12D3D633D4E2A5FED9B2BDF8EB4AF6AA513864E5057C6AB8EBFA877791
310
C2999A5A2AA87CB6BF770FC32BCE2059F38185836CD22350DFDB8C59676A2F0C45D5CFA81570656ECA6D6E423C3BC8C67A064124B27BDD17926C7243E3FB5C834036989F31C8C6725A0F9BF5D5011E8EF693C9C83BE961C8BEE86BB8ED03F4F5827CC6D36F31B3BE00CD359876084D89D7B58E070BACD2DB2E2016B5B73D1F
310
6D703F8061B4A13D141F57739D96A35FE5FA169C30600F32478F1794447C19782A954AA552A9542A954AA552A9542A954AA552A9542A954AA552FF97FE003B45D14C4C9C69B30000000049454E44AE426082
  0
ENDSEC
  0
EOF
